<svg width="19" height="15" viewBox="0 0 19 15" fill="none" xmlns="http://www.w3.org/2000/svg">
<path d="M16.2622 3.17884L17.33 1.93299C17.6391 1.59557 17.7234 1.33602 17.7515 1.20624C16.9085 1.67343 16.1217 1.82917 15.6159 1.82917H15.4192L15.3068 1.72534C14.6324 1.18028 13.7894 0.894775 12.8902 0.894775C10.9233 0.894775 9.37779 2.40018 9.37779 4.13919C9.37779 4.24301 9.37779 4.39874 9.40589 4.50256L9.49019 5.02167L8.90009 4.99571C5.30334 4.89189 2.35288 2.03681 1.87518 1.54366C1.08839 2.84142 1.53799 4.08728 2.01568 4.86594L2.97107 6.31943L1.45369 5.54077C1.48179 6.6309 1.93138 7.48742 2.80247 8.11035L3.56116 8.62945L2.80247 8.91496C3.28017 10.2387 4.34795 10.7837 5.13474 10.9914L6.17443 11.2509L5.19094 11.8739C3.61736 12.9121 1.65039 12.8342 0.779297 12.7563C2.54957 13.8984 4.65705 14.1579 6.11823 14.1579C7.21412 14.1579 8.02901 14.0541 8.2257 13.9762C16.0936 12.2632 16.4589 5.77437 16.4589 4.47661V4.29492L16.6275 4.1911C17.5829 3.36053 17.9763 2.91929 18.2011 2.65974C18.1168 2.68569 18.0044 2.7376 17.892 2.76356L16.2622 3.17884Z" fill="#CDCED6"/>
</svg>
