<svg width="19" height="21" viewBox="0 0 19 21" fill="none" xmlns="http://www.w3.org/2000/svg">
<path d="M17.8076 11.8129C17.741 11.0475 17.1088 10.5151 16.3434 10.5151H2.16795C1.40261 10.5151 0.803643 11.0808 0.703816 11.8129L0.00502514 18.8008C-0.0282506 19.2001 0.104853 19.6327 0.371059 19.9322C0.637265 20.2317 1.03657 20.398 1.46916 20.398H17.0755C17.4748 20.398 17.8741 20.2317 18.1736 19.9322C18.4398 19.6327 18.5729 19.2334 18.5396 18.8008L17.8076 11.8129ZM17.2751 19.1668C17.2419 19.2001 17.1753 19.2667 17.0422 19.2667H1.46916C1.36933 19.2667 1.2695 19.2001 1.23623 19.1668C1.20295 19.1336 1.1364 19.067 1.16968 18.9339L1.86847 11.9127C1.86847 11.7463 2.00157 11.6465 2.16795 11.6465H16.3767C16.5431 11.6465 16.6429 11.7463 16.6762 11.9127L17.375 18.9339C17.3417 19.0337 17.3084 19.1336 17.2751 19.1668Z" fill="#3056D3"/>
<path d="M9.25679 13.1106C7.95904 13.1106 6.92749 14.1421 6.92749 15.4399C6.92749 16.7377 7.95904 17.7692 9.25679 17.7692C10.5545 17.7692 11.5861 16.7377 11.5861 15.4399C11.5861 14.1421 10.5545 13.1106 9.25679 13.1106ZM9.25679 16.6045C8.62455 16.6045 8.09214 16.0721 8.09214 15.4399C8.09214 14.8077 8.62455 14.2752 9.25679 14.2752C9.88903 14.2752 10.4214 14.8077 10.4214 15.4399C10.4214 16.0721 9.88903 16.6045 9.25679 16.6045Z" fill="#3056D3"/>
<path d="M0.80183 6.05619C0.868382 7.52032 2.16614 8.11928 2.83165 8.11928H5.16095C5.19423 8.11928 5.19423 8.11928 5.19423 8.11928C6.1925 8.05273 7.19077 7.38722 7.19077 6.05619V5.25757C8.28887 5.25757 10.8178 5.25757 11.9159 5.25757V6.05619C11.9159 7.38722 12.9142 8.05273 13.9125 8.11928H13.9458H16.2418C16.9073 8.11928 18.205 7.52032 18.2716 6.05619C18.2716 5.95636 18.2716 5.59033 18.2716 5.25757C18.2716 4.99136 18.2716 4.75843 18.2716 4.72516C18.2716 4.69188 18.2716 4.6586 18.2716 4.6586C18.1718 3.72688 17.839 2.96154 17.2733 2.36258L17.2401 2.3293C16.4082 1.56396 15.4099 1.13138 14.6445 0.865169C12.4151 0 9.6199 0 9.4868 0C7.52353 0.0332757 6.25905 0.199654 4.36234 0.865169C3.63027 1.0981 2.632 1.53068 1.8001 2.29603L1.76683 2.3293C1.20114 2.92827 0.868382 3.69361 0.768555 4.62533C0.768555 4.6586 0.768555 4.69188 0.768555 4.69188C0.768555 4.75843 0.768555 4.95809 0.768555 5.22429C0.80183 5.52377 0.80183 5.92308 0.80183 6.05619ZM2.59872 3.12792C3.26424 2.52896 4.09613 2.16292 4.79492 1.89672C6.52526 1.26448 7.65664 1.13138 9.55335 1.0981C9.68646 1.0981 12.282 1.13138 14.2785 1.89672C14.9773 2.16292 15.8092 2.49568 16.4747 3.12792C16.8407 3.52723 17.0737 4.05964 17.1402 4.69188C17.1402 4.79171 17.1402 4.95809 17.1402 5.22429C17.1402 5.55705 17.1402 5.92308 17.1402 6.02291C17.1069 6.78825 16.3749 6.95463 16.2751 6.95463H13.979C13.6463 6.92135 13.1139 6.78825 13.1139 6.05619V4.69188C13.1139 4.42567 12.9475 4.22602 12.7145 4.12619C12.5149 4.05964 6.69164 4.05964 6.49198 4.12619C6.25905 4.19274 6.09267 4.42567 6.09267 4.69188V6.05619C6.09267 6.78825 5.56026 6.92135 5.22751 6.95463H2.93148C2.83165 6.95463 2.09958 6.78825 2.06631 6.02291C2.06631 5.92308 2.06631 5.55705 2.06631 5.22429C2.06631 4.95809 2.06631 4.82498 2.06631 4.72516C1.99976 4.05964 2.23269 3.52723 2.59872 3.12792Z" fill="#3056D3"/>
</svg>
