<?xml version="1.0" standalone="no"?>
<!DOCTYPE svg PUBLIC "-//W3C//DTD SVG 1.1//EN" "http://www.w3.org/Graphics/SVG/1.1/DTD/svg11.dtd" >
<svg>
<metadata>
Created by FontForge 20090914 at Wed Feb  1 15:13:47 2023
 By www-data
URW Software, Copyright 1995 by URW
</metadata>
<defs>
<font id="P052L-Ital" horiz-adv-x="1024" >
  <font-face 
    font-family="P052L"
    font-weight="400"
    font-style="italic"
    font-stretch="normal"
    units-per-em="2048"
    panose-1="1 1 1 2 1 1 1 1 1 1"
    ascent="1468"
    descent="-580"
    x-height="987.999"
    cap-height="1417"
    bbox="-348 -565.002 2069 1920"
    underline-thickness="102"
    underline-position="-154"
    slope="95"
    unicode-range="U+0020-U+F002"
  />
<missing-glyph horiz-adv-x="512" 
d="M51 0v1417h410v-1417h-410zM410 51v1315h-308v-1315h308z" />
    <glyph glyph-name=".notdef" horiz-adv-x="512" 
d="M51 0v1417h410v-1417h-410zM410 51v1315h-308v-1315h308z" />
    <glyph glyph-name="space" unicode=" " horiz-adv-x="512" 
 />
    <glyph glyph-name="exclam" unicode="!" horiz-adv-x="682" 
d="M280 223c24.667 0 45.666 -8.66699 62.999 -26c18.667 -18.667 28 -42.667 28 -72c0 -42 -14.667 -78 -44 -108c-21.333 -22 -48 -33 -80 -33c-27.333 0 -49.333 8 -66 24c-16.667 16.667 -25 40.667 -25 72c0 44 14.667 80.333 44 109
c22.667 22.667 49.334 34 80.001 34zM401.999 1448l174.001 52.999l22 -18c-72 -279.333 -156 -631.666 -252 -1057l-61 -35l-12 6l43 316c25.333 183.333 48.666 380 69.999 590z" />
    <glyph glyph-name="quotedbl" unicode="&#x22;" 
d="M348 1040l-60.999 -0.000976562l127 383c17.333 52 47.666 78 90.999 78c25.333 0 46.333 -8 63 -24c14.667 -15.333 22 -34.333 22 -57c0 -27.333 -6 -49.666 -18 -66.999zM690.001 1040l-60.999 -0.000976562l127 383c17.333 52 47.666 78 90.999 78
c25.333 0 46.333 -8 63 -24c14.667 -15.333 22 -34.333 22 -57c0 -27.333 -6 -49.666 -18 -66.999z" />
    <glyph glyph-name="numbersign" unicode="#" 
d="M962 580v-115h-223l-64 -465h-118l63 465h-274l-68 -465h-119l68 465h-219v115h237l43 286h-225v115h242l63 436h119l-64 -436h273l61 436h119l-61 -436h199v-115h-216l-41 -286h205zM679 866h-272l-43 -286h274z" />
    <glyph glyph-name="dollar" unicode="$" 
d="M592 1501l76.001 0.00292969l-20 -123c111.333 -0.666992 202.666 -23.667 273.999 -69l4 -21c-21.333 -76.667 -38.333 -155 -51 -235h-49v147c-44 49.333 -109 78 -195 86l-84 -526c77.333 -12.667 133.666 -26.334 168.999 -41.001
c115.333 -48.667 173 -135.334 173 -260.001c0 -88 -27 -170.333 -81 -247c-63.333 -90.667 -146.666 -157.334 -249.999 -200.001c-34 -14 -80 -25.333 -138 -34l-29 -209h-84l41 207c-110.667 12 -190 26.333 -238 43c-30 10.667 -56.333 24.667 -79 42
c16.667 72 31.667 171 45 297h53v-184c45.333 -53.333 124 -89.333 236 -108l90 559c-68.667 14.667 -118.667 29.334 -150 44.001c-105.333 50 -158 133.333 -158 250c0 134.667 55.667 246.667 167 336c42 33.333 85 58.666 129 75.999c34 14 77.667 28.333 131 43z
M523.001 616.003l-88.999 -550c65.333 3.33301 121 22 167 56c42 30 75 68.667 99 116c24.667 49.333 37 101.666 37 156.999c0 72.667 -22.667 126.667 -68 162c-28.667 22.667 -77.334 42.334 -146.001 59.001zM480.002 772.003l82.002 514
c-60.667 -2 -111.334 -17.333 -152.001 -46c-36.667 -26 -66 -60.333 -88 -103c-25.333 -48.667 -38 -99.667 -38 -153c0 -66 23 -117.667 69 -155c27.333 -22 69.666 -41 126.999 -57z" />
    <glyph glyph-name="percent" unicode="%" horiz-adv-x="1821" 
d="M520 1431c75.333 0 140.333 -26.667 195 -80c50.667 -49.333 76 -116.333 76 -201c0 -110 -36.667 -201.667 -110 -275c-66 -66 -146 -99 -240 -99c-82 0 -150 26.667 -204 80c-56.667 56.667 -85 127.667 -85 213c0 74 23 142 69 204c49.333 67.333 113 114 191 140
c36.667 12 72.667 18 108 18zM518 1384c-66 0 -120 -36.666 -162 -109.999c-40.667 -70.667 -61 -155.334 -61 -254.001c0 -72 17.333 -125.333 52 -160c24 -24.667 54.667 -37 92 -37c60 0 110 35 150 105c44.667 77.333 67 170.333 67 279c0 118 -46 177 -138 177z
M1386 655.001c75.333 0 140.333 -26.667 195 -80c50.667 -49.333 76 -116.333 76 -201c0 -110 -36.667 -201.667 -110 -275c-66 -66 -146 -99 -240 -99c-82 0 -150 26.667 -204 80c-56.667 56.667 -85 127.667 -85 213c0 74 23 142 69 204
c49.333 67.333 113.333 114 192 140c36 12 71.667 18 107 18zM1384 608.001c-66 0 -120 -36.666 -162 -109.999c-40.667 -70.667 -61 -155.334 -61 -254.001c0 -72 17.333 -125.333 52 -160c24 -24.667 54.667 -37 92 -37c60 0 110.333 35 151 105
c44 76.667 66 169.667 66 279c0 118 -46 177 -138 177zM506 -13.998h-84l869 1468h90z" />
    <glyph glyph-name="ampersand" unicode="&#x26;" horiz-adv-x="1593" 
d="M999 1122l-47.001 0.00292969v127c-66 44 -127.667 66 -185 66c-75.333 0 -138.666 -25.667 -189.999 -77c-45.333 -46 -68 -102.333 -68 -169c0 -80.667 35.667 -140 107 -178c42 -22 92 -33 150 -33h30c-4 -10.667 -9.66699 -23 -17 -37
c-14.667 -28 -22.667 -48.333 -24 -61v-4h-73c-135.333 0 -242.333 -39.667 -321 -119c-63.333 -63.333 -95 -143 -95 -239c0 -90.667 28.667 -164 86 -220c82 -79.333 191.667 -119 329 -119c154.667 0 282.667 49.667 384 149c60 59.333 90 125.666 90 198.999
c0 54 -17 98 -51 132s-78.667 51 -134 51c-52.667 0 -90 -14.667 -112 -44c-16.667 -22.667 -31.667 -64.667 -45 -126l-47 4l16 203c25.333 24 49.333 42.333 72 55c32 17.333 93.333 33.666 184 48.999l227 37c154 25.333 231 80.333 231 165c0 30 -7.33301 53 -22 69
c-10 11.333 -28.333 24 -55 38l43 33c27.333 -12.667 47.333 -25.334 60 -38.001c30.667 -30.667 46 -73 46 -127c0 -59.333 -17.667 -109.666 -53 -150.999c-46.667 -53.333 -115 -86.333 -205 -99l-173 -25l34 -4c16.667 -2 35.667 -11 57 -27
c46.667 -36.667 70 -84.667 70 -144c0 -106 -58.667 -207 -176 -303c-157.333 -128 -335.666 -192 -534.999 -192c-80.667 0 -155.5 12 -224.5 36s-125.167 57.333 -168.5 100c-65.333 64.667 -98 150 -98 256c0 120 41.333 215.667 124 287
c51.333 45.333 109.333 81.333 174 108c37.333 15.333 80.666 31.666 129.999 48.999c-48.667 22 -84 44.667 -106 68c-37.333 38 -56 83.667 -56 137c0 106 63 206 189 300c100.667 75.333 201 113 301 113c72 0 138.667 -17 200 -51z" />
    <glyph glyph-name="quotesingle" unicode="'" horiz-adv-x="682" 
d="M348 1040l-60.999 -0.000976562l127 383c17.333 52 47.666 78 90.999 78c25.333 0 46.333 -8 63 -24c14.667 -15.333 22 -34.333 22 -57c0 -27.333 -6 -49.666 -18 -66.999z" />
    <glyph glyph-name="parenleft" unicode="(" horiz-adv-x="682" 
d="M631 1501l46.999 -42.999c-112 -128 -190.333 -230.333 -235 -307c-122.667 -208.667 -184 -449.334 -184 -722.001c0 -199.333 32.667 -368.333 98 -507l53 -112l-45 -27c-63.333 102 -109.666 183 -138.999 243s-53 122.333 -71 187
c-29.333 101.333 -44 205.666 -44 312.999c0 204.667 58.333 397.334 175 578.001c50.667 79.333 111 157 181 233c35.333 38 90 92.667 164 164z" />
    <glyph glyph-name="parenright" unicode=")" horiz-adv-x="682" 
d="M51 -217l-46.998 43.002c112 128 190.667 230.333 236 307c122.667 209.333 184 449.666 184 720.999c0 199.333 -33 368.666 -99 507.999l-53 113l45 26c63.333 -102 109.666 -183 138.999 -243s53 -122.333 71 -187c29.333 -102 44 -206.333 44 -313
c0 -204 -58.333 -396.667 -175 -578c-50.667 -78.667 -111 -156 -181 -232c-34.667 -38 -89.334 -93 -164.001 -165z" />
    <glyph glyph-name="asterisk" unicode="*" horiz-adv-x="797" 
d="M156 1245l68 116h20l213 -214l45 288l21 11l128 -37v-16l-145 -269l287 52l15 -11l12 -118l-12 -13l-297 39l133 -246l-8 -16l-119 -57l-15 8l-45 291l-219 -200h-24l-54 118l9 14l260 115l-262 127z" />
    <glyph glyph-name="plus" unicode="+" horiz-adv-x="1241" 
d="M563 573v459h115v-459h458v-115h-458v-458h-115v458h-459v115h459z" />
    <glyph glyph-name="comma" unicode="," horiz-adv-x="512" 
d="M16 -272c77.333 96.667 136.667 229.668 178 399.001l17 66l186 59l18 -27c-66 -152.667 -170.333 -316.334 -313 -491.001l-72 -27z" />
    <glyph glyph-name="hyphen" unicode="-" horiz-adv-x="682" 
d="M39 456l39 119h545l-37 -119h-547z" />
    <glyph glyph-name="period" unicode="." horiz-adv-x="512" 
d="M233 229c24.667 0 45.666 -8.66699 62.999 -26c18.667 -18.667 28 -42.667 28 -72c0 -42 -14.667 -78 -44 -108c-21.333 -22 -48 -33 -80 -33c-27.333 0 -49.333 8 -66 24c-16.667 16.667 -25 40.667 -25 72c0 44 14.667 80.333 44 109
c22.667 22.667 49.334 34 80.001 34z" />
    <glyph glyph-name="slash" unicode="/" horiz-adv-x="606" 
d="M803 1501l-762 -1745h-123l762 1745h123z" />
    <glyph glyph-name="zero" unicode="0" 
d="M631 1431c91.333 0 166.666 -30 225.999 -90c40.667 -40.667 71.834 -94 93.501 -160s32.5 -140.333 32.5 -223c0 -190 -30.333 -371.667 -91 -545c-102 -290.667 -257.333 -436 -466 -436c-124.667 0 -217 51 -277 153c-50 84 -75 197.667 -75 341
c0 197.333 33.333 383 100 557c102.667 268.667 255 403 457 403zM615 1372c-79.333 0 -147.001 -45.334 -203.001 -136.001c-53.333 -85.333 -99 -230.666 -137 -435.999c-30 -162.667 -45 -308 -45 -436c0 -218.667 69.333 -328 208 -328
c116.667 0 210.334 104.333 281.001 313c44.667 131.333 77 293.333 97 486c7.33301 70 11 134.667 11 194c0 123.333 -19 212 -57 266c-35.333 51.333 -87 77 -155 77z" />
    <glyph glyph-name="one" unicode="1" 
d="M766 1409l-49.002 -236l-151 -894c-11.333 -66 -17 -107.333 -17 -124c0 -32.667 6.33301 -55.334 19 -68.001c15.333 -16.667 49.333 -26.667 102 -30l146 -8l-11 -55c-115.333 4 -230.666 6 -345.999 6c-116 0 -232 -2 -348 -6l10 55l174 21c32.667 4 55.667 16 69 36
c10.667 14.667 20.667 49 30 103l176 1079c-104.667 -41.333 -175 -70 -211 -86l-172 -84l-15 10l23 121l49 12c124.667 30.667 220.334 59.334 287.001 86.001l205 84z" />
    <glyph glyph-name="two" unicode="2" 
d="M206 129h430.999c70 0 148.667 7.66699 236 23l12 -17l-35 -141c-138 4 -275 6 -411 6c-138 0 -276 -2 -414 -6v37l100 107c166.667 178.667 296.334 328 389.001 448c138 178 207 340 207 486c0 67.333 -20.667 122 -62 164c-41.333 41.333 -96.333 62 -165 62
c-64 0 -120.333 -21 -169 -63c-38 -32.667 -79.333 -85.334 -124 -158.001l-45 19l123 245c83.333 60 173.333 90 270 90c109.333 0 195 -31.333 257 -94c59.333 -59.333 89 -137.666 89 -234.999c0 -150 -60.667 -290.667 -182 -422z" />
    <glyph glyph-name="three" unicode="3" 
d="M45 68l56.999 297l49 -11c-5.33301 -36.667 -8 -65.667 -8 -87c0 -64 18.333 -114 55 -150c47.333 -46.667 112.666 -70 195.999 -70c85.333 0 157 29.333 215 88c86.667 89.333 130 200 130 332c0 87.333 -23.667 154.333 -71 201c-49.333 48.667 -118 73 -206 73
c-42.667 0 -95.667 -10.667 -159 -32l-12 24l37 88h18c1.33301 0 10 -0.666992 26 -2c10 -1.33301 25 -2 45 -2c94 0 171.667 31 233 93c58 58 87 126.667 87 206c0 54 -17.333 98.333 -52 133c-37.333 38 -88.666 57 -153.999 57c-50.667 0 -93.667 -11 -129 -33
c-24 -14.667 -54.333 -43 -91 -85l-43 -49l-39 26l119 203c92 42 171.333 63 238 63c102 0 183.333 -29.667 244 -89c46 -45.333 69 -104 69 -176c0 -82 -29 -153.667 -87 -215c-44 -47.333 -114.333 -96.333 -211 -147c95.333 -22 164.333 -49.333 207 -82
c71.333 -54.667 107 -134.667 107 -240c0 -126.667 -47 -237.667 -141 -333c-54.667 -54.667 -119 -97 -193 -127s-152 -45 -234 -45c-63.333 0 -122.666 9 -177.999 27c-36.667 12 -78 33.333 -124 64z" />
    <glyph glyph-name="four" unicode="4" 
d="M31 457l689.999 944l141 30l17 -10l-170 -913h262l8 -10l-33 -113c-52 3.33301 -88 5.33301 -108 6h-150l-18 -109c-12.667 -74 -19 -131 -19 -171c0 -22 24.667 -35.667 74 -41l178 -21l-10 -55c-113.333 4 -226 6 -338 6c-113.333 0 -226.666 -2 -339.999 -6l11 55
l176 21c38 4.66699 63.667 16.334 77 35.001c12 15.333 21.667 41.666 29 78.999l41 209h-518v64zM705.999 1272l-551 -764h415z" />
    <glyph glyph-name="five" unicode="5" 
d="M236 674l-43.0029 17.998l131 717l16 10l43 -3c126.667 -8 226.667 -12 300 -12c47.333 0 129 2 245 6l66 3l12 -19l-72 -118c-108.667 -7.33301 -209 -11 -301 -11c-80 0 -162.667 3.66699 -248 11l-104 -495c36 33.333 70.667 57 104 71
c57.333 24.667 117.666 37 180.999 37c105.333 0 189.666 -31.333 252.999 -94c62 -61.333 93 -144.666 93 -249.999c0 -93.333 -26 -187.666 -78 -282.999c-50.667 -92.667 -121 -164 -211 -214c-84.667 -47.333 -176.667 -71 -276 -71c-70 0 -134.667 11 -194 33
c-37.333 14 -78.666 38.667 -123.999 74c18.667 62 38.334 157 59.001 285l47 -11c-3.33301 -31.333 -5 -58 -5 -80c0 -58 17.333 -107.333 52 -148c45.333 -52.667 112.333 -79 201 -79s161.334 29.333 218.001 88c42.667 44.667 75.834 99 99.501 163
s35.5 131.667 35.5 203c0 100.667 -24.667 175.667 -74 225c-45.333 44.667 -105 67 -179 67c-58 0 -111 -15.667 -159 -47c-25.333 -16.667 -54.666 -42 -87.999 -76z" />
    <glyph glyph-name="six" unicode="6" 
d="M960 1421l-32.998 -120.999h-16c-50.667 24.667 -95 37 -133 37c-138.667 0 -255.334 -83.333 -350.001 -250c-62 -108 -114.333 -258 -157 -450c51.333 62.667 97.333 109 138 139c72 52 148.667 78 230 78s146.666 -24.667 195.999 -74
c54.667 -54.667 82 -135.334 82 -242.001c0 -101.333 -24 -195.333 -72 -282c-50 -91.333 -122 -164 -216 -218c-71.333 -40.667 -143.333 -61 -216 -61c-82 0 -149.333 27 -202 81c-74 75.333 -111 192 -111 350c0 208 52.333 404 157 588
c104.667 183.333 229.667 312 375 386c63.333 32.667 140 49 230 49c38 0 70.667 -3.33301 98 -10zM539.002 741.001c-67.333 0 -123.669 -23.3311 -169.002 -69.998c-35.333 -36.667 -63.166 -82.834 -83.499 -138.501s-30.5 -114.167 -30.5 -175.5
c0 -98.667 26 -174.667 78 -228c38 -38.667 86.333 -58 145 -58c90 0 161.333 45.333 214 136c45.333 77.333 68 169 68 275c0 111.333 -33.667 187.666 -101 228.999c-33.333 20 -73.666 30 -120.999 30z" />
    <glyph glyph-name="seven" unicode="7" 
d="M109 10l43 65.999l164 260l570 920h-496c-33.333 0 -87.333 -2.66699 -162 -8l-41 -2l-12 8l33 163c148 -4.66699 301.333 -8 460 -10l142 -2c60 0 118.333 1 175 3h44v-70l-258 -416c-167.333 -269.333 -328.333 -578.666 -483 -927.999l-16 1
c-31.333 3.33301 -51.333 5 -60 5c-9.33301 0 -40 -2 -92 -6z" />
    <glyph glyph-name="eight" unicode="8" 
d="M445 721c-58.667 32.667 -102.333 65.332 -131 97.999c-49.333 56 -74 117.667 -74 185c0 76.667 27.667 152.334 83 227.001c64.667 86.667 146.334 146.667 245.001 180c39.333 13.333 79.333 20 120 20c87.333 0 156.666 -25 207.999 -75
c43.333 -43.333 65 -102 65 -176c0 -83.333 -25 -155.333 -75 -216c-44.667 -54 -121.334 -117.333 -230.001 -190c78 -42.667 132.333 -81 163 -115c42.667 -48 64 -112 64 -192c0 -127.333 -49.333 -240.333 -148 -339c-101.333 -100.667 -217.666 -151 -348.999 -151
c-99.333 0 -177.666 28.667 -234.999 86c-51.333 51.333 -77 119 -77 203c0 105.333 42.333 202 127 290c42 44 87 80 135 108c29.333 16.667 65.666 35.667 108.999 57zM500.001 691.998c-180 -93.333 -270.001 -222.999 -270.001 -388.999
c0 -78.667 21.333 -139.667 64 -183c38 -38 90.667 -57 158 -57c70.667 0 129.334 23.667 176.001 71c66 67.333 99 155.666 99 264.999c0 72 -17 128.333 -51 169c-23.333 27.333 -62.333 57 -117 89zM596 806.999c150.667 96 226.001 206.333 226.001 331
c0 64 -19.333 115.333 -58 154c-34.667 35.333 -81.334 53 -140.001 53c-64.667 0 -119 -21.667 -163 -65c-54.667 -55.333 -82 -126 -82 -212c0 -54 14.667 -98.667 44 -134c32 -38 66.667 -67.333 104 -88z" />
    <glyph glyph-name="nine" unicode="9" 
d="M66 227l43.001 17c25.333 -48.667 50.333 -84.334 75 -107.001c44.667 -41.333 98 -62 160 -62c132.667 0 239.334 85.333 320.001 256c45.333 96 87.666 243 126.999 441c-48 -60.667 -91 -105.334 -129 -134.001c-65.333 -48.667 -136.333 -73 -213 -73
c-86.667 0 -157.334 27.333 -212.001 82c-60.667 61.333 -91 146 -91 254c0 148.667 53.667 276.667 161 384c96 97.333 206.667 146 332 146c114.667 0 199.667 -46.333 255 -139c43.333 -73.333 65 -175.666 65 -306.999c0 -222 -47.667 -423.333 -143 -604
c-58.667 -112 -131.667 -204.667 -219 -278c-100.667 -84 -202.334 -126 -305.001 -126c-54.667 0 -109 13 -163 39l-14 53c-17.333 68.667 -33.666 121.334 -48.999 158.001zM575.001 1339c-64 0 -118.333 -23.001 -163 -69.001c-73.333 -74.667 -110 -178 -110 -310
c0 -100.667 24.333 -175.667 73 -225c40 -39.333 91.667 -59 155 -59c66 0 121.333 23 166 69c71.333 72.667 107 170.334 107 293.001c0 108 -27 189.333 -81 244c-37.333 38 -86.333 57 -147 57z" />
    <glyph glyph-name="colon" unicode=":" horiz-adv-x="512" 
d="M214 229c24.667 0 45.666 -8.66699 62.999 -26c18.667 -18.667 28 -42.667 28 -72c0 -42 -14.667 -78 -44 -108c-21.333 -22 -48 -33 -80 -33c-27.333 0 -49.333 8 -66 24c-16.667 16.667 -25 40.667 -25 72c0 44 14.667 80.333 44 109
c22.667 22.667 49.334 34 80.001 34zM332.999 938c24.667 0 45.332 -8.66699 61.999 -26c19.333 -18.667 29 -42.667 29 -72c0 -41.333 -14.667 -77.333 -44 -108c-21.333 -22 -48 -33 -80 -33c-28 0 -50 8 -66 24c-16.667 17.333 -25 41.333 -25 72
c0 44 14.667 80.333 44 109c22.667 22.667 49.334 34 80.001 34z" />
    <glyph glyph-name="semicolon" unicode=";" horiz-adv-x="512" 
d="M-18 -279c77.333 97.333 136.667 230.667 178 400l17 65l186 60l18 -27c-66 -153.333 -170.333 -317 -313 -491l-72 -27zM358.001 934.001c24 0 44.667 -8.66699 62 -26c19.333 -18.667 29 -42.667 29 -72c0 -41.333 -14.667 -77.333 -44 -108
c-22 -22 -48.667 -33 -80 -33c-27.333 0 -49.333 8 -66 24c-16.667 17.333 -25 41.333 -25 72c0 44 14.667 80.333 44 109c23.333 22.667 50 34 80 34z" />
    <glyph glyph-name="less" unicode="&#x3c;" horiz-adv-x="1241" 
d="M1135 -3l-1026 479v117l1026 479v-129l-878 -413l878 -404v-129z" />
    <glyph glyph-name="equal" unicode="=" horiz-adv-x="1241" 
d="M1136 774v-115h-1032v115h1032zM1136 373v-115h-1032v115h1032z" />
    <glyph glyph-name="greater" unicode="&#x3e;" horiz-adv-x="1241" 
d="M109 -3v129l878 404l-878 413v129l1026 -479v-117z" />
    <glyph glyph-name="question" unicode="?" 
d="M280 1157l-45 12c3.33301 11.333 10.333 29.333 21 54c5.33301 12 8.66602 19.333 9.99902 22l51 125c82 50.667 160 76 234 76c107.333 0 191.333 -30.333 252 -91c47.333 -47.333 71 -108.333 71 -183c0 -60.667 -15.667 -118 -47 -172c-22 -38 -57 -80 -105 -126
l-213 -205c-45.333 -43.333 -73.666 -76 -84.999 -98c-11.333 -20.667 -17 -40.334 -17 -59.001c0 -32 18.333 -67 55 -105l-51 -12c-52 32.667 -78 75.334 -78 128.001c0 67.333 37.667 143.333 113 228l143 162c78 88 117 167.667 117 239c0 44.667 -16.667 84 -50 118
c-37.333 37.333 -88.333 56 -153 56c-42 0 -77 -8.33301 -105 -25c-23.333 -13.333 -49 -41 -77 -83zM357 223c24.667 0 45.666 -8.66699 62.999 -26c18.667 -18.667 28 -42.667 28 -72c0 -42 -14.667 -78 -44 -108c-21.333 -22 -48 -33 -80 -33c-27.333 0 -49.333 8 -66 24
c-16.667 16.667 -25 40.667 -25 72c0 44 14.667 80.333 44 109c22.667 22.667 49.334 34 80.001 34z" />
    <glyph glyph-name="at" unicode="@" horiz-adv-x="1530" 
d="M1364 360l96.0059 0.000976562c-51.333 -89.333 -104 -158.333 -158 -207c-142 -126.667 -307.333 -190 -496 -190c-146 0 -281.333 37.667 -406 113c-118.667 71.333 -208.334 166.666 -269.001 285.999c-50.667 100.667 -76 210.667 -76 330
c0 102.667 18.833 200.834 56.5 294.501s91.5 175.5 161.5 245.5c69.333 68.667 149.166 121.5 239.499 158.5s185.166 55.5 284.499 55.5c139.333 0 267 -34.667 383 -104c103.333 -62 180 -141.667 230 -239c40 -77.333 60 -163.333 60 -258
c0 -157.333 -49.667 -288.333 -149 -393c-46.667 -49.333 -102.334 -90.666 -167.001 -123.999c-58 -30.667 -111 -46 -159 -46c-50 0 -89.333 23 -118 69c-16.667 27.333 -26.667 64.666 -30 111.999c-42 -56 -77 -95.667 -105 -119c-40 -32.667 -88 -49 -144 -49
c-70 0 -130.333 24.667 -181 74c-60 59.333 -90 135.666 -90 228.999c0 110 40.333 210.667 121 302c60.667 69.333 131.667 117 213 143c36 11.333 70.667 17 104 17c61.333 0 108 -21.333 140 -64c18.667 -24.667 33 -61 43 -109l41 155h153l-162 -596
c-2 -8.66699 -3 -20 -3 -34c0 -18.667 4.66699 -34.667 14 -48c12.667 -18 29.334 -27 50.001 -27c22 0 50.333 10.167 85 30.5s67 45.833 97 76.5c108.667 112 163 243.667 163 395c0 130.667 -46.333 242.667 -139 336c-56.667 56.667 -123.834 100.667 -201.501 132
s-159.167 47 -244.5 47c-128 0 -246.333 -33.333 -355 -100c-100 -61.333 -176.333 -144 -229 -248c-46.667 -91.333 -70 -192 -70 -302c0 -182 60.333 -333.333 181 -454c61.333 -62 134.666 -110 219.999 -144s174.666 -51 267.999 -51c146.667 0 277 44.333 391 133
c50 38.667 102.333 96 157 172zM791.006 1011c-52 0 -100.671 -24 -146.004 -72c-47.333 -50 -84.666 -109.667 -111.999 -179c-33.333 -81.333 -50 -157.333 -50 -228c0 -52 12.667 -96.667 38 -134c24.667 -36 58.334 -54 101.001 -54c72.667 0 137.334 50 194.001 150
c29.333 52.667 54.333 119.334 75 200.001c14.667 59.333 22 112 22 158c0 55.333 -15.333 98.666 -46 129.999c-19.333 19.333 -44.666 29 -75.999 29z" />
    <glyph glyph-name="A" unicode="A" horiz-adv-x="1479" 
d="M946 1444l93.998 -0.000976562l178 -1280c4.66699 -35.333 12.334 -61.333 23.001 -78c6.66699 -12 37.334 -21.667 92.001 -29l53 -6v-57c-126 4 -209 6 -249 6s-123.333 -2 -250 -6v57l90 6c58.667 4 88 22.667 88 56c0 11.333 -1.66699 26.333 -5 45
c-1.33301 10 -2.33301 18 -3 24l-51 385h-504l-209 -358c-35.333 -61.333 -53 -99 -53 -113c0 -8.66699 6 -17 18 -25c12.667 -8 27.667 -12.667 45 -14l107 -6v-57c-111.333 4 -184.333 6 -219 6c-37.333 0 -114 -2 -230 -6v61l41 11c36.667 9.33301 66.667 25 90 47
c28.667 26.667 58.667 65.334 90 116.001zM918.998 1230l-366 -589h442z" />
    <glyph glyph-name="B" unicode="B" horiz-adv-x="1251" 
d="M198 1360l7.00391 57l106 -3c92.667 -2 160.334 -3 203.001 -3c43.333 0 84.333 0.333008 123 1l129 4c32 0.666992 50.667 1 56 1c91.333 0 164.666 -19 219.999 -57c68.667 -46.667 103 -116.334 103 -209.001c0 -106 -47.333 -200 -142 -282
c-38.667 -33.333 -78.334 -59.666 -119.001 -78.999c-28 -12.667 -65 -27 -111 -43c79.333 -10.667 136.666 -22.667 171.999 -36c111.333 -42 167 -124 167 -246c0 -99.333 -33.333 -187.666 -100 -264.999c-46 -53.333 -101.5 -98.333 -166.5 -135
s-131.167 -60.334 -198.5 -71.001c-24.667 -4 -50.667 -6 -78 -6c-19.333 0 -47 1 -83 3c-18.667 1.33301 -32.334 2 -41.001 2l-76 3c-60 2.66699 -102.333 4 -127 4c-23.333 0 -61.333 -1 -114 -3l-75 -3l10 53c44 8 73.333 16 88 24
c17.333 9.33301 27.666 23.333 30.999 42l178 1032c12.667 72.667 19 125 19 157c0 34 -24 52 -72 54zM444.004 696l-104 -611.999c33.333 -2.66699 56 -4.33398 68 -5.00098c70 -6 127 -9 171 -9c80 0 150.667 22 212 66c94 68 141 166.667 141 296
c0 176 -104.667 264 -314 264h-174zM557.004 1331l-100.998 -561h107c137.333 0 242.666 35.667 315.999 107c60 58.667 90 137.667 90 237c0 152 -82.667 228 -248 228c-22.667 0 -54.334 -2 -95.001 -6z" />
    <glyph glyph-name="C" unicode="C" horiz-adv-x="1366" 
d="M1222 1063l0.00195312 172.002c-50 32.667 -96 55.667 -138 69c-71.333 22.667 -147.333 34 -228 34c-163.333 0 -293 -49 -389 -147c-62.667 -64 -110.834 -144.333 -144.501 -241s-50.5 -202.334 -50.5 -317.001c0 -191.333 48 -336 144 -434
c83.333 -84.667 201.333 -127 354 -127c68.667 0 134 8.66699 196 26c68.667 20 156 62.333 262 127l21 -14l-21 -74c-92 -62.667 -175.333 -106.334 -250 -131.001c-87.333 -28.667 -179.333 -43 -276 -43c-194 0 -344.667 53 -452 159
c-105.333 105.333 -158 258.333 -158 459c0 316.667 120.667 556 362 718c147.333 98 307 147 479 147c119.333 0 252.666 -28 399.999 -84c-28 -89.333 -46.667 -189 -56 -299h-55z" />
    <glyph glyph-name="D" unicode="D" horiz-adv-x="1593" 
d="M67 48c5.33301 0.666992 10.6689 1.66699 16.002 3c34 7.33301 56.667 15.333 68 24c14 9.33301 22.333 22 25 38l178 1032c12 69.333 18 121.666 18 156.999c0 34 -23.667 52 -71 54l-109 4l6 57c146 -4 230 -6 252 -6l418 6c96 1.33301 185.667 -7.16699 269 -25.5
s147.666 -43.833 192.999 -76.5c124.667 -88.667 187 -232.667 187 -432c0 -259.333 -98 -478.666 -294 -657.999c-107.333 -98.667 -218 -165.667 -332 -201c-66.667 -20 -148.334 -30 -245.001 -30l-287 6h-64l-35 1h-13l-190 -7zM549.003 1331l-196.999 -1140
c-5.33301 -31.333 -8 -56.666 -8 -75.999c130.667 -20.667 240.667 -31 330 -31c180.667 0 326.667 56.667 438 170c62.667 64 111 138 145 222c48 118.667 72 243.334 72 374.001c0 161.333 -39.333 281.333 -118 360c-88.667 87.333 -230.334 131 -425.001 131
c-34.667 0 -81.667 -1.66699 -141 -5c-39.333 -2.66699 -71.333 -4.33398 -96 -5.00098z" />
    <glyph glyph-name="E" unicode="E" horiz-adv-x="1251" 
d="M452 684l-87.999 -518.003c-2.66699 -16.667 -4 -37.667 -4 -63v-9c108 -9.33301 197.667 -14 269 -14c148 0 249 6.33301 303 19c24 5.33301 42.333 17.333 55 36c10 14 19.333 38 28 72l33 123h55l-10 -54c-18 -95.333 -29 -162.666 -33 -201.999l-8 -74l-68 -2
c-76 -3.33301 -132 -4.66602 -168 -3.99902l-440 6c-61.333 0.666992 -138.333 -0.666016 -231 -3.99902l-84 -2l10 53c46 8 76.667 16 92 24c17.333 10 27.666 24 30.999 42l178 1032c12.667 72 19 124.333 19 157c0 34 -24 52 -72 54l-111 4l7 57l91 -3
c88 -2 167 -3 237 -3c60 0 113.333 0.333008 160 1l244 4c46.667 0.666992 73 1 79 1c47.333 0 94.333 -2 141 -6c-22 -77.333 -36.333 -181 -43 -311h-49l-17 182c-2.66699 32.667 -76 49 -220 49c-43.333 0 -99.333 -1.33301 -168 -4l-97 -4
c-7.33301 -14.667 -13.333 -36.667 -18 -66l-86 -487h75c153.333 0 303 4 449 12l8 -14l-39 -92l-54 2c-84 4 -156 6 -216 6h-240z" />
    <glyph glyph-name="F" unicode="F" horiz-adv-x="1139" 
d="M551 1324c-7.33301 -17.333 -13.666 -39.333 -18.999 -66l-94 -556h76c153.333 0 303 4 449 12l8 -14l-39 -92l-54 2c-84 4 -156 6 -216 6h-240l-75 -456c-2 -12.667 -3 -27 -3 -43c0 -18.667 4.33301 -32.334 13 -41.001c10.667 -11.333 31 -17.666 61 -18.999l131 -6
l-6 -57l-106 3c-80.667 2 -139.667 3 -177 3c-44 0 -107.667 -1.33301 -191 -4l-69 -2l8 57l74 6c43.333 4.66699 68.666 15 75.999 31c11.333 16.667 25.666 72.667 42.999 168l153 889c12.667 72 19 124.333 19 157c0 34 -24 52 -72 54l-115 4l7 57l100 -3
c80.667 -2 159 -3 235 -3h35l337 5h26c8 0 19 0.333008 33 1h24c42 0 88.333 -2 139 -6c-21.333 -77.333 -35.666 -181 -42.999 -311h-49l-16 182c-1.33301 14.667 -20.333 26.667 -57 36s-83.667 14 -141 14l-231 -8h-34z" />
    <glyph glyph-name="G" unicode="G" horiz-adv-x="1479" 
d="M1081 123l36.002 190.001c10 50.667 15 91.334 15 122.001c0 24 -7.66699 39.333 -23 46c-17.333 7.33301 -67 13.666 -149 18.999l-70 4l10 57c78.667 -6.66699 167 -10 265 -10c96.667 0 182 3.33301 256 10l-5 -57l-65 -12c-11.333 -2.66699 -22 -7.33398 -32 -14.001
c-14 -9.33301 -21.667 -19 -23 -29l-48 -277c-0.666992 -6 -1 -13.333 -1 -22c0 -14.667 2 -34.667 6 -60l-9 -14c-25.333 -3.33301 -63.333 -13.666 -114 -30.999l-61 -20c-122 -41.333 -236 -62 -342 -62c-204.667 0 -362.334 54.667 -473.001 164
c-101.333 100 -152 244.667 -152 434c0 314 122 558.333 366 733c141.333 101.333 303.666 152 486.999 152c128 0 270.333 -28 427 -84c-28 -89.333 -46.667 -189 -56 -299h-55v172c-49.333 31.333 -94 53.666 -134 66.999c-75.333 24 -158.666 36 -249.999 36
c-168.667 0 -302.667 -50.333 -402 -151c-65.333 -66 -115.5 -148.833 -150.5 -248.5s-52.5 -209.5 -52.5 -329.5c0 -187.333 45.667 -327.333 137 -420c88 -89.333 214.333 -134 379 -134c103.333 0 197.666 22.667 282.999 68z" />
    <glyph glyph-name="H" unicode="H" horiz-adv-x="1593" 
d="M453 788l758 0.00292969l61 357c12 69.333 18 121.666 18 156.999c0 34 -23.667 52 -71 54l-99 4l7 57l128 -3c78.667 -2 128.667 -3 150 -3l201 6h33l-7 -57l-73 -7c-44.667 -4 -72.334 -14 -83.001 -30c-8 -10 -15.333 -32.667 -22 -68l-188 -1065
c-5.33301 -29.333 -8 -53.333 -8 -72s4 -32.334 12 -41.001c11.333 -11.333 31.666 -18 60.999 -20l119 -6l-6 -57l-86 3c-80 2 -141 3 -183 3c-29.333 0 -88 -1 -176 -3l-114 -3l8 57l102 6c42.667 4 68 13.667 76 29c10 13.333 24.333 70 43 170l82 440l-124 2
c-124.667 2.66699 -209 4 -253 4c-43.333 0 -127.333 -1.33301 -252 -4l-124 -2l-87 -506c-5.33301 -32.667 -8 -56.667 -8 -72c0 -18.667 4 -32.334 12 -41.001c10.667 -11.333 31.334 -18 62.001 -20l100 -6l-6 -56h-54l-215 5c-32 0 -87.667 -1 -167 -3l-86 -3l8 57l84 6
c43.333 4.66699 69 15 77 31c11.333 16.667 25.333 72.667 42 168l151 889c12.667 72 19 124.333 19 157c0 33.333 -24 51.333 -72 54l-96 4l6 57l132 -3c72.667 -2 120.334 -3 143.001 -3l199 6h48l-6 -57l-86 -7c-44 -3.33301 -71.333 -13.333 -82 -30
c-8 -10 -15.333 -32.667 -22 -68z" />
    <glyph glyph-name="I" unicode="I" horiz-adv-x="682" 
d="M211 1360l5.99902 56.9971l131 -3c73.333 -2 121.333 -3 144 -3l214 6h19l-6 -57l-72 -7c-45.333 -4.66699 -73.333 -15 -84 -31c-7.33301 -10 -14.333 -32.333 -21 -67l-183 -1095c-2 -12.667 -3 -27 -3 -43c0 -18 4 -31.333 12 -40
c10.667 -11.333 31.334 -18 62.001 -20l106 -6l-6 -56h-65l-193 5l-193 -5h-65l6 56l74 6c42 4.66699 66.667 13.334 74 26.001c14 20.667 29 78.334 45 173.001l147 889c12.667 75.333 19 128 19 158c0 32.667 -24 50.334 -72 53.001z" />
    <glyph glyph-name="J" unicode="J" horiz-adv-x="682" 
d="M727 1360l-86.001 -7c-46 -4 -74 -14.333 -84 -31c-8.66699 -12.667 -15.667 -35 -21 -67l-174 -1145c-16.667 -111.333 -39.667 -201.666 -69 -270.999c-37.333 -86.667 -81.666 -152.334 -132.999 -197.001c-50 -42.667 -101.667 -64 -155 -64
c-24 0 -47.667 6.66699 -71 20l-6 54c15.333 -6 35.333 -9 60 -9c42 0 77 19.667 105 59c38 52.667 65.667 137.667 83 255l195 1317c1.33301 10.667 2 20 2 28c0 33.333 -24 51.333 -72 54l-97 4l7 57l131 -3c73.333 -2 121.333 -3 144 -3l199 6h48z" />
    <glyph glyph-name="K" unicode="K" horiz-adv-x="1366" 
d="M760 1360l-86.002 -5.99902c-44 -4 -71.333 -14.333 -82 -31c-8.66699 -12 -16 -34.667 -22 -68l-92 -532c118.667 93.333 220.334 182.666 305.001 267.999l262 266c51.333 52.667 77.333 86.334 78 101.001v59l40 -2c47.333 -2.66699 79.333 -4 96 -4
c16 0 46.667 1 92 3l48 3v-55h-43c-36 0.666992 -73 -16.333 -111 -51l-597 -560l504 -618c44 -52 87.333 -78 130 -78h41v-61c-39.333 2.66699 -85.666 4.66699 -138.999 6l-141 -6c-100.667 137.333 -167.667 226.666 -201 267.999c-54 72 -176.667 216.667 -368 434
l-89 -536c-2 -11.333 -3 -26 -3 -44s4 -31 12 -39c10.667 -11.333 31 -18 61 -20l101 -6l-6 -56h-55l-215 5c-32 0 -87.667 -1 -167 -3l-86 -3l8 57l84 6c43.333 4 69 14 77 30c12 18.667 26 75 42 169l150 889c12 72.667 18 125 18 157c0 34 -24 52 -72 54l-96 4l6 57
l132 -3c80 -2 128 -3 144 -3l198 6h49z" />
    <glyph glyph-name="L" unicode="L" horiz-adv-x="1139" 
d="M715 1360l-86 -6.00098c-44.667 -4 -72 -14.333 -82 -31c-9.33301 -12.667 -16.666 -35.334 -21.999 -68.001l-189 -1089c-2.66699 -16.667 -4 -37.667 -4 -63v-9c112 -9.33301 208.667 -14 290 -14c166.667 0 265 7 295 21c20 9.33301 38.667 46 56 110l35 127h63
c-34 -161.333 -49.667 -274 -47 -338l-68 -2c-76 -3.33301 -132 -4.66602 -168 -3.99902l-440 6c-61.333 0.666992 -138.333 -0.666016 -231 -3.99902l-84 -2l10 53c46 8 76.667 16 92 24c17.333 10 27.666 24 30.999 42l176 1032c12.667 72.667 19 125 19 157
c0 34 -24 52 -72 54l-96 4l6 57l131 -3c73.333 -2 121.333 -3 144 -3l199 6h48z" />
    <glyph glyph-name="M" unicode="M" horiz-adv-x="1933" 
d="M1919 1360l-78.0049 -4.00098c-58.667 -4 -90 -25.333 -94 -64l-84 -1087c-1.33301 -16.667 -2 -42 -2 -76c0 -42 36.667 -66 110 -72l76 -6l-6 -57l-94 2c-85.333 2.66699 -144.666 4 -177.999 4c-32 0 -91.667 -1.33301 -179 -4l-96 -2l6 57l64 6
c56 6 92.333 14.667 109 26s26 29.333 28 54l77 1065l-108 -178l-488 -848l-118 -213h-47l-305 1183l-254 -949c-9.33301 -34.667 -14 -63 -14 -85c0 -31.333 33.333 -49.666 100 -54.999l78 -6l-6 -57l-73 2c-72 2.66699 -122.667 4 -152 4c-28.667 0 -79 -1.33301 -151 -4
l-79 -2l6 53c46.667 5.33301 80 13.333 100 24c32 16.667 57.333 56.334 76 119.001l297 1043c4 13.333 6 26.666 6 39.999c0 26 -11.333 45.667 -34 59c-18 11.333 -54.333 19.333 -109 24l-53 4l6 57l121 -5c10.667 -0.666992 27.334 -1 50.001 -1
c24.667 0 62.334 1 113.001 3l58 3l307 -1184l504 865c42.667 72.667 89.667 157.667 141 255l33 64l121 -5c10.667 -0.666992 27.334 -1 50.001 -1c24.667 0 62.334 1 113.001 3l58 3z" />
    <glyph glyph-name="N" unicode="N" horiz-adv-x="1593" 
d="M485 1417l706 -1205l165 1001c6.66699 42 10 73.333 10 94c0 30.667 -24.667 47 -74 49l-96 4l10 57h40l176 -6l181 6h43l-10 -57l-76 -4c-36 -2.66699 -57.667 -10 -65 -22c-15.333 -17.333 -34.333 -92 -57 -224l-193 -1133h-102l-692 1184l-164 -952
c-4 -21.333 -6 -41.666 -6 -60.999c0 -32.667 5.33301 -54.667 16 -66c11.333 -13.333 39.333 -21.666 84 -24.999l86 -6l-10 -57c-132.667 4.66699 -208 6.66699 -226 6l-227 -6l10 57l64 6c36 4 59.667 13.667 71 29c14 19.333 27 60.333 39 123l181 971
c4 22.667 6 35.334 6 38.001l2 10c1.33301 6.66699 2 11.334 2 14.001c0 12 -12.333 30.667 -37 56c-34.667 36 -77 55.333 -127 58l-72 4l11 57c52.667 -2 91.667 -3.66699 117 -5h28l14 -1h6z" />
    <glyph glyph-name="O" unicode="O" horiz-adv-x="1593" 
d="M959 1446c178.667 0 320.333 -52.002 425 -156.002c98.667 -97.333 148 -236.666 148 -417.999c0 -208 -58.333 -394.333 -175 -559c-107.333 -150.667 -246.333 -253.667 -417 -309c-84 -27.333 -173.667 -41 -269 -41c-183.333 0 -320.666 46.667 -411.999 140
c-100 102.667 -150 253.334 -150 452.001c0 270.667 84 488 252 652c163.333 159.333 362.666 239 597.999 239zM877.999 1360c-148 0 -270 -48.333 -366 -145c-61.333 -61.333 -108.666 -134 -141.999 -218c-54 -135.333 -81 -278.333 -81 -429
c0 -346 149.667 -519 449 -519c160.667 0 291.667 52 393 156c63.333 64 111.666 139 144.999 225c50.667 129.333 76 265.333 76 408c0 348 -158 522 -474 522z" />
    <glyph glyph-name="P" unicode="P" horiz-adv-x="1251" 
d="M215 1360l6.00195 57.002l108 -3c145.333 -2 222.666 -3 231.999 -3l282 6c51.333 1.33301 100.833 -3.5 148.5 -14.5s85.167 -26.167 112.5 -45.5c74.667 -53.333 112 -136 112 -248c0 -145.333 -52 -270.333 -156 -375c-96 -96 -207 -144 -333 -144
c-52 0 -111 15.667 -177 47l-4 63c68.667 -25.333 122.667 -38 162 -38c78.667 0 147.334 29.667 206.001 89c81.333 83.333 122 187.666 122 312.999c0 94 -25.333 164 -76 210s-128.334 69 -233.001 69c-34 0 -82.667 -5.33301 -146 -16
c-16.667 -68.667 -27.667 -115 -33 -139l-168 -998c-5.33301 -32.667 -8 -56.667 -8 -72c0 -18.667 4 -32.334 12 -41.001c11.333 -12 32 -18.667 62 -20l133 -6l-6 -57l-109 3c-82.667 2 -141 3 -175 3c-37.333 0 -99 -1.33301 -185 -4l-86 -2l8 57l84 6
c44 4.66699 70.333 16 79 34c11.333 20.667 24.666 75.667 39.999 165l151 889c12.667 72.667 19 125 19 157c0 34 -24 52 -72 54z" />
    <glyph glyph-name="Q" unicode="Q" horiz-adv-x="1593" 
d="M310 -352l-49.002 26c-0.666992 14 -1 26 -1 36c0 72 22 132.667 66 182c46 51.333 109 77 189 77c43.333 0 88.333 -9.33301 135 -28l483 -197c50.667 -20.667 93.334 -31 128.001 -31c79.333 0 125.333 54 138 162h51c-8.66699 -90.667 -30 -158.667 -64 -204
c-41.333 -55.333 -102.333 -83 -183 -83c-43.333 0 -84.666 6.66699 -123.999 20c-18 5.33301 -57.333 24 -118 56l-297 156c-75.333 39.333 -141 59 -197 59c-104.667 0 -157 -77 -157 -231zM958.998 1446c178.667 0 320.335 -52.001 425.002 -156.001
c98.667 -97.333 148 -236.666 148 -417.999c0 -208 -58.333 -394.333 -175 -559c-107.333 -150.667 -246.333 -253.667 -417 -309c-84 -27.333 -173.667 -41 -269 -41c-182.667 0 -319.334 46.333 -410.001 139c-101.333 102.667 -152 253.667 -152 453
c0 270.667 84 488 252 652c163.333 159.333 362.666 239 597.999 239zM877.999 1360c-148 0 -270 -48.333 -366 -145c-61.333 -61.333 -108.666 -134 -141.999 -218c-54 -135.333 -81 -278.333 -81 -429c0 -346 149.667 -519 449 -519c160.667 0 291.667 52 393 156
c63.333 64 111.666 139 144.999 225c50.667 129.333 76 265.333 76 408c0 348 -158 522 -474 522z" />
    <glyph glyph-name="R" unicode="R" horiz-adv-x="1366" 
d="M214 1360l6.00195 56.998c195.333 -4.66699 298.666 -6.66699 309.999 -6l307 6c109.333 2 194 -17.667 254 -59c69.333 -48 104 -118.333 104 -211c0 -128 -60.667 -236 -182 -324c-42.667 -30.667 -87.334 -54.334 -134.001 -71.001
c-25.333 -8.66699 -62.666 -17.667 -111.999 -27l377 -563c32.667 -48 59 -77.333 79 -88c19.333 -11.333 47.666 -19.333 84.999 -24v-56c-14 0.666992 -23 1.33398 -27 2.00098c-39.333 2.66699 -62.333 4 -69 4h-22l-12 1h-5l-135 -7
c-64.667 109.333 -103.667 174.333 -117 195c-54 92 -179 279.333 -375 562l6 23h90c114 0 207 36 279 108c62.667 62.667 94 139 94 229c0 154.667 -91 232 -273 232c-51.333 0 -103 -5.33301 -155 -16c-17.333 -70.667 -28.333 -117 -33 -139l-174 -997
c-5.33301 -31.333 -8 -55.666 -8 -72.999c0 -18.667 4 -32 12 -40c10.667 -11.333 31.334 -18 62.001 -20l100 -6l-6 -57h-54l-209 6c-22.667 0 -80.334 -1.33301 -173.001 -4l-86 -3l8 58l84 6c44 4.66699 70 16 78 34c11.333 20.667 25 75.334 41 164.001l153 889
c12.667 72 19 124.333 19 157c0 34 -24 52 -72 54z" />
    <glyph glyph-name="S" unicode="S" horiz-adv-x="1139" 
d="M924 1100l0.00390625 155c-27.333 29.333 -54 50 -80 62c-44.667 20.667 -94.334 31 -149.001 31c-98 0 -178.333 -31.333 -241 -94c-56.667 -56 -85 -127 -85 -213c0 -72.667 17.667 -128.667 53 -168c30.667 -34 78.667 -58 144 -72l133 -29
c90 -19.333 157.667 -47 203 -83c61.333 -48 92 -118 92 -210c0 -128 -48.333 -239 -145 -333c-58 -57.333 -126.5 -102.166 -205.5 -134.499s-158.833 -48.5 -239.5 -48.5c-109.333 0 -215.333 26 -318 78c22 100 38.667 203.667 50 311h61v-203
c43.333 -30 82.666 -51 117.999 -63c50 -16.667 103.667 -25 161 -25c110.667 0 198.667 32.667 264 98c61.333 61.333 92 138.666 92 231.999c0 116.667 -55.333 188.334 -166 215.001l-195 47c-94 23.333 -160 61.666 -198 114.999c-34.667 50 -52 115.667 -52 197
c0 120 43.333 222.667 130 308c54.667 54 118.667 96.333 192 127s147.666 46 222.999 46c91.333 0 181.666 -23.333 270.999 -70c-26 -82 -43.333 -174 -52 -276h-61z" />
    <glyph glyph-name="T" unicode="T" horiz-adv-x="1251" 
d="M799 1323l-191.998 -1133c-6 -32 -9 -56 -9 -72c0 -18.667 4 -32.334 12 -41.001c11.333 -11.333 32 -18 62 -20l121 -6l-6 -57l-90 2c-82 2.66699 -142.667 4 -182 4c-34 0 -92 -1 -174 -3l-117 -3l8 57l104 6c43.333 4 69.333 15 78 33c11.333 18 25 73.333 41 166
l176 1067h-229c-30 0 -61.333 -2.16699 -94 -6.5s-54.334 -9.16602 -65.001 -14.499c-14.667 -4.66699 -29.334 -37.334 -44.001 -98.001l-31 -123h-59l37 336l195 -3c171.333 -2 298.666 -3 381.999 -3c82 0 212.667 1 392 3l186 3l-55 -336h-58l8 131
c0.666992 6 1 11.333 1 16c0 31.333 -3.33301 53.666 -10 66.999c-9.33301 18.667 -88.666 28 -237.999 28h-150z" />
    <glyph glyph-name="U" unicode="U" horiz-adv-x="1593" 
d="M1628 1360l-74 -7.00293c-45.333 -4 -73.333 -14.333 -84 -31c-8 -11.333 -14.667 -33.666 -20 -66.999l-173 -1039c-9.33301 -54 -14 -92 -14 -114c0 -25.333 22 -39.666 66 -42.999l123 -8l-10 -57l-66 3c-53.333 2 -89 3 -107 3l-140 -5h-44l-10 9
c22.667 94 41 180.667 55 260c-62.667 -70.667 -117.667 -123 -165 -157c-134.667 -96 -268.334 -144 -401.001 -144c-120 0 -213.667 33 -281 99c-56.667 55.333 -85 133.333 -85 234c0 34.667 4.33301 76.667 13 126l131 768c9.33301 55.333 14 95 14 119
c0 17.333 -5.33301 29.333 -16 36c-9.33301 6 -27.333 9.66699 -54 11l-106 4l6 57l65 -3c56.667 -2 96.667 -3 120 -3c24.667 0 64.334 1 119.001 3l63 3l-180 -977c-10 -52 -15 -93.333 -15 -124c0 -65.333 20 -118 60 -158c53.333 -52 128.333 -78 225 -78
c76.667 0 154 19.667 232 59c71.333 35.333 134.333 81 189 137c17.333 18.667 42 47.334 74 86.001l146 912c1.33301 8 2 16 2 24c0 36.667 -24 56 -72 58l-98 4l6 57l129 -3c78 -2 128 -3 150 -3l201 6h32z" />
    <glyph glyph-name="V" unicode="V" horiz-adv-x="1479" 
d="M634 196l596.999 1008c22 36.667 33 65.334 33 86.001c0 38 -39 60 -117 66l-53 4v57l94 -3c82 -2 134.667 -3 158 -3c36.667 0 82.334 1 137.001 3l62 3v-57l-37 -4c-29.333 -4 -52.666 -13.333 -69.999 -28c-14 -12.667 -33 -38.334 -57 -77.001l-774 -1267h-101
l-180 1273c-6.66699 43.333 -20.334 70.333 -41.001 81c-11.333 8 -38 14 -80 18l-51 4v57l84 -3c73.333 -2 130 -3 170 -3s96.667 1 170 3l84 3v-57l-86 -4c-38.667 -2 -64 -10.333 -76 -25c-7.33301 -8.66699 -11 -21.334 -11 -38.001c0 -6 0.333008 -11 1 -15z" />
    <glyph glyph-name="W" unicode="W" horiz-adv-x="1933" 
d="M620 1417v-57.001l-76 -4c-41.333 -3.33301 -68.666 -17 -81.999 -41c-6.66699 -10 -10 -28 -10 -54l64 -990l458 933c49.333 100.667 85 177.334 107 230.001h37l323 -1173l302 947c12 38.667 18 72 18 100c0 28.667 -28 44.667 -84 48l-80 4l11 57l67 -3
c60 -2 104.667 -3 134 -3c31.333 0 75.666 1 132.999 3l65 3v-57l-41 -4c-46 -5.33301 -75.333 -26.666 -88 -63.999l-350 -1038c-24.667 -71.333 -46 -143.333 -64 -216l-14 -54h-105c-25.333 121.333 -52 231.666 -80 330.999l-229 803l-459 -909
c-36 -72 -70 -147 -102 -225h-103c-2 100.667 -7.33301 214 -16 340l-66 880c-4.66699 58.667 -13 97 -25 115c-13.333 18.667 -41 31 -83 37l-37 4v57l81 -3c70.667 -2 120 -3 148 -3c40 0 95.333 1 166 3z" />
    <glyph glyph-name="X" unicode="X" horiz-adv-x="1479" 
d="M852 51l78 6c10 1.33301 21 2 33 2c43.333 1.33301 65 9 65 23c0 18 -9.66699 45.333 -29 82l-244 463l-372 -473c-13.333 -17.333 -20 -34.333 -20 -51c0 -23.333 37.333 -38.666 112 -45.999l66 -6v-57c-81.333 4 -162.333 6 -243 6c-79.333 0 -165 -2 -257 -6v57l57 6
c52 6 94.667 28.667 128 68l486 577l-298 553c-21.333 39.333 -41.666 64.333 -60.999 75c-22.667 13.333 -57.667 22 -105 26l-53 4v57l92 -3c81.333 -2 141 -3 179 -3s98 1 180 3l93 3v-57l-76 -4c-58 -3.33301 -87 -17.333 -87 -42c0 -15.333 9.33301 -41 28 -77
l213 -408l330 402c31.333 38 47 66.667 47 86c0 22 -30.667 35 -92 39l-68 4v57c150 -4.66699 228.667 -6.66699 236 -6l233 6v-57l-57 -4c-26 -2 -47.667 -9 -65 -21c-16.667 -10.667 -39.334 -32.334 -68.001 -65.001l-453 -516l350 -629
c15.333 -26.667 34 -44.667 56 -54c15.333 -6.66699 43.333 -12 84 -16l51 -4v-57c-92 4 -183 6 -273 6c-92.667 0 -184.667 -2 -276 -6v57z" />
    <glyph glyph-name="Y" unicode="Y" horiz-adv-x="1366" 
d="M106 1325l31.9971 22.002c50.667 34.667 91.334 64.667 122.001 90l8 7c56.667 -5.33301 99.334 -19 128.001 -41c74.667 -57.333 142.334 -182 203.001 -374c44 -140 80.333 -271.333 109 -394c54.667 145.333 142 299.666 262 462.999
c94.667 125.333 179.667 212.333 255 261c42.667 27.333 95 50 157 68l-12 -145c-50.667 -10.667 -91.667 -24.667 -123 -42c-90 -48.667 -197.667 -167.667 -323 -357c-49.333 -75.333 -90.666 -147.333 -123.999 -216s-53 -123 -59 -163l-54 -344
c-2 -11.333 -3 -25.666 -3 -42.999c0 -18 4 -31.333 12 -40c10.667 -11.333 31 -18 61 -20l101 -6l-7 -56h-54l-214 5c-24 0 -77.333 -1 -160 -3l-108 -3l8 57l98 6c43.333 4 69 14.333 77 31c12 18 26 74 42 168l43 258c0.666992 3.33301 1 6.66602 1 9.99902
c0 26.667 -13.167 86.667 -39.5 180s-55.833 183.666 -88.5 270.999c-44 120 -84.333 203.333 -121 250c-39.333 50 -83 75 -131 75c-20.667 0 -51.334 -8 -92.001 -24z" />
    <glyph glyph-name="Z" unicode="Z" horiz-adv-x="1366" 
d="M41 -6v44.999l1028 1296h-368c-153.333 0 -276.333 -9 -369 -27l-13 -41c-22 -73.333 -36 -131.666 -42 -174.999h-54c14.667 132 22.334 240.333 23.001 325l241 -3l216 -2l217 -2c11.333 0 29 0.333008 53 1l332 6v-41l-1032 -1296h575c91.333 0 178 9 260 27l16 45
c21.333 58 37.666 104.333 48.999 139l15 45h54c-28 -143.333 -44 -257.333 -48 -342l-135 2c-148 2.66699 -325.667 4 -533 4c-164 0 -325.667 -2 -485 -6z" />
    <glyph glyph-name="bracketleft" unicode="[" horiz-adv-x="682" 
d="M668 1501l-0.00195312 -56.999l-180 -14c-12 -1.33301 -21 -6 -27 -14c-5.33301 -6.66699 -10.666 -23.334 -15.999 -50.001l-33 -175c-17.333 -80 -45.333 -252.333 -84 -517l-104 -702c-4.66699 -30 -7 -51 -7 -63c0 -24.667 19.333 -38.667 58 -42l162 -14l-11 -57
l-86 3c-55.333 2 -91 3 -107 3c-14.667 0 -55.667 -1.33301 -123 -4l-69 -2l-4 10l105 582c38 216 78 480.333 120 793c14.667 110.667 27 214.667 37 312l17 8h35c2 0 18.333 -0.666992 49 -2c20.667 -1.33301 51.334 -2 92.001 -2l141 4h35z" />
    <glyph glyph-name="backslash" unicode="\" horiz-adv-x="1241" 
d="M928 0l-762 1501h123l762 -1501h-123z" />
    <glyph glyph-name="bracketright" unicode="]" horiz-adv-x="682" 
d="M14 -204v57l180 14c12 1.33301 21 6 27 14c5.33301 6.66699 10.666 23.334 15.999 50.001l33 175c32.667 176 77.667 463.667 135 863c14.667 100.667 23.334 158.334 26.001 173.001l26 173c0 3.33301 0.333008 6.66602 1 9.99902c4.66699 26 7 46.667 7 62
c0 25.333 -19.333 39.666 -58 42.999l-162 14l11 57l86 -3c55.333 -2 91 -3 107 -3c14.667 0 55.667 1.33301 123 4l69 2l4 -10l-105 -583c-35.333 -198.667 -75.333 -462.667 -120 -792c-15.333 -113.333 -27.666 -217.333 -36.999 -312l-17 -8h-35
c-2.66699 0 -19 0.666992 -49 2c-18.667 1.33301 -49.334 2 -92.001 2l-141 -4h-35z" />
    <glyph glyph-name="asciicircum" unicode="^" horiz-adv-x="1241" 
d="M229 580h-125l449 831h135l446 -831h-125l-389 704z" />
    <glyph glyph-name="underscore" unicode="_" 
d="M1024 -256h-1024v102h1024v-102z" />
    <glyph glyph-name="grave" unicode="`" horiz-adv-x="682" 
d="M565 1061l-331.999 207.001c-38 23.333 -57 48.666 -57 75.999c0 14.667 5.33301 27 16 37c18 17.333 39 26 63 26c19.333 0 41.666 -12.333 66.999 -37l313 -309h-70z" />
    <glyph glyph-name="a" unicode="a" horiz-adv-x="909" 
d="M823 967l-188 -775.998c-2 -8 -3 -15.667 -3 -23c0 -31.333 10.333 -47 31 -47c27.333 0 69.666 24.667 126.999 74l27 22l14 -43c-154.667 -128.667 -254 -193 -298 -193c-33.333 0 -50 23.667 -50 71c0 33.333 4 68.666 12 105.999l59 261
c-103.333 -146.667 -195 -255.667 -275 -327c-86 -76.667 -153 -115 -201 -115c-17.333 0 -31.666 10.333 -42.999 31c-18 31.333 -27 73.666 -27 126.999c0 82 14.5 178.167 43.5 288.5s65.833 211.166 110.5 302.499c36 72 87 129.333 153 172
c50 32.667 94.667 56.334 134 71.001c34 12.667 71.333 19 112 19c47.333 0 105.333 -13 174 -39l68 36zM653 848.002c-76 26 -134.333 38.999 -175 38.999c-63.333 0 -112 -20.667 -146 -62c-33.333 -40.667 -71.333 -132.667 -114 -276c-42 -139.333 -63 -255 -63 -347
c0 -54 12 -81 36 -81c41.333 0 99.666 41 174.999 123c86 92 149 182 189 270c26 55.333 48 118 66 188c24.667 96.667 35.334 145.334 32.001 146.001z" />
    <glyph glyph-name="b" unicode="b" horiz-adv-x="948" 
d="M481 1479l-175.996 -815.001c77.333 98 139.666 166.333 186.999 205c98.667 78.667 192 118 280 118c33.333 0 57.666 -9.66699 72.999 -29c12 -15.333 22 -40.666 30 -75.999s12 -72.666 12 -111.999c0 -192 -56.667 -368.333 -170 -529
c-64.667 -90 -144.334 -159.667 -239.001 -209c-72 -36.667 -135.667 -55 -191 -55c-77.333 0 -139 25.667 -185 77c-17.333 20 -26 43.333 -26 70c0 7.33301 0.666992 14.333 2 21l207 1129c2.66699 15.333 4 31.666 4 48.999c0 32.667 -23.333 49 -70 49h-98l8 43
c53.333 4 108.666 12.333 165.999 25c52 12.667 106 33 162 61zM657.004 868.999c-20 0 -47.168 -7.83203 -81.501 -23.499s-66.166 -34.834 -95.499 -57.501c-97.333 -74 -167 -186.667 -209 -338c-28 -100.667 -42 -182 -42 -244c0 -88.667 48.333 -133 145 -133
c108 0 194.667 69.333 260 208c30 62.667 55.333 136 76 220c19.333 77.333 29 151 29 221c0 98 -27.333 147 -82 147z" />
    <glyph glyph-name="c" unicode="c" horiz-adv-x="834" 
d="M700 676v123c0 20.667 -13.333 39.667 -40 57c-32 21.333 -74 32 -126 32c-61.333 0 -113.333 -16.333 -156 -49c-53.333 -42 -96 -115.333 -128 -220c-28.667 -94 -43 -191.667 -43 -293c0 -163.333 58 -245 174 -245c33.333 0 69 8 107 24c42 17.333 105 54 189 110
l31 21l17 -41l-103 -84c-108.667 -89.333 -215.334 -134 -320.001 -134c-167.333 0 -251 100.667 -251 302c0 134.667 27 260.667 81 378c27.333 60 64.833 112.167 112.5 156.5s110.834 86.166 189.501 125.499c65.333 32.667 120.333 49 165 49
c80 0 145.667 -16.667 197 -50c-18 -49.333 -34.333 -136.666 -49 -261.999h-47z" />
    <glyph glyph-name="d" unicode="d" 
d="M989 1479l-257.999 -1216c-10.667 -48.667 -16 -80.667 -16 -96c0 -30.667 9.66699 -46 29 -46c20 0 46.333 11.667 79 35l91 63l20 -39l-166 -123c-68.667 -50.667 -119.667 -76 -153 -76c-36 0 -54 22.667 -54 68c0 51.333 11 121 33 209l46 186
c-78 -118 -140.667 -203.333 -188 -256c-126.667 -140.667 -235.334 -211 -326.001 -211c-60.667 0 -91 66 -91 198c0 87.333 9.5 175.166 28.5 263.499s44.167 162.5 75.5 222.5c32 60 74.833 116.333 128.5 169s111.834 95 174.501 127c39.333 20 81 30 125 30
c53.333 0 109.333 -9.33301 168 -28l58 315c2.66699 15.333 4 31.666 4 48.999c0 32.667 -23.333 49 -70 49h-98l8 43c53.333 4 108.666 12.333 165.999 25c52 12.667 106 33 162 61zM715.001 840.002c-62.667 31.333 -135 47.001 -217 47.001
c-54 0 -94.333 -10.333 -121 -31c-45.333 -34.667 -87 -111.334 -125 -230.001c-46.667 -144 -70 -286 -70 -426c0 -52.667 17 -79 51 -79c19.333 0 47.333 11 84 33s73 50 109 84c85.333 80 154.333 180.333 207 301c26 58.667 45 118.667 57 180z" />
    <glyph glyph-name="e" unicode="e" horiz-adv-x="797" 
d="M688 189c-83.333 -68.667 -155.001 -119.336 -215.001 -152.003c-73.333 -40 -141.333 -60 -204 -60c-72.667 0 -130 21 -172 63c-44 44 -66 107.333 -66 190c0 95.333 21 210 63 344c22.667 71.333 48.334 126.333 77.001 165c52.667 74 136 140.333 250 199
c64.667 33.333 122 50 172 50c54 0 97.667 -16.333 131 -49c28 -27.333 42 -64.333 42 -111c0 -123.333 -84.667 -222.333 -254 -297c-56 -25.333 -103 -42.666 -141 -51.999l-168 -41c-10.667 -57.333 -16 -111.666 -16 -162.999c0 -73.333 17 -126.666 51 -159.999
c28 -28 63 -42 105 -42c74 0 167.333 40 280 120l49 34zM212.999 485.998c92.667 20 167 43.667 223 71c40.667 20 75.667 45.667 105 77c48.667 52 73 106 73 162c0 34 -9.33301 60.333 -28 79c-18 18 -41.333 27 -70 27c-24.667 0 -51.167 -5.5 -79.5 -16.5
s-51.833 -24.833 -70.5 -41.5c-56 -50.667 -100.667 -145 -134 -283z" />
    <glyph glyph-name="f" unicode="f" horiz-adv-x="569" 
d="M586 784l-212.998 -0.00390625l-39 -180c-88.667 -427.333 -153.667 -692.666 -195 -795.999c-44.667 -111.333 -102.667 -199.666 -174 -264.999c-79.333 -72 -154 -108 -224 -108c-27.333 0 -51.666 5.33301 -72.999 16c7.33301 16.667 15.666 41.334 24.999 74.001
s16.666 62.667 21.999 90l29 8c13.333 -16.667 25 -29 35 -37c18.667 -14.667 42 -22 70 -22c38 0 71.667 15.667 101 47s53.333 77 72 137c50.667 160 111.667 467 183 921l18 115h-166l10 45c46 16.667 104.667 42 176 76l31 162c20.667 106.667 51.334 181 92.001 223
c24 24.667 68 60.834 132 108.501s108.333 77.167 133 88.5c20 9.33301 43.667 14 71 14c55.333 0 103.333 -9 144 -27l-11 -30c-19.333 -53.333 -35 -99.333 -47 -138l-20 -8c-16 24.667 -37 44.167 -63 58.5s-54 21.5 -84 21.5c-54 0 -97 -27 -129 -81
c-22.667 -37.333 -41.334 -95 -56.001 -173l-43 -229h32c81.333 0.666992 138.666 5.66699 171.999 15l15 3l8 -14c-12.667 -32 -24 -70.333 -34 -115z" />
    <glyph glyph-name="g" unicode="g" 
d="M491 299c-2.66699 -4 -7 -9.66699 -13 -17c-28 -34.667 -42 -60.334 -42 -77.001c0 -36 32 -80.333 96 -133l123 -100c87.333 -71.333 131 -144.666 131 -219.999c0 -70.667 -35 -135 -105 -193c-47.333 -39.333 -114 -71.333 -200 -96
c-65.333 -18.667 -128.666 -28 -189.999 -28c-116.667 0 -209 23.333 -277 70c-60 42 -90 98.667 -90 170c0 85.333 36 158.333 108 219c54.667 46 117 82 187 108c31.333 11.333 67.333 23.666 108 36.999c-28.667 24 -43 46.667 -43 68c0 30 18.667 62 56 96l84 78
c-24 -1.33301 -45 -2 -63 -2c-72.667 0 -132 20.667 -178 62c-47.333 42 -71 105.333 -71 190c0 146.667 58 263.334 174 350.001c95.333 71.333 187.333 107 276 107c46.667 0 93 -9 139 -27c30 -12 53.333 -27 70 -45c9.33301 -9.33301 20.666 -25 33.999 -47
c92.667 0 162.334 6 209.001 18l6 -12l-19 -92c-38 -5.33301 -71.667 -8 -101 -8c-19.333 0 -43 1.33301 -71 4l2 -11c4 -26.667 6 -48 6 -64c0 -128 -57.667 -235.333 -173 -322c-52.667 -40 -110.334 -67.667 -173.001 -83zM360 2c-89.333 -26 -156.667 -57.667 -202 -95
c-68.667 -56 -103 -123.667 -103 -203c0 -54 17.333 -97.333 52 -130c57.333 -54.667 135 -82 233 -82c91.333 0 169.333 21.667 234 65c51.333 35.333 77 78.333 77 129c0 39.333 -13.667 76 -41 110c-22 26.667 -52.667 55 -92 85zM508.999 918
c-61.333 0 -114.333 -22.333 -159 -67c-62 -62 -93 -149 -93 -261c0 -164 63.333 -246 190 -246c79.333 0 141 38 185 114c38.667 66 58 146.333 58 241c0 146 -60.333 219 -181 219z" />
    <glyph glyph-name="h" unicode="h" 
d="M483 1479l-201.003 -935.002l40 51c77.333 96.667 144.333 168.667 201 216c72.667 60.667 139.667 106.667 201 138c51.333 26 92.333 39 123 39c40 0 60 -24.333 60 -73c0 -41.333 -7.66699 -92.333 -23 -153l-131 -524c-9.33301 -38 -14 -65 -14 -81
c0 -15.333 4 -27 12 -35c4.66699 -4.66699 9.33398 -7 14.001 -7c21.333 0 63 20.333 125 61l54 35l20 -37c-85.333 -63.333 -150.333 -109 -195 -137c-60.667 -36.667 -105 -55 -133 -55c-40.667 0 -61 26.667 -61 80c0 36.667 9 89 27 157l104 402
c20.667 78.667 31 139.334 31 182.001c0 30 -14.667 45 -44 45c-25.333 0 -60.166 -15.667 -104.499 -47s-91.833 -73.666 -142.5 -126.999c-77.333 -82.667 -133.333 -162.667 -168 -240c-42 -94 -76 -234 -102 -420l-142 -32l-14 22c26.667 86 56.834 203 90.501 351
s63.5 294.667 89.5 440l86 479c2.66699 14 4 30 4 48c0 33.333 -23 50 -69 50h-99l9 43c53.333 4 108.333 12.333 165 25c52 12.667 106 33 162 61z" />
    <glyph glyph-name="i" unicode="i" horiz-adv-x="569" 
d="M70 795l56.999 41c109.333 78 184.333 125 225 141c18 7.33301 34.667 11 50 11c33.333 0 50 -17.667 50 -53c0 -19.333 -3.66699 -44 -11 -74l-158 -623c-9.33301 -36.667 -14 -63.667 -14 -81c0 -28 8.66699 -42 26 -42c20.667 0 62.334 20.333 125.001 61l53 35
l21 -37c-86 -64 -151.333 -109.667 -196 -137c-60 -36.667 -104 -55 -132 -55c-40.667 0 -61 26.667 -61 80c0 40.667 8.66699 93 26 157l136 492c10.667 40 16 70.333 16 91c0 14.667 -4.66699 27 -14 37c-6 6 -13.667 9 -23 9c-10 0 -41.667 -17 -95 -51l-67 -43z
M466.999 1458c19.333 0 36.333 -7.33105 51 -21.998c15.333 -14.667 23 -35.334 23 -62.001c0 -34.667 -9.33301 -65.334 -28 -92.001c-21.333 -30 -49.333 -45 -84 -45c-54 0 -81 28 -81 84c0 40 14.667 74.333 44 103c24 22.667 49 34 75 34z" />
    <glyph glyph-name="j" unicode="j" horiz-adv-x="569" 
d="M-143 -551l16 117c44 -26 80.333 -39 109 -39c13.333 0 25.666 7.33301 36.999 22c25.333 35.333 45 87.333 59 156l204 1014l6 24c6 28 9 47 9 57c0 32 -12.333 48 -37 48c-10 0 -41.667 -17 -95 -51l-66 -43l-15 41l58 41c108.667 78 183.667 125 225 141
c18 7.33301 34.333 11 49 11c34 0 51 -17 51 -51c0 -13.333 -4 -38.666 -12 -75.999l-156 -717c-48.667 -224.667 -90.667 -376.334 -126 -455.001c-75.333 -169.333 -154.666 -254 -237.999 -254c-32 0 -58 4.66699 -78 14zM469 1458
c19.333 0 36.334 -7.33105 51.001 -21.998c15.333 -14.667 23 -35.334 23 -62.001c0 -34.667 -9.33301 -65.334 -28 -92.001c-20.667 -30 -48.334 -45 -83.001 -45c-54.667 0 -82 28 -82 84c0 40 14.667 74.333 44 103c24 22.667 49 34 75 34z" />
    <glyph glyph-name="k" unicode="k" horiz-adv-x="909" 
d="M479 1479l-219.999 -1007c79.333 111.333 143.166 195.333 191.499 252s103.166 111.667 164.499 165c76 66 144.667 99 206 99c27.333 0 60 -6.33301 98 -19l-35 -129c-32 8 -56.333 12 -73 12c-57.333 0 -114.666 -17.333 -171.999 -52
c-43.333 -26 -93.333 -67.333 -150 -124l-29 -29c69.333 -215.333 135 -379.666 197 -492.999c17.333 -31.333 35 -47 53 -47c16 0 36 6.66699 60 20l88 49l16 -39l-94 -65c-86 -60 -141 -90 -165 -90s-49 24.667 -75 74c-41.333 80 -102.666 238.333 -183.999 475
c-72.667 -72.667 -118.334 -159.667 -137.001 -261l-47 -254l-138 -34l-18 20c88.667 354 144.667 595 168 723l98 549c2.66699 14 4 30 4 48c0 33.333 -23 50 -69 50h-99l9 43c53.333 4 108.333 12.333 165 25c52 12.667 106 33 162 61z" />
    <glyph glyph-name="l" unicode="l" horiz-adv-x="569" 
d="M514 1479l-262.999 -1248l-4 -18c-6 -26 -9 -44.667 -9 -56c0 -12 2.66699 -22.333 8 -31c5.33301 -7.33301 11.333 -11 18 -11c21.333 0 63 20.333 125 61l54 35l20 -37c-84.667 -62.667 -150 -108.334 -196 -137.001c-59.333 -36.667 -103.333 -55 -132 -55
c-40.667 0 -61 27 -61 81c0 40.667 13 110 39 208l29 106c19.333 73.333 49.333 212.666 90 417.999s66.667 350 78 434l6 45c4 30.667 6 48.334 6 53.001c0 30 -23.333 45 -70 45h-98l8 43c53.333 4 108.666 12.333 165.999 25c52 12.667 106 33 162 61z" />
    <glyph glyph-name="m" unicode="m" horiz-adv-x="1593" 
d="M1515 174c-84.667 -63.333 -149.666 -109 -194.999 -137c-60 -36.667 -104.333 -55 -133 -55c-40.667 0 -61 27.333 -61 82c0 45.333 9 97.333 27 156c23.333 77.333 52.666 184.333 87.999 321c18.667 74.667 30.667 124 36 148c10 42 15 78.333 15 109
c0 33.333 -8.33301 50 -25 50c-70.667 0 -164.667 -65.667 -282 -197c-94 -105.333 -158.333 -245 -193 -419l-43 -220l-141 -30l-10 22l32 138c86.667 368.667 130 590 130 664c0 28 -7.33301 42 -22 42c-28.667 0 -64.5 -14.167 -107.5 -42.5
s-86.167 -66.166 -129.5 -113.499c-60 -66 -106.333 -136.667 -139 -212c-28.667 -66 -54.334 -152.333 -77.001 -259l-46 -209l-139 -30l-6 22c38.667 135.333 75.667 285.333 111 450c38 177.333 57 291.666 57 342.999c0 34 -12.333 51 -37 51c-10 0 -41.667 -17 -95 -51
l-67 -43l-14 41l57 41c142 101.333 232.667 152 272 152c31.333 0 47 -21.333 47 -64c0 -28 -3.66699 -57.333 -11 -88l-67 -272c73.333 99.333 126.666 166.333 159.999 201c70.667 74 151.667 135 243 183c51.333 26.667 94 40 128 40c35.333 0 53 -20.667 53 -62
c0 -18 -4.66699 -47.333 -14 -88l-62 -280c60.667 84 120.334 152.667 179.001 206c81.333 74 167.333 135.333 258 184c50 26.667 92.667 40 128 40c34.667 0 52 -19 52 -57c0 -20 -4.66699 -48.333 -14 -85l-154 -608c-9.33301 -38.667 -14 -65.667 -14 -81s4 -27 12 -35
c4.66699 -4.66699 9.33398 -7 14.001 -7c21.333 0 63.333 20.333 126 61l53 35z" />
    <glyph glyph-name="n" unicode="n" horiz-adv-x="1139" 
d="M49 795l57 41.001c142 101.333 232.667 152 272 152c31.333 0 47 -22.333 47 -67c0 -24 -3.66699 -52.333 -11 -85l-78 -330c93.333 132 173.666 229.333 240.999 292c70 65.333 141.667 115.666 215 150.999c53.333 26 98.333 39 135 39c41.333 0 62 -24.333 62 -73
c0 -38.667 -7.33301 -89.667 -22 -153l-135 -565c-3.33301 -13.333 -5 -27 -5 -41c0 -14.667 4 -26 12 -34c4.66699 -4.66699 9.33398 -7 14.001 -7c21.333 0 63.333 20.333 126 61l53 35l21 -37c-85.333 -63.333 -150.666 -109 -195.999 -137
c-60.667 -36.667 -105 -55 -133 -55c-40.667 0 -61 27 -61 81c0 30 8.33301 78.667 25 146l2 10l107 435c14.667 60.667 22 109.334 22 146.001c0 32 -11.333 48 -34 48c-52 0 -117.333 -35 -196 -105c-75.333 -68 -142 -153 -200 -255
c-60.667 -108 -106.334 -265.333 -137.001 -472c-46 -8 -94 -19.333 -144 -34l-14 22c38.667 135.333 75.667 285.333 111 450c38 177.333 57 291.666 57 342.999c0 34 -12.333 51 -37 51c-10 0 -41.667 -17 -95 -51l-67 -43z" />
    <glyph glyph-name="o" unicode="o" horiz-adv-x="909" 
d="M572 988c78 0 140 -22.999 186 -68.999c56 -56 84 -136 84 -240c0 -165.333 -45 -319 -135 -461c-50 -78.667 -116 -140 -198 -184c-70.667 -38 -140.667 -57 -210 -57c-176 0 -264 111.667 -264 335c0 145.333 30.333 273.666 91 384.999c66 122 164.333 209 295 261
c50 20 100.333 30 151 30zM492 910.001c-52.667 0 -92.999 -11.668 -120.999 -35.001c-50.667 -41.333 -93.334 -118.333 -128.001 -231s-52 -224 -52 -334c0 -79.333 15.333 -141 46 -185c32.667 -46.667 80.667 -70 144 -70c64 0 114.667 22.667 152 68
c51.333 62 91 150 119 264c22.667 90.667 34 177.334 34 260.001c0 175.333 -64.667 263 -194 263z" />
    <glyph glyph-name="p" unicode="p" 
d="M236 6l-86 -536c-60 -10 -110 -21.667 -150 -35l-14 12l17 76c44 197.333 77.333 361.666 100 492.999l119 702c5.33301 30.667 8 57.334 8 80.001c0 30.667 -12 46 -36 46c-14.667 0 -47 -16 -97 -48l-66 -42l-14 41l57 41c142 101.333 232.667 152 272 152
c30 0 45 -20.333 45 -61c0 -27.333 -3.33301 -57.666 -10 -90.999l-48 -245c44.667 74.667 84 131 118 169c71.333 80.667 149 142.667 233 186c54 28 103.333 42 148 42c35.333 0 63.333 -17.667 84 -53c24.667 -42.667 37 -100.334 37 -173.001
c0 -138 -37.667 -282.333 -113 -433c-56 -113.333 -153 -208 -291 -284c-82 -45.333 -144.333 -68 -187 -68c-21.333 0 -57.333 7.66699 -108 23zM256 121c51.333 -32 107.667 -48.001 169 -48.001c84.667 0 148 30 190 90c80 116 137 253 171 411
c12.667 58 19 109.667 19 155c0 93.333 -25.667 140 -77 140c-50.667 0 -105.334 -22.667 -164.001 -68c-72.667 -56.667 -134.667 -131.667 -186 -225c-43.333 -79.333 -71.666 -158.666 -84.999 -237.999z" />
    <glyph glyph-name="q" unicode="q" horiz-adv-x="948" 
d="M788 938l68 45l29 -12c-17.333 -54 -36 -134.667 -56 -242l-175 -934c-18.667 -104 -32 -212.333 -40 -325c-50.667 -6.66699 -109.334 -18.334 -176.001 -35.001l-18 29c26 26.667 44.333 65.334 55 116.001l156 849c-42.667 -71.333 -89.667 -136.333 -141 -195
c-66.667 -74 -133.667 -135 -201 -183l-17 -12c-58.667 -41.333 -108.667 -62 -150 -62c-48.667 0 -73 60.667 -73 182c0 99.333 15.667 210.333 47 333c36.667 142 81 240 133 294c62.667 64 132.334 118 209.001 162c46 26.667 93.667 40 143 40
c56.667 0 125.667 -16.667 207 -50zM719 832c-84 36.667 -150 54.998 -198 54.998c-72.667 0 -123 -16.333 -151 -49c-51.333 -61.333 -97 -174.666 -137 -339.999c-24.667 -102.667 -37 -191.667 -37 -267c0 -73.333 14.667 -110 44 -110c44.667 0 109.667 41.333 195 124
c130.667 126.667 211 257.334 241 392.001z" />
    <glyph glyph-name="r" unicode="r" horiz-adv-x="797" 
d="M753 747h-28.0029c-21.333 26 -45.666 39 -72.999 39c-46 0 -103 -44.333 -171 -133c-52.667 -68.667 -93 -139.334 -121 -212.001c-20 -52 -37.667 -113 -53 -183l-53 -246l-27 -5c-44.667 -8 -81.667 -16.333 -111 -25l-20 14c52 169.333 96.667 353 134 551
c24 130.667 36 215 36 253c0 29.333 -12 44 -36 44c-14.667 0 -47 -16.333 -97 -49l-66 -42l-14 41l57 41c141.333 101.333 232 152 272 152c31.333 0 47 -22 47 -66c0 -25.333 -3.66699 -54 -11 -86l-14 -54c-14 -59.333 -26 -117 -36 -173l-16 -85
c26.667 58.667 72.667 135.334 138 230.001l55 80c70.667 102.667 137.334 154 200.001 154c8.66699 0 22.334 -4 41.001 -12c-16 -78 -27 -154 -33 -228z" />
    <glyph glyph-name="s" unicode="s" horiz-adv-x="797" 
d="M63 303h50.999v-172c56.667 -48 121 -72 193 -72c74.667 0 134.334 22 179.001 66c40 39.333 60 92 60 158c0 47.333 -13 81 -39 101c-18.667 14 -46.667 24.667 -84 32l-129 24c-132 25.333 -198 94.333 -198 207c0 68.667 25.333 129 76 181
c48.667 50 102.167 89.167 160.5 117.5s114.5 42.5 168.5 42.5c62.667 0 131 -18.667 205 -56c-19.333 -92 -32.333 -169.333 -39 -232h-47v113c-14 24 -35.333 44 -64 60c-40 22 -83.333 33 -130 33c-62.667 0 -115 -21 -157 -63c-34.667 -35.333 -52 -78.666 -52 -129.999
c0 -45.333 14.333 -79 43 -101c21.333 -16.667 60.666 -30.334 117.999 -41.001l88 -16c74 -14 128 -36 162 -66c36.667 -32 55 -76.333 55 -133c0 -71.333 -21.667 -132.333 -65 -183c-48.667 -56 -109 -103.667 -181 -143c-66 -35.333 -132.333 -53 -199 -53
c-71.333 0 -144.666 18.667 -219.999 56c21.333 88.667 36.333 178.667 45 270z" />
    <glyph glyph-name="t" unicode="t" horiz-adv-x="682" 
d="M256 799l-171.999 0.000976562l4 27c34.667 9.33301 94.667 34.333 180 75l52 349c64.667 24.667 117.667 49 159 73l23 -30c-32.667 -98.667 -63.334 -233.334 -92.001 -404.001c74 0 149 4 225 12l-23 -102h-219l-25 -126c-59.333 -291.333 -89 -463.666 -89 -516.999
c0 -27.333 9 -41 27 -41c24 0 65.333 20.333 124 61l92 64l21 -37l-33 -26c-114.667 -92.667 -189.667 -147.334 -225 -164.001c-42.667 -20.667 -79 -31 -109 -31c-40.667 0 -61 27 -61 81c0 22.667 5.66699 60.334 17 113.001c4 17.333 7 31.666 9 42.999z" />
    <glyph glyph-name="u" unicode="u" horiz-adv-x="1139" 
d="M759 489c-53.333 -86.667 -114.668 -169.333 -184.001 -248c-155.333 -176 -277.333 -264 -366 -264c-17.333 0 -33.666 7.66699 -48.999 23c-14.667 14.667 -22 34.667 -22 60c0 40 2.66699 72.667 8 98l128 607c3.33301 14.667 5 27 5 37c0 28 -12 42 -36 42
c-14.667 0 -47 -16 -97 -48l-66 -42l-14 41l57 41c142 101.333 232.667 152 272 152c30.667 0 46 -21.333 46 -64c0 -25.333 -3.33301 -54.666 -10 -87.999l-117 -555c-10 -46.667 -15 -82.667 -15 -108c0 -34.667 9 -52 27 -52c29.333 0 58.666 11 87.999 33
c102.667 76 194 175.333 274 298c65.333 100 114 232 146 396l20 105l140 35l14 -19c-65.333 -250.667 -122.666 -494.334 -171.999 -731.001l-2 -12c-6.66699 -30 -10 -53 -10 -69c0 -24 8.66699 -36 26 -36c27.333 0 69 18.333 125 55l54 35l20 -37
c-86 -63.333 -151.333 -109 -196 -137c-60 -36.667 -104 -55 -132 -55c-40.667 0 -61 27 -61 81c0 36.667 7.33301 82 22 136z" />
    <glyph glyph-name="v" unicode="v" 
d="M680 867l101.998 95.998c18 16.667 40.333 25 67 25c40 0 71.667 -20 95 -60c22 -38 33 -85.333 33 -142c0 -41.333 -7.5 -92.166 -22.5 -152.499s-34.167 -116.5 -57.5 -168.5c-67.333 -150.667 -153.333 -273 -258 -367c-89.333 -80.667 -175.333 -121 -258 -121
c-58 0 -107.333 20 -148 60c-51.333 50.667 -77 121 -77 211c0 117.333 35.333 236 106 356c42.667 73.333 111.667 161.666 207 264.999c-46.667 -6 -89 -9 -127 -9c-23.333 0 -43.333 0.666992 -60 2c-29.333 2 -48 3 -56 3c-53.333 0 -87.666 -19.333 -102.999 -58
l-35 -86h-45c25.333 108.667 51.333 189.334 78 242.001c20.667 9.33301 41.667 14 63 14c6 0 15 -0.666992 27 -2l25 -2c68 -6.66699 135.667 -10 203 -10c48.667 0 90 8.33301 124 25l21 -37c-80 -100 -139.333 -187.333 -178 -262c-68.667 -132.667 -103 -263 -103 -391
c0 -79.333 19.333 -138 58 -176c28.667 -28.667 63.667 -43 105 -43c42 0 85.333 17.333 130 52c82.667 64.667 147.334 162.334 194.001 293.001c37.333 104 56 201.333 56 292c0 86.667 -29.333 130 -88 130c-19.333 0 -38 -6 -56 -18z" />
    <glyph glyph-name="w" unicode="w" horiz-adv-x="1479" 
d="M1135 867l101.999 95.999c18 16.667 40.333 25 67 25c40 0 71.667 -20 95 -60c22 -38 33 -85.333 33 -142c0 -41.333 -7.5 -92.166 -22.5 -152.499s-34.167 -116.5 -57.5 -168.5c-68 -151.333 -154 -273.666 -258 -366.999c-90.667 -80.667 -174.334 -121 -251.001 -121
c-36 0 -66.333 12.333 -91 37c-40 41.333 -60 101.666 -60 180.999c0 43.333 8 106 24 188c-74 -144.667 -139.333 -246.667 -196 -306c-64 -66.667 -128 -100 -192 -100c-58 0 -103.333 28 -136 84c-30 51.333 -45 117 -45 197c0 92.667 23.333 185.334 70 278.001
c34 68.667 95.667 155 185 259c27.333 31.333 45.666 53 54.999 65l6 9c-42.667 -6 -83 -9 -121 -9c-23.333 0 -43.333 0.666992 -60 2c-29.333 2 -48 3 -56 3c-53.333 0 -87.666 -19.333 -102.999 -58l-35 -86h-45c25.333 108.667 51.333 189.334 78 242.001
c20.667 9.33301 41.667 14 63 14c6 0 15 -0.666992 27 -2l25 -2c68 -6.66699 135.667 -10 203 -10c48.667 0 90 8.33301 124 25l21 -37c-81.333 -92.667 -142 -177.334 -182 -254.001c-47.333 -92 -78 -176.667 -92 -254c-9.33301 -50 -14 -105.333 -14 -166
c0 -64.667 12.333 -115 37 -151c22 -31.333 49.333 -47 82 -47c64 0 138 79 222 237c52.667 100 90.334 207 113.001 321l59 305l152 46l14 -17l-107 -377c-28.667 -102 -43 -209 -43 -321c0 -65.333 12.333 -116.333 37 -153c18.667 -27.333 40 -41 64 -41
c38.667 0 80.334 17.333 125.001 52c81.333 63.333 146 161 194 293c37.333 103.333 56 200.666 56 291.999c0 86.667 -29.333 130 -88 130c-19.333 0 -38 -6 -56 -18z" />
    <glyph glyph-name="x" unicode="x" 
d="M43 180l40.9961 7.00098l22 -58c5.33301 -12.667 24 -19 56 -19c56.667 0 128.667 67.667 216 203l82 127l-22 128c-22.667 128 -50 211 -82 249c-20 24 -41.667 36 -65 36c-36.667 0 -84 -33 -142 -99l-35 20l119 171c20 28.667 59 43 117 43
c61.333 0 108 -22.667 140 -68c28 -38.667 48 -108.334 60 -209.001l13 -98l76 112c72 108 131.667 180.333 179 217c38.667 30.667 75.334 46 110.001 46c19.333 0 40.333 -7 63 -21l-31 -174l-29 -8c-10 32 -32.667 48 -68 48c-29.333 0 -59.666 -12 -90.999 -36
c-28.667 -22 -69.667 -70.333 -123 -145l-72 -101l37 -207c12.667 -70.667 30 -128.667 52 -174c20 -41.333 46 -62 78 -62c31.333 0 83.666 31 156.999 93l18 -39l-100 -90c-70.667 -63.333 -129.667 -95 -177 -95c-70.667 0 -119.667 85 -147 255l-22 141l-156 -240
c-29.333 -45.333 -61.666 -82 -96.999 -110c-39.333 -30.667 -77.333 -46 -114 -46c-25.333 0 -54.666 8.33301 -87.999 25l8 46c10.667 54 16.334 98 17.001 132z" />
    <glyph glyph-name="y" unicode="y" 
d="M-14 -369l97.999 70.001l21 -8c-2.66699 -18.667 -4 -34 -4 -46c0 -30.667 9.66699 -58 29 -82c24 -29.333 57 -44 99 -44c80.667 0 152.334 54 215.001 162c43.333 76 88 192.667 134 350l101 349c-55.333 -82.667 -110 -154.667 -164 -216
c-111.333 -126 -190.333 -189 -237 -189c-18.667 0 -36 7.66699 -52 23c-24.667 24.667 -37 66 -37 124c0 34.667 0.666992 61.667 2 81l35 498c0.666992 11.333 1 22 1 32c0 70 -14.667 105 -44 105c-7.33301 0 -24.666 -8.33301 -51.999 -25l-102 -61l-22 37l168 115
c64.667 44 105.334 69.333 122.001 76c11.333 4 21.666 6 30.999 6c32.667 0 49 -42.333 49 -127c0 -67.333 -2.66699 -134.333 -8 -201l-31 -398c-0.666992 -12.667 -1 -22.334 -1 -29.001c0 -35.333 5.33301 -61.666 16 -78.999c6.66699 -11.333 14.667 -17 24 -17
c22.667 0 55 18.667 97 56c81.333 72.667 152.666 174.667 213.999 306c34 72 57.333 131.667 70 179l72 271c43.333 3.33301 93.666 16.333 150.999 39l23 -19l-289 -901c-52 -163.333 -121 -300 -207 -410c-116 -148.667 -234.667 -223 -356 -223
c-53.333 0 -96.666 19.667 -129.999 59c-25.333 29.333 -38 62.666 -38 99.999c0 10 0.666992 22.333 2 37z" />
    <glyph glyph-name="z" unicode="z" horiz-adv-x="909" 
d="M-2 43l721.999 820.001c-60 -32 -123.333 -48 -190 -48c-41.333 0 -96.333 7 -165 21c-36.667 7.33301 -67.667 11 -93 11c-23.333 0 -49.666 -3.66699 -78.999 -11l-62 -119h-43l66 250c47.333 14 89 21 125 21c26 0 68.333 -8 127 -24l36 -9
c107.333 -28.667 199 -43 275 -43c27.333 0 50.333 9.33301 69 28l48 48l18 -19l-12 -65l-694 -784c68 29.333 132.333 44 193 44c44 0 103.333 -8.33301 178 -25l36 -8c45.333 -10 78.666 -15 99.999 -15c40.667 0 67.334 17.333 80.001 52l45 123h45
c-20 -84.667 -40.333 -182.334 -61 -293.001c-48 -14 -81.667 -21 -101 -21c-52 0 -133 13.333 -243 40c-97.333 24 -168.666 36 -213.999 36c-68.667 0 -131.334 -21.667 -188.001 -65z" />
    <glyph glyph-name="braceleft" unicode="{" horiz-adv-x="682" 
d="M31 645c43.333 14 73.334 26.334 90.001 37.001c34.667 22 60.667 51.333 78 88c11.333 23.333 21 58 29 104l59 353c10.667 62 27 111.833 49 149.5s52 66.167 90 85.5c28.667 15.333 62.667 26 102 32c26.667 4 68.667 6.33301 126 7c-43.333 -12 -73.333 -23 -90 -33
c-37.333 -22 -66 -52 -86 -90c-16 -30 -28.333 -71 -37 -123l-62 -352c-8.66699 -49.333 -19 -88.5 -31 -117.5s-28 -53.5 -48 -73.5c-30 -28 -76 -50.333 -138 -67c49.333 -14.667 83.666 -32.334 102.999 -53.001c22.667 -25.333 34 -58 34 -98c0 -34.667 -4 -75 -12 -121
l-57 -332c-4.66699 -26 -7 -51.333 -7 -76c0 -66 20.333 -112.667 61 -140c16.667 -11.333 41.667 -21.333 75 -30c-92.667 2 -158 11.333 -196 28c-54 23.333 -81 75.333 -81 156c0 36.667 3.33301 75 10 115l56 320c6 35.333 9 67 9 95c0 44 -15 77.333 -45 100
c-16.667 12.667 -43.667 24.667 -81 36z" />
    <glyph glyph-name="bar" unicode="|" horiz-adv-x="1241" 
d="M563 0v1501h115v-1501h-115z" />
    <glyph glyph-name="braceright" unicode="}" horiz-adv-x="682" 
d="M652 651c-44 -14 -74.334 -26.335 -91.001 -37.002c-34 -21.333 -59.667 -50.666 -77 -87.999c-11.333 -22.667 -21 -57.334 -29 -104.001l-59 -352c-10.667 -62 -27.167 -111.833 -49.5 -149.5s-52.166 -66.5 -89.499 -86.5
c-28.667 -15.333 -62.667 -25.666 -102 -30.999c-27.333 -4 -69.333 -6.66699 -126 -8c42.667 12 72.667 23.333 90 34c36.667 21.333 65 51.333 85 90c16.667 30 29.334 70.667 38.001 122l61 352c8.66699 49.333 19 88.5 31 117.5s28.333 53.5 49 73.5
c29.333 28 75.333 50.333 138 67c-49.333 14.667 -83.666 32.667 -102.999 54c-22.667 24.667 -34 57.334 -34 98.001c0 36 4 76.333 12 121l57 331c4 23.333 6 47 6 71c0 69.333 -20.333 118 -61 146c-16.667 10.667 -41.334 20.334 -74.001 29.001
c92 -1.33301 157 -10.333 195 -27c54 -24 81 -77.333 81 -160c0 -36.667 -3.33301 -74 -10 -112l-55 -319c-6 -34.667 -9 -66.334 -9 -95.001c0 -44.667 14.667 -78 44 -100c17.333 -12.667 44.666 -25 81.999 -37z" />
    <glyph glyph-name="asciitilde" unicode="~" horiz-adv-x="1241" 
d="M1136 616c-41.333 -73.333 -80.333 -126.001 -117 -158.001c-56 -48 -111.333 -72 -166 -72c-44.667 0 -133.334 28 -266.001 84c-53.333 22 -88.333 36 -105 42c-32.667 11.333 -62.667 17 -90 17c-54 0 -101.333 -24 -142 -72
c-21.333 -25.333 -46.333 -62.666 -75 -111.999l-71 57c59.333 104 113.333 172 162 204c39.333 26.667 80 40 122 40c43.333 0 99 -13 167 -39l96 -40c102 -44 168.667 -66 200 -66c78.667 0 150.334 57 215.001 171z" />
    <glyph glyph-name="nbspace" unicode="&#xa0;" horiz-adv-x="512" 
 />
    <glyph glyph-name="exclamdown" unicode="&#xa1;" horiz-adv-x="682" 
d="M386 957c24.667 0 45.666 -8.66797 62.999 -26.001c18.667 -19.333 28 -43.333 28 -72c0 -42 -14.667 -78 -44 -108c-22 -22.667 -48.667 -34 -80 -34c-27.333 0 -49.333 8.33301 -66 25s-25 40.334 -25 71.001c0 44 14.667 80.667 44 110
c22.667 22.667 49.334 34 80.001 34zM227.999 -512.001l-174 -52.999l-23 18c72 279.333 156 631.666 252 1057l61 35l13 -6l-43 -315c-25.333 -182.667 -49 -379.667 -71 -591z" />
    <glyph glyph-name="cent" unicode="&#xa2;" 
d="M647 983l55.9971 144.998h67l-55 -145c49.333 -1.33301 96.333 -16.333 141 -45c-25.333 -109.333 -39.666 -196.666 -42.999 -261.999h-47v131c-1.33301 24.667 -31.333 47 -90 67l-299 -782c18 -6.66699 35.333 -10 52 -10c96.667 0 212.334 51 347.001 153l15 -41
l-123 -100c-95.333 -76 -206.666 -115 -333.999 -117l-70 -174h-65l71 193c-34.667 10 -60 22.667 -76 38c-52.667 50.667 -79 135 -79 253c0 115.333 26 233 78 353c38.667 90.667 90.667 159.334 156 206.001c110.667 78 210 123.667 298 137zM321.997 130.998
l286.001 754c-12 0.666992 -21 1 -27 1c-51.333 0 -98 -15.333 -140 -46c-26.667 -20 -46.667 -43 -60 -69c-38.667 -72.667 -70.334 -174 -95.001 -304c-12.667 -65.333 -19 -119.333 -19 -162c0 -72.667 18.333 -130.667 55 -174z" />
    <glyph glyph-name="sterling" unicode="&#xa3;" 
d="M977 326l-74.0039 -323.998c-33.333 -20.667 -73.333 -31 -120 -31c-23.333 0 -84.666 9 -183.999 27l-118 22l-14 3c-2.66699 0.666992 -4.66699 1 -6 1l-12 2l-13 3c-90 16 -156 24 -198 24c-29.333 0 -51.333 -2.33301 -66 -7
c-9.33301 -2.66699 -23 -11.334 -41 -26.001c-25.333 -19.333 -53.333 -38.333 -84 -57c-9.33301 4.66699 -18.333 14.334 -27 29.001c-9.33301 18.667 -14.666 39.667 -15.999 63c54 29.333 95 62.666 123 99.999c40.667 53.333 70.667 117.666 90 192.999
c12 55.333 27.667 159 47 311h-194l14 72h193c27.333 160.667 58.666 281.667 93.999 363c52 118 121.667 211 209 279c66.667 51.333 136.334 77 209.001 77c64.667 0 128.667 -19 192 -57c-23.333 -74.667 -36.333 -158 -39 -250h-47v110c0 19.333 -8 36.333 -24 51
c-38.667 36 -90.667 54 -156 54c-102.667 0 -167 -64.333 -193 -193l-10 -51l-64 -295l-20 -88h291l-14 -72h-293c-39.333 -152 -73.666 -264 -102.999 -336c-18 -43.333 -43.333 -89.333 -76 -138c-14 -20.667 -29.333 -38.667 -46 -54c68 20.667 125.667 31 173 31
c38 0 79 -3 123 -9l121 -18c40 -6 70.333 -8.66699 91 -8h60l24 -1c18.667 0 32.334 1.33301 41.001 4c27.333 8.66699 48.333 33 63 73l45 123h49z" />
    <glyph glyph-name="currency" unicode="&#xa4;" 
d="M29 1116l63 66l117 -115c89.333 74 190.333 111 303 111c113.333 0 214.333 -37 303 -111l117 115l64 -66l-115 -115c35.333 -40.667 60.666 -79.667 75.999 -117c22 -54.667 33 -113.334 33 -176.001c0 -103.333 -35 -200.666 -105 -291.999l111 -111l-64 -63l-112 108
c-50.667 -40.667 -98 -69 -142 -85c-51.333 -19.333 -106.666 -29 -165.999 -29c-58.667 0 -114 9.66699 -166 29c-44 16 -91 44.333 -141 85l-113 -108l-63 63l111 111c-70 91.333 -105 188.666 -105 291.999c0 62.667 11 121.334 33 176.001
c14.667 37.333 40 76.333 76 117zM509 1072c-103.333 0 -191.001 -36.001 -263.001 -108.001c-70 -69.333 -105 -154.666 -105 -255.999s35.333 -187 106 -257c72 -72.667 160.333 -109 265 -109c105.333 0 194 36.333 266 109c70.667 70 106 155.667 106 257
c0 79.333 -22.667 150.333 -68 213c-73.333 100.667 -175.666 151 -306.999 151z" />
    <glyph glyph-name="yen" unicode="&#xa5;" 
d="M553 416l-32.0029 -224.998c-4.66699 -30 -7 -54 -7 -72c0 -20.667 4 -35 12 -43c9.33301 -10.667 26.666 -17 51.999 -19l84 -6l-4 -56h-47l-180 5c-19.333 0 -64.666 -1 -135.999 -3l-94 -3l6 57l84 6c37.333 4 59 14.333 65 31
c8.66699 13.333 21.334 69.333 38.001 168l26 160h-235l12 70h233c2.66699 17.333 4 31.666 4 42.999c0 28.667 -4.66699 64 -14 106h-203l13 70h172l-19 86c-41.333 192.667 -80.666 325 -117.999 397c-35.333 68 -75 102 -119 102c-16 0 -40.667 -8 -74 -24v49
c37.333 30 79 68.667 125 116c38 -4.66699 67.333 -15.667 88 -33c86.667 -66.667 169.667 -315 249 -745c64.667 166.667 131.334 311.667 200.001 435c104 184.667 209 293.667 315 327l-8 -143c-38.667 -10.667 -71 -25.334 -97 -44.001
c-56.667 -40 -124 -130.333 -202 -271l-12 -22c-35.333 -66 -59.333 -113.333 -72 -142l-39 -88h196l-12 -70h-209c-12 -31.333 -22 -81 -30 -149h227l-12 -70h-226z" />
    <glyph glyph-name="brokenbar" unicode="&#xa6;" horiz-adv-x="1241" 
d="M563 0v600h115v-600h-115zM563 1501h115v-600h-115v600z" />
    <glyph glyph-name="section" unicode="&#xa7;" 
d="M133 -235c36.667 -42.667 72.002 -71.9971 106.002 -87.9971c45.333 -22 95.666 -33 150.999 -33c84 0 153.333 27.333 208 82c52 52 78 113.333 78 184c0 54.667 -16.333 100 -49 136c-28.667 30.667 -76.334 64.667 -143.001 102l-105 57
c-105.333 58 -177.333 109.333 -216 154c-41.333 48 -62 102.667 -62 164c0 70.667 23 134 69 190c30 36.667 81.333 81 154 133c-56 61.333 -84 118.666 -84 171.999c0 78.667 25.333 151.667 76 219c18.667 24.667 44.667 53 78 85s61.333 55 84 69
c58.667 36.667 128.667 55 210 55c100 0 187 -27.333 261 -82l-64 -264h-51l10 164c-60 60 -133.667 90 -221 90c-80.667 0 -146.667 -26 -198 -78c-45.333 -46 -68 -101 -68 -165c0 -72.667 31.333 -128.334 94 -167.001l252 -155c82 -51.333 134.667 -91 158 -119
c35.333 -42.667 53 -93.667 53 -153c0 -124.667 -73 -232 -219 -322c42.667 -38.667 71 -73 85 -103c12.667 -28.667 19 -61.334 19 -98.001c0 -109.333 -53.333 -213 -160 -311c-96.667 -88.667 -201 -133 -313 -133c-113.333 0 -212.333 35.333 -297 106l68 289l49 -4z
M363.002 817.003c-88.667 -73.333 -133 -149.002 -133 -227.002c0 -46.667 16.333 -88 49 -124c30.667 -35.333 75.667 -69.666 135 -102.999l238 -135c90 72.667 135 144.667 135 216c0 48.667 -17.667 93.334 -53 134.001c-24.667 28.667 -67 60.667 -127 96z" />
    <glyph glyph-name="dieresis" unicode="&#xa8;" horiz-adv-x="682" 
d="M264 1305c26 0 49.334 -10.333 70.001 -31c20.667 -20 31 -43.333 31 -70s-10.667 -51 -32 -73c-20.667 -20.667 -44.334 -31 -71.001 -31c-26 0 -49.333 10.333 -70 31c-21.333 22 -32 46.667 -32 74c0 36 16.667 64.333 50 85c16.667 10 34.667 15 54 15zM674.001 1305
c26 0 49.334 -10.333 70.001 -31c20.667 -20 31 -43.333 31 -70s-10.667 -51 -32 -73c-20.667 -20.667 -44.334 -31 -71.001 -31c-26 0 -49.333 10.333 -70 31c-21.333 22 -32 46.667 -32 74c0 36 16.667 64.333 50 85c16.667 10 34.667 15 54 15z" />
    <glyph glyph-name="copyright" unicode="&#xa9;" horiz-adv-x="1530" 
d="M770 1446c135.333 0 263.333 -37.335 384 -112.002c120 -73.333 211.333 -171.666 274 -294.999c53.333 -105.333 80 -216.666 80 -333.999c0 -98.667 -19 -193.334 -57 -284.001s-92 -171 -162 -241c-70 -69.333 -150.5 -122.833 -241.5 -160.5
s-185.833 -56.5 -284.5 -56.5c-203.333 0 -377.666 72.333 -522.999 217c-144.667 145.333 -217 320 -217 524c0 158.667 47.333 303.334 142 434.001c94.667 131.333 218 222 370 272c73.333 24 151.666 36 234.999 36zM755 1356
c-82.667 0 -163.002 -16.4971 -241.002 -49.4971s-147.333 -79.833 -208 -140.5c-62 -60.667 -109.667 -131.334 -143 -212.001s-50 -164.334 -50 -251.001c0 -178.667 63.667 -331.667 191 -459s280.333 -191 459 -191c180.667 0 335.334 64.333 464.001 193
c127.333 127.333 191 280.333 191 459c0 139.333 -41 265.666 -123 378.999c-83.333 115.333 -192.666 195 -327.999 239c-67.333 22 -138 33 -212 33zM1080 1069v-219.001h-53c-4 61.333 -17.667 108.333 -41 141c-38 52 -98 78 -180 78s-149.333 -26 -202 -78
c-66.667 -66 -100 -157 -100 -273c0 -124 37.667 -224 113 -300c50.667 -52 114 -78 190 -78c111.333 0 195 52.667 251 158l43 -19c-19.333 -40 -40 -71.333 -62 -94c-72 -72 -164 -108 -276 -108s-205 36.667 -279 110c-79.333 78.667 -119 182.334 -119 311.001
c0 126.667 38.667 228.667 116 306c78 78.667 181.333 118 310 118c82 0 178.333 -17.667 289 -53z" />
    <glyph glyph-name="ordfeminine" unicode="&#xaa;" horiz-adv-x="682" 
d="M653 1421l-119.999 -457.001c-1.33301 -5.33301 -2 -10.333 -2 -15c0 -24 8 -36 24 -36c8 0 16.333 2.33301 25 7c1.33301 1.33301 22 15.666 62 42.999l7 5l9 -24c-104.667 -78 -169.334 -117 -194.001 -117c-21.333 0 -32 14.667 -32 44
c0 16.667 2.66699 38.334 8 65.001l34 159c-56.667 -76 -102.334 -130.667 -137.001 -164c-50.667 -48 -98 -80.667 -142 -98c-10 -4 -18.667 -6 -26 -6c-12 0 -21.667 6.66699 -29 20c-11.333 19.333 -17 46.333 -17 81c0 38.667 7.5 88.667 22.5 150
s32.5 115.333 52.5 162c21.333 46.667 48.666 83.334 81.999 110.001c66.667 54 133.334 81 200.001 81c32.667 0 71.334 -7.33301 116.001 -22l43 22zM543.001 1349c-49.333 14.667 -88.335 21.998 -117.002 21.998c-43.333 0 -74.666 -10.333 -93.999 -31
c-13.333 -14 -27.666 -42.333 -42.999 -85l-34 -95c-24 -67.333 -36 -134.666 -36 -201.999c0 -28.667 7.33301 -43 22 -43c23.333 0 64.666 28.333 123.999 85c52.667 50 95.334 114.667 128.001 194c13.333 32.667 30 84.334 50 155.001z" />
    <glyph glyph-name="guillemotleft" unicode="&#xab;" 
d="M426 143l-309 371v33l397 354l39 -33l-280 -344l194 -350zM768 143l-309 371v33l397 354l39 -33l-280 -344l194 -350z" />
    <glyph glyph-name="logicalnot" unicode="&#xac;" horiz-adv-x="1241" 
d="M1021 242v417h-917v115h1032v-532h-115z" />
    <glyph glyph-name="sfthyphen" unicode="&#xad;" horiz-adv-x="682" 
d="M39 456l39 119h545l-37 -119h-547z" />
    <glyph glyph-name="registered" unicode="&#xae;" horiz-adv-x="1530" 
d="M770 1446c135.333 0 263.333 -37.335 384 -112.002c120 -73.333 211.333 -171.666 274 -294.999c53.333 -105.333 80 -216.666 80 -333.999c0 -98.667 -19 -193.334 -57 -284.001s-92 -171 -162 -241c-70 -69.333 -150.5 -122.833 -241.5 -160.5
s-185.833 -56.5 -284.5 -56.5c-203.333 0 -377.666 72.333 -522.999 217c-144.667 145.333 -217 320 -217 524c0 158.667 47.333 303.334 142 434.001c94.667 131.333 218 222 370 272c73.333 24 151.666 36 234.999 36zM755 1356
c-82.667 0 -163.002 -16.4971 -241.002 -49.4971s-147.333 -79.833 -208 -140.5c-62 -60.667 -109.667 -131.334 -143 -212.001s-50 -164.334 -50 -251.001c0 -178.667 63.667 -331.667 191 -459s280.333 -191 459 -191c180.667 0 335.334 64.333 464.001 193
c127.333 127.333 191 280.333 191 459c0 139.333 -41 265.666 -123 378.999c-83.333 115.333 -192.666 195 -327.999 239c-67.333 22 -138 33 -212 33zM419.998 1135l319.999 -0.000976562c114.667 0 196.334 -17.333 245.001 -52c48 -33.333 72 -83 72 -149
c0 -118 -78.333 -190.333 -235 -217c34 -8 60 -19.667 78 -35c37.333 -34 73.333 -93.333 108 -178l10 -24c23.333 -56 44.333 -91.333 63 -106c16.667 -12.667 40.667 -19 72 -19v-33h-55c-44 0 -73 1.66699 -87 5c-27.333 8 -50 25.333 -68 52
c-12 17.333 -31.667 59.333 -59 126l-25 61c-24 58.667 -46 94.667 -66 108c-19.333 14.667 -49.333 22 -90 22h-69v-263c0 -29.333 3 -48.666 9 -57.999c8 -12.667 24 -19 48 -19h43v-34h-312v33h33c28.667 0.666992 46.334 4.66699 53.001 12
c8 6.66699 12.333 23.667 13 51v621c-0.666992 24.667 -7.33398 41 -20.001 49c-10.667 8 -26 11.667 -46 11h-35v36zM633.997 737l55 0.000976562c169.333 0 254 61.333 254 184c0 53.333 -15 95 -45 125c-34 33.333 -83.333 50 -148 50h-59
c-20.667 0 -35 -4.33301 -43 -13c-9.33301 -8.66699 -14 -24.334 -14 -47.001v-299z" />
    <glyph glyph-name="overscore" unicode="&#xaf;" 
d="M0 1636h1024v-109h-1024v109z" />
    <glyph glyph-name="degree" unicode="&#xb0;" horiz-adv-x="819" 
d="M494 1411c63.333 0 121.999 -19.667 175.999 -59c54.667 -39.333 92.334 -91 113.001 -155c10 -30.667 15 -62 15 -94c0 -84.667 -30.333 -157 -91 -217c-60 -60 -132 -90 -216 -90c-84.667 0 -157 30 -217 90s-90 132.667 -90 218s29.333 157 88 215
c62 61.333 136 92 222 92zM486.999 1329c-60 0 -112.333 -22.667 -157 -68c-42.667 -42.667 -64 -94.667 -64 -156c0 -64 22 -117.667 66 -161c43.333 -44 96.333 -66 159 -66c84 0 148 36 192 108c22 36 33 75 33 117c0 63.333 -22.333 116.333 -67 159
c-46 44.667 -100 67 -162 67z" />
    <glyph glyph-name="plusminus" unicode="&#xb1;" horiz-adv-x="1241" 
d="M563 592v457h115v-457h458v-115h-458v-278h-115v278h-459v115h459zM1136 0h-1032v115h1032v-115z" />
    <glyph glyph-name="twosuperior" unicode="&#xb2;" horiz-adv-x="614" 
d="M193 1378c53.333 35.333 111.335 52.999 174.002 52.999c75.333 0 133.666 -20.667 174.999 -62c34.667 -35.333 52 -81.333 52 -138c0 -88.667 -39.333 -172 -118 -250l-328 -324h278c55.333 0 106 6 152 18l8 -22l-22 -84l-127 3
c-48.667 0.666992 -95.334 1 -140.001 1c-45.333 0 -92.666 -0.333008 -141.999 -1l-128 -3v43c105.333 104 193.666 196.333 264.999 277c114 128.667 171 237.334 171 326.001c0 80 -43.667 120 -131 120c-46 0 -84 -12.667 -114 -38c-20 -17.333 -42.667 -46.333 -68 -87
l-37 21z" />
    <glyph glyph-name="threesuperior" unicode="&#xb3;" horiz-adv-x="614" 
d="M57 613l36.998 177.999l45 -6c-4 -17.333 -6 -34.666 -6 -51.999c0 -80.667 52.333 -121 157 -121c49.333 0 91.666 18.333 126.999 55c52 52.667 78 114.667 78 186c0 46 -13 82.333 -39 109c-29.333 29.333 -72.666 44 -129.999 44c-26 0 -59.667 -7 -101 -21l-8 27
l22 61c16.667 -0.666992 27.334 -1 32.001 -1c14.667 -0.666992 24.667 -1 30 -1c46 0 86 12.333 120 37c48 34.667 72 81.334 72 140.001c0 24 -8 44 -24 60c-27.333 26 -62.333 39 -105 39c-52 0 -95.667 -23 -131 -69l-26 -35l-31 21l78 129c60.667 25.333 112 38 154 38
c68.667 0 123.334 -19.667 164.001 -59c26.667 -26 40 -59.333 40 -100c0 -48 -17.667 -90 -53 -126c-30 -30 -77.667 -60.667 -143 -92c70.667 -14 121 -34 151 -60c36.667 -32 55 -76 55 -132c0 -72.667 -27.667 -136.334 -83 -191.001
c-75.333 -74.667 -171 -112 -287 -112c-72.667 0 -137.667 18 -195 54z" />
    <glyph glyph-name="acute" unicode="&#xb4;" horiz-adv-x="682" 
d="M250 1061l313.001 309c25.333 24.667 47.666 37 66.999 37c24 0 45 -8.66699 63 -26c10.667 -10 16 -22.333 16 -37c0 -26.667 -19.333 -52 -58 -76l-331 -207h-70z" />
    <glyph glyph-name="mu" unicode="&#xb5;" horiz-adv-x="1139" 
d="M66 795l56.998 41.0029c142 101.333 232.667 152 272 152c30.667 0 46 -22 46 -66c0 -23.333 -3.66699 -52 -11 -86l-116 -555c-10 -46.667 -15 -82.667 -15 -108c0 -34.667 9 -52 27 -52c29.333 0 58.666 11 87.999 33c102.667 76 194 175.333 274 298
c64.667 99.333 113.334 231.333 146.001 396l20 105l140 35l14 -19c-65.333 -250.667 -122.666 -494.334 -171.999 -731.001l-3 -12c-6 -29.333 -9 -52.333 -9 -69c0 -24 8.66699 -36 26 -36c27.333 0 69 18.333 125 55l53 35l21 -37c-86.667 -64 -152 -109.667 -196 -137
c-60 -36.667 -104 -55 -132 -55c-40.667 0 -61 27 -61 81c0 32.667 8.66699 84.667 26 156l73 270c-53.333 -86.667 -114.666 -169.334 -183.999 -248.001c-94 -106.667 -177.333 -183 -250 -229c-37.333 -23.333 -66 -35 -86 -35c-6.66699 0 -18.667 2 -36 6l-10 3
l-15 -359c-0.666992 -26 -23 -47.667 -67 -65l-62 -25l-18 17l243 1211c3.33301 15.333 5 27.666 5 36.999c0 28 -12 42 -36 42c-14.667 0 -47 -16 -97 -48l-66 -42z" />
    <glyph glyph-name="paragraph" unicode="&#xb6;" 
d="M179 -397l61 0.00195312c34.667 0 58 4.33301 70 13c26 16.667 45.667 63.334 59 140.001l129 756c-48.667 7.33301 -89.5 18 -122.5 32s-67.5 36 -103.5 66c-62.667 51.333 -111.667 114.666 -147 189.999c-38 79.333 -57 165 -57 257c0 240 123 360 369 360l194 -4h118
l99 -2c30 0 118.333 1.33301 265 4l139 2l-10 -61h-48c-52.667 -0.666992 -87.667 -9 -105 -25c-22 -16.667 -38.667 -56.334 -50 -119.001l-256 -1493c-2 -10 -3 -20.667 -3 -32c0 -38.667 12 -63.334 36 -74.001c14.667 -6.66699 37.667 -10 69 -10h88l-10 -62l-149 3
c-124.667 2 -211.667 3 -261 3c-56 0 -146.333 -1.33301 -271 -4l-114 -2zM924 1345h-139l-301 -1732h139zM510 590.002l129 745c-49.333 6.66699 -87.666 10 -114.999 10c-78.667 0 -136.834 -27.167 -174.501 -81.5s-56.5 -138.833 -56.5 -253.5
c0 -153.333 32.333 -268.333 97 -345c31.333 -36.667 71.333 -61.667 120 -75z" />
    <glyph glyph-name="middot" unicode="&#xb7;" horiz-adv-x="512" 
d="M233 639c24.667 0 45.666 -8.66895 62.999 -26.002c18.667 -19.333 28 -43.333 28 -72c0 -42 -14.667 -78 -44 -108c-21.333 -22.667 -48 -34 -80 -34c-27.333 0 -49.333 8.33301 -66 25s-25 40.334 -25 71.001c0 44.667 14.667 81.334 44 110.001
c22.667 22.667 49.334 34 80.001 34z" />
    <glyph glyph-name="cedilla" unicode="&#xb8;" horiz-adv-x="682" 
d="M103 -213l-18.999 15.999l125 197h78l-90 -131c18.667 2.66699 34.334 4 47.001 4c48 0 87 -10.667 117 -32c35.333 -25.333 53 -62.333 53 -111c0 -58 -25.667 -102 -77 -132c-46.667 -27.333 -105.334 -41 -176.001 -41c-46.667 0 -106.334 14 -179.001 42l35 59
c59.333 -19.333 106.333 -29 141 -29c36 0 64 10 84 30c16.667 16.667 25 37.334 25 62.001c0 20 -6.66699 36.667 -20 50c-18.667 18.667 -44 28 -76 28c-14.667 0 -33 -2.66699 -55 -8z" />
    <glyph glyph-name="onesuperior" unicode="&#xb9;" horiz-adv-x="614" 
d="M559 1419l-7.00098 -28.002c-8.66699 -32.667 -16 -64.667 -22 -96l-107 -573c-2 -12 -3 -26 -3 -42c0 -16.667 3.66699 -29 11 -37c9.33301 -10 31.666 -16.333 66.999 -19l86 -6l-8 -49l-107 3c-38 0.666992 -77.667 1 -119 1s-80.666 -0.333008 -117.999 -1l-107 -3
l10 49l101 13c20.667 2.66699 35.334 10.334 44.001 23.001c6.66699 9.33301 13 29.333 19 60l111 615l-125 -51l-111 -49l-10 6l14 88c87.333 18.667 160.333 38.334 219 59.001l142 49z" />
    <glyph glyph-name="ordmasculine" unicode="&#xba;" horiz-adv-x="682" 
d="M483 1431c54 0 96 -15.001 126 -45.001c33.333 -33.333 50 -79.333 50 -138c0 -99.333 -28.667 -190.666 -86 -273.999c-32.667 -47.333 -75 -84.333 -127 -111c-47.333 -24 -94 -36 -140 -36c-52 0 -92.333 14.667 -121 44c-33.333 34 -50 84.333 -50 151
c0 60 11 117.833 33 173.5s52.333 103.167 91 142.5c61.333 62 136 93 224 93zM433 1384c-57.333 0 -103.667 -30.332 -139 -90.999c-39.333 -67.333 -59 -153.666 -59 -258.999c0 -106.667 41 -160 123 -160c56.667 0 103 31.333 139 94
c18 31.333 32.833 71.666 44.5 120.999s17.5 96.666 17.5 141.999c0 102 -42 153 -126 153z" />
    <glyph glyph-name="guillemotright" unicode="&#xbb;" 
d="M256 901l309 -371v-32l-397 -355l-39 33l280 344l-194 350zM598 901l309 -371v-32l-397 -355l-39 33l280 344l-194 350z" />
    <glyph glyph-name="onequarter" unicode="&#xbc;" horiz-adv-x="1536" 
d="M839 282l449 565.999l92 18l18 -14l-96 -545h156l6 -16l-23 -66c-23.333 3.33301 -46.333 5.33301 -69 6h-89l-14 -57c-5.33301 -22 -8 -45.667 -8 -71c0 -33.333 14.333 -50.666 43 -51.999l111 -6l-9 -49h-44c-2.66699 0 -22.667 0.666992 -60 2
c-22.667 1.33301 -61 2 -115 2l-176 -4h-45l6 49l105 6c23.333 2 40.333 9.66699 51 23c8 10 15.333 27.667 22 53l27 104h-338v51zM915 305.999h280l100 485zM497 1419l-7.00098 -28.002c-8.66699 -32.667 -16 -64.667 -22 -96l-107 -573c-2 -12 -3 -26 -3 -42
c0 -16.667 3.66699 -29 11 -37c9.33301 -10 31.666 -16.333 66.999 -19l86 -6l-8 -49l-107 3c-38 0.666992 -77.667 1 -119 1s-80.666 -0.333008 -117.999 -1l-107 -3l10 49l101 13c20.667 2.66699 35.334 10.334 44.001 23.001c6.66699 9.33301 13 29.333 19 60l111 615
l-125 -51l-111 -49l-10 6l14 88c87.333 18.667 160.333 38.334 219 59.001l142 49zM429.999 -0.00292969h-115l924 1432h114z" />
    <glyph glyph-name="onehalf" unicode="&#xbd;" horiz-adv-x="1536" 
d="M380 0h-114l923 1432h115zM497 1419l-7.00098 -28.002c-8.66699 -32.667 -16 -64.667 -22 -96l-107 -573c-2 -12 -3 -26 -3 -42c0 -16.667 3.66699 -29 11 -37c9.33301 -10 31.666 -16.333 66.999 -19l86 -6l-8 -49l-107 3c-38 0.666992 -77.667 1 -119 1
s-80.666 -0.333008 -117.999 -1l-107 -3l10 49l101 13c20.667 2.66699 35.334 10.334 44.001 23.001c6.66699 9.33301 13 29.333 19 60l111 615l-125 -51l-111 -49l-10 6l14 88c87.333 18.667 160.333 38.334 219 59.001l142 49zM1075 804.998
c53.333 35.333 111.334 52.999 174.001 52.999c75.333 0 133.666 -20.667 174.999 -62c34.667 -35.333 52 -81.333 52 -138c0 -88.667 -39.667 -172 -119 -250l-327 -324h278c55.333 0 106 6 152 18l8 -22l-22 -84h-54c-3.33301 0 -27.666 0.666992 -72.999 2
c-27.333 1.33301 -74 2 -140 2l-216 -4h-54v43c106 104.667 194.333 197 265 277c114 128.667 171 237.334 171 326.001c0 80 -43.667 120 -131 120c-46 0 -84 -12.667 -114 -38c-20.667 -17.333 -43.334 -46.333 -68.001 -87l-37 20z" />
    <glyph glyph-name="threequarters" unicode="&#xbe;" horiz-adv-x="1536" 
d="M72 613l36.998 177.999l45 -6c-4 -17.333 -6 -34.666 -6 -51.999c0 -80.667 52.333 -121 157 -121c49.333 0 91.666 18.333 126.999 55c52 52.667 78 114.667 78 186c0 46 -13 82.333 -39 109c-29.333 29.333 -72.666 44 -129.999 44c-26 0 -59.667 -7 -101 -21l-8 27
l22 61c16.667 -0.666992 27.334 -1 32.001 -1c14.667 -0.666992 24.667 -1 30 -1c46 0 86 12.333 120 37c48 34.667 72 81.334 72 140.001c0 24 -8 44 -24 60c-27.333 26 -62.333 39 -105 39c-52 0 -95.667 -23 -131 -69l-26 -35l-31 21l78 129c60.667 25.333 112 38 154 38
c68.667 0 123.334 -19.667 164.001 -59c26.667 -26 40 -59.333 40 -100c0 -48 -17.667 -90 -53 -126c-30 -30 -77.667 -60.667 -143 -92c70.667 -14 121 -34 151 -60c36.667 -32 55 -76 55 -132c0 -72.667 -27.667 -136.334 -83 -191.001
c-75.333 -74.667 -171 -112 -287 -112c-72.667 0 -137.667 18 -195 54zM429.998 -0.000976562h-114l923 1432h115zM839.998 281.999l448.998 565.999l92 18l18 -14l-96 -545h155l7 -16l-23 -66c-23.333 3.33301 -46.666 5.33301 -69.999 6h-88l-14 -57
c-5.33301 -21.333 -8 -45 -8 -71c0 -33.333 14.333 -50.666 43 -51.999l110 -6l-8 -49h-44c-2.66699 0 -22.667 0.666992 -60 2c-22.667 1.33301 -61 2 -115 2l-176 -4h-45l6 49l105 6c23.333 2 40 9.66699 50 23c8.66699 10 16.334 27.667 23.001 53l27 104h-338v51z
M915.996 305.998h280l100 485z" />
    <glyph glyph-name="questiondown" unicode="&#xbf;" 
d="M711 -215l45.0029 -12.001c-4.66699 -14.667 -14.334 -38.334 -29.001 -71.001l-53 -130c-82.667 -50.667 -161 -76 -235 -76c-106.667 0 -190.334 30.333 -251.001 91c-47.333 47.333 -71 108.333 -71 183c0 60.667 15.667 118 47 172c22 38 57 80 105 126l213 204
c45.333 44 73.666 77 84.999 99c11.333 20.667 17 40.334 17 59.001c0 31.333 -18.333 66.333 -55 105l51 12c52 -33.333 78 -76.333 78 -129c0 -66.667 -37.667 -142.667 -113 -228l-143 -161c-78 -88 -117 -167.667 -117 -239c0 -45.333 16.667 -84.666 50 -117.999
c37.333 -37.333 88.333 -56 153 -56c42 0 77 8 105 24c23.333 14 49 42 77 84zM667.003 956.999c24.667 0 45.332 -8.66797 61.999 -26.001c19.333 -19.333 29 -43.333 29 -72c0 -42 -14.667 -78 -44 -108c-22 -22.667 -48.667 -34 -80 -34
c-27.333 0 -49.333 8.33301 -66 25s-25 40.334 -25 71.001c0 44 14.667 80.667 44 110c22.667 22.667 49.334 34 80.001 34z" />
    <glyph glyph-name="Agrave" unicode="&#xc0;" horiz-adv-x="1479" 
d="M946 1444l93.998 -0.000976562l178 -1280c4.66699 -35.333 12.334 -61.333 23.001 -78c6.66699 -12 37.334 -21.667 92.001 -29l53 -6v-57c-126 4 -209 6 -249 6s-123.333 -2 -250 -6v57l90 6c58.667 4 88 22.667 88 56c0 11.333 -1.66699 26.333 -5 45
c-1.33301 10 -2.33301 18 -3 24l-51 385h-504l-209 -358c-35.333 -61.333 -53 -99 -53 -113c0 -8.66699 6 -17 18 -25c12.667 -8 27.667 -12.667 45 -14l107 -6v-57c-111.333 4 -184.333 6 -219 6c-37.333 0 -114 -2 -230 -6v61l41 11c36.667 9.33301 66.667 25 90 47
c28.667 26.667 58.667 65.334 90 116.001zM918.998 1230l-366 -589h442zM1107 1491l-331.999 207c-38 24 -57 49.333 -57 76c0 14.667 5.33301 27 16 37c18 17.333 39 26 63 26c19.333 0 41.666 -12.333 66.999 -37l313 -309h-70z" />
    <glyph glyph-name="Aacute" unicode="&#xc1;" horiz-adv-x="1479" 
d="M946 1444l93.998 -0.000976562l178 -1280c4.66699 -35.333 12.334 -61.333 23.001 -78c6.66699 -12 37.334 -21.667 92.001 -29l53 -6v-57c-126 4 -209 6 -249 6s-123.333 -2 -250 -6v57l90 6c58.667 4 88 22.667 88 56c0 11.333 -1.66699 26.333 -5 45
c-1.33301 10 -2.33301 18 -3 24l-51 385h-504l-209 -358c-35.333 -61.333 -53 -99 -53 -113c0 -8.66699 6 -17 18 -25c12.667 -8 27.667 -12.667 45 -14l107 -6v-57c-111.333 4 -184.333 6 -219 6c-37.333 0 -114 -2 -230 -6v61l41 11c36.667 9.33301 66.667 25 90 47
c28.667 26.667 58.667 65.334 90 116.001zM918.998 1230l-366 -589h442zM804.998 1491l313.001 309c25.333 24.667 47.666 37 66.999 37c24 0 45 -8.66699 63 -26c10.667 -10 16 -22.333 16 -37c0 -26.667 -19.333 -52 -58 -76l-331 -207h-70z" />
    <glyph glyph-name="Acircumflex" unicode="&#xc2;" horiz-adv-x="1479" 
d="M946 1444l93.998 -0.000976562l178 -1280c4.66699 -35.333 12.334 -61.333 23.001 -78c6.66699 -12 37.334 -21.667 92.001 -29l53 -6v-57c-126 4 -209 6 -249 6s-123.333 -2 -250 -6v57l90 6c58.667 4 88 22.667 88 56c0 11.333 -1.66699 26.333 -5 45
c-1.33301 10 -2.33301 18 -3 24l-51 385h-504l-209 -358c-35.333 -61.333 -53 -99 -53 -113c0 -8.66699 6 -17 18 -25c12.667 -8 27.667 -12.667 45 -14l107 -6v-57c-111.333 4 -184.333 6 -219 6c-37.333 0 -114 -2 -230 -6v61l41 11c36.667 9.33301 66.667 25 90 47
c28.667 26.667 58.667 65.334 90 116.001zM918.998 1230l-366 -589h442zM1111 1821l180 -346h-74l-168 213l-280 -213h-80l322 346h100z" />
    <glyph glyph-name="Atilde" unicode="&#xc3;" horiz-adv-x="1479" 
d="M946 1444l93.998 -0.000976562l178 -1280c4.66699 -35.333 12.334 -61.333 23.001 -78c6.66699 -12 37.334 -21.667 92.001 -29l53 -6v-57c-126 4 -209 6 -249 6s-123.333 -2 -250 -6v57l90 6c58.667 4 88 22.667 88 56c0 11.333 -1.66699 26.333 -5 45
c-1.33301 10 -2.33301 18 -3 24l-51 385h-504l-209 -358c-35.333 -61.333 -53 -99 -53 -113c0 -8.66699 6 -17 18 -25c12.667 -8 27.667 -12.667 45 -14l107 -6v-57c-111.333 4 -184.333 6 -219 6c-37.333 0 -114 -2 -230 -6v61l41 11c36.667 9.33301 66.667 25 90 47
c28.667 26.667 58.667 65.334 90 116.001zM918.998 1230l-366 -589h442zM720.998 1563h-59.002c18 66 40 115 66 147c34 42.667 79.333 64 136 64c37.333 0 80 -9.66699 128 -29l123 -49c16.667 -6.66699 34.667 -10 54 -10c22.667 0 41.667 6.66699 57 20
c12 11.333 28 34 48 68h58c-10.667 -56 -28.667 -101 -54 -135c-37.333 -50.667 -85.333 -76 -144 -76c-32.667 0 -76.667 11 -132 33l-78 31l-5 1l-14 6c-31.333 12.667 -57 19 -77 19c-23.333 0 -42.666 -5.33301 -57.999 -16c-15.333 -11.333 -31.666 -36 -48.999 -74z
" />
    <glyph glyph-name="Adieresis" unicode="&#xc4;" horiz-adv-x="1479" 
d="M946 1444l93.998 -0.000976562l178 -1280c4.66699 -35.333 12.334 -61.333 23.001 -78c6.66699 -12 37.334 -21.667 92.001 -29l53 -6v-57c-126 4 -209 6 -249 6s-123.333 -2 -250 -6v57l90 6c58.667 4 88 22.667 88 56c0 11.333 -1.66699 26.333 -5 45
c-1.33301 10 -2.33301 18 -3 24l-51 385h-504l-209 -358c-35.333 -61.333 -53 -99 -53 -113c0 -8.66699 6 -17 18 -25c12.667 -8 27.667 -12.667 45 -14l107 -6v-57c-111.333 4 -184.333 6 -219 6c-37.333 0 -114 -2 -230 -6v61l41 11c36.667 9.33301 66.667 25 90 47
c28.667 26.667 58.667 65.334 90 116.001zM918.998 1230l-366 -589h442zM785.998 1735c26 0 49.334 -10.333 70.001 -31c20.667 -20 31 -43.333 31 -70s-10.667 -51 -32 -73c-20.667 -20.667 -44.334 -31 -71.001 -31c-26 0 -49.333 10.333 -70 31
c-21.333 22 -32 46.667 -32 74c0 36 16.667 64 50 84c16.667 10.667 34.667 16 54 16zM1196 1735c26 0 49.334 -10.333 70.001 -31c20.667 -20 31 -43.333 31 -70s-10.667 -51 -32 -73c-20.667 -20.667 -44.334 -31 -71.001 -31c-26 0 -49.333 10.333 -70 31
c-21.333 22 -32 46.667 -32 74c0 36 16.667 64 50 84c16.667 10.667 34.667 16 54 16z" />
    <glyph glyph-name="Aring" unicode="&#xc5;" horiz-adv-x="1479" 
d="M946 1444l93.998 -0.000976562l178 -1280c4.66699 -35.333 12.334 -61.333 23.001 -78c6.66699 -12 37.334 -21.667 92.001 -29l53 -6v-57c-126 4 -209 6 -249 6s-123.333 -2 -250 -6v57l90 6c58.667 4 88 22.667 88 56c0 11.333 -1.66699 26.333 -5 45
c-1.33301 10 -2.33301 18 -3 24l-51 385h-504l-209 -358c-35.333 -61.333 -53 -99 -53 -113c0 -8.66699 6 -17 18 -25c12.667 -8 27.667 -12.667 45 -14l107 -6v-57c-111.333 4 -184.333 6 -219 6c-37.333 0 -114 -2 -230 -6v61l41 11c36.667 9.33301 66.667 25 90 47
c28.667 26.667 58.667 65.334 90 116.001zM918.998 1230l-366 -589h442zM1014 1920c56 0 104.333 -20.666 145 -61.999c38.667 -38.667 58 -86.334 58 -143.001s-19.333 -104.334 -58 -143.001c-40.667 -41.333 -89.667 -62 -147 -62s-106.333 20.667 -147 62
c-38.667 38.667 -58 86.334 -58 143.001c0 76 32 134 96 174c33.333 20.667 70.333 31 111 31zM1011 1846c-36.667 0 -66.665 -11.668 -89.998 -35.001c-24 -23.333 -36 -55.333 -36 -96s12 -73 36 -97c23.333 -22.667 53.666 -34 90.999 -34s67.666 11.333 90.999 34
c24 24 36 56.333 36 97c0 52.667 -19 90.334 -57 113.001c-20 12 -43.667 18 -71 18z" />
    <glyph glyph-name="AE" unicode="&#xc6;" horiz-adv-x="1927" 
d="M996 571h-455l-65 -106l-156 -264c-0.666992 -1.33301 -3.66699 -6.33301 -9 -15c-21.333 -34.667 -32 -60 -32 -76c0 -36.667 41.667 -55 125 -55h49v-61l-156 5c-16 0.666992 -37.333 1 -64 1c-26 0 -73.333 -1 -142 -3l-99 -3v61l70 10c22.667 3.33301 47 24 73 62
l754 1116c18 26.667 27 51.334 27 74.001c0 9.33301 -6.33301 17.333 -19 24c-17.333 10 -36.333 15 -57 15h-135v61l124 -2c159.333 -2.66699 283.666 -4 372.999 -4c66.667 0 127.334 0.333008 182.001 1l244 4l79 1c48 0 95 -2 141 -6
c-22 -76.667 -36.333 -180.334 -43 -311.001h-49l-17 182c-0.666992 9.33301 -7.66699 17.333 -21 24c-32.667 16.667 -88.667 25 -168 25c-25.333 0 -110.333 -2.66699 -255 -8c-7.33301 -14.667 -13.666 -36.667 -18.999 -66l-86 -487h35c153.333 0 303 4 449 12l8 -14
l-39 -92l-54 2c-82.667 3.33301 -154.667 5.33301 -216 6h-199l-88 -518c-2.66699 -16.667 -4 -37.667 -4 -63v-9l53 -5c70.667 -6 129.334 -9 176.001 -9c49.333 0 107.666 2 174.999 6s109.666 8 126.999 12c24 6 42.333 18.333 55 37c10 14.667 19.333 38.667 28 72
l33 123h55l-10 -54c-18 -95.333 -29 -163 -33 -203l-8 -73l-68 -2c-66 -2.66699 -114.333 -4 -145 -4c-25.333 0 -87.666 1 -186.999 3c-109.333 2 -189 3 -239 3c-63.333 0 -137.333 -1.33301 -222 -4l-85 -2l10 53c39.333 6.66699 67.666 15 84.999 25
c18 10.667 30 31.667 36 63zM594 653h414l111 688h-29c-18.667 -1.33301 -44 -25.333 -76 -72z" />
    <glyph glyph-name="Ccedilla" unicode="&#xc7;" horiz-adv-x="1366" 
d="M685 -37l-64.998 -94c20.667 2.66699 36 4 46 4c48.667 0 88 -10.667 118 -32c35.333 -25.333 53 -62.333 53 -111c0 -57.333 -25.667 -101.333 -77 -132c-46 -26.667 -104.667 -40 -176 -40c-46.667 0 -106.334 13.667 -179.001 41l35 59
c59.333 -18.667 106.333 -28 141 -28c36 0 64 10 84 30c16.667 16.667 25 37.334 25 62.001c0 19.333 -6.66699 35.666 -20 48.999c-18.667 18.667 -44 28 -76 28c-14 0 -36.667 -4 -68 -12l-19 17l105 164l-7 1c-148 14.667 -266.333 66 -355 154
c-105.333 105.333 -158 258 -158 458c0 316.667 120.667 556 362 718c147.333 98 307 147 479 147c119.333 0 252.666 -28 399.999 -84c-28 -89.333 -46.667 -189 -56 -299h-55v172c-50 32.667 -96 55.667 -138 69c-71.333 22.667 -147.333 34 -228 34
c-163.333 0 -293 -49 -389 -147c-55.333 -56.667 -97.666 -121.667 -126.999 -195c-45.333 -114 -68 -235 -68 -363c0 -191.333 48 -336 144 -434c83.333 -84.667 201.333 -127 354 -127c68.667 0 134 8.66699 196 26c69.333 20 156.666 62.333 261.999 127l21 -14l-21 -74
c-160 -114.667 -335.667 -172.667 -527 -174h-9h-7z" />
    <glyph glyph-name="Egrave" unicode="&#xc8;" horiz-adv-x="1251" 
d="M452 684l-87.999 -518.003c-2.66699 -16.667 -4 -37.667 -4 -63v-9c108 -9.33301 197.667 -14 269 -14c148 0 249 6.33301 303 19c24 5.33301 42.333 17.333 55 36c10 14 19.333 38 28 72l33 123h55l-10 -54c-18 -95.333 -29 -162.666 -33 -201.999l-8 -74l-68 -2
c-76 -3.33301 -132 -4.66602 -168 -3.99902l-440 6c-61.333 0.666992 -138.333 -0.666016 -231 -3.99902l-84 -2l10 53c46 8 76.667 16 92 24c17.333 10 27.666 24 30.999 42l178 1032c12.667 72 19 124.333 19 157c0 34 -24 52 -72 54l-111 4l7 57l91 -3
c88 -2 167 -3 237 -3c60 0 113.333 0.333008 160 1l244 4c46.667 0.666992 73 1 79 1c47.333 0 94.333 -2 141 -6c-22 -77.333 -36.333 -181 -43 -311h-49l-17 182c-2.66699 32.667 -76 49 -220 49c-43.333 0 -99.333 -1.33301 -168 -4l-97 -4
c-7.33301 -14.667 -13.333 -36.667 -18 -66l-86 -487h75c153.333 0 303 4 449 12l8 -14l-39 -92l-54 2c-84 4 -156 6 -216 6h-240zM929.001 1491l-331.999 207c-38 24 -57 49.333 -57 76c0 14.667 5.33301 27 16 37c18 17.333 39 26 63 26
c19.333 0 41.666 -12.333 66.999 -37l313 -309h-70z" />
    <glyph glyph-name="Eacute" unicode="&#xc9;" horiz-adv-x="1251" 
d="M452 684l-87.999 -518.003c-2.66699 -16.667 -4 -37.667 -4 -63v-9c108 -9.33301 197.667 -14 269 -14c148 0 249 6.33301 303 19c24 5.33301 42.333 17.333 55 36c10 14 19.333 38 28 72l33 123h55l-10 -54c-18 -95.333 -29 -162.666 -33 -201.999l-8 -74l-68 -2
c-76 -3.33301 -132 -4.66602 -168 -3.99902l-440 6c-61.333 0.666992 -138.333 -0.666016 -231 -3.99902l-84 -2l10 53c46 8 76.667 16 92 24c17.333 10 27.666 24 30.999 42l178 1032c12.667 72 19 124.333 19 157c0 34 -24 52 -72 54l-111 4l7 57l91 -3
c88 -2 167 -3 237 -3c60 0 113.333 0.333008 160 1l244 4c46.667 0.666992 73 1 79 1c47.333 0 94.333 -2 141 -6c-22 -77.333 -36.333 -181 -43 -311h-49l-17 182c-2.66699 32.667 -76 49 -220 49c-43.333 0 -99.333 -1.33301 -168 -4l-97 -4
c-7.33301 -14.667 -13.333 -36.667 -18 -66l-86 -487h75c153.333 0 303 4 449 12l8 -14l-39 -92l-54 2c-84 4 -156 6 -216 6h-240zM562.001 1491l313.001 309c25.333 24.667 47.666 37 66.999 37c24 0 45 -8.66699 63 -26c10.667 -10 16 -22.333 16 -37
c0 -26.667 -19.333 -52 -58 -76l-331 -207h-70z" />
    <glyph glyph-name="Ecircumflex" unicode="&#xca;" horiz-adv-x="1251" 
d="M452 684l-87.999 -518.003c-2.66699 -16.667 -4 -37.667 -4 -63v-9c108 -9.33301 197.667 -14 269 -14c148 0 249 6.33301 303 19c24 5.33301 42.333 17.333 55 36c10 14 19.333 38 28 72l33 123h55l-10 -54c-18 -95.333 -29 -162.666 -33 -201.999l-8 -74l-68 -2
c-76 -3.33301 -132 -4.66602 -168 -3.99902l-440 6c-61.333 0.666992 -138.333 -0.666016 -231 -3.99902l-84 -2l10 53c46 8 76.667 16 92 24c17.333 10 27.666 24 30.999 42l178 1032c12.667 72 19 124.333 19 157c0 34 -24 52 -72 54l-111 4l7 57l91 -3
c88 -2 167 -3 237 -3c60 0 113.333 0.333008 160 1l244 4c46.667 0.666992 73 1 79 1c47.333 0 94.333 -2 141 -6c-22 -77.333 -36.333 -181 -43 -311h-49l-17 182c-2.66699 32.667 -76 49 -220 49c-43.333 0 -99.333 -1.33301 -168 -4l-97 -4
c-7.33301 -14.667 -13.333 -36.667 -18 -66l-86 -487h75c153.333 0 303 4 449 12l8 -14l-39 -92l-54 2c-84 4 -156 6 -216 6h-240zM846.001 1821l180 -346h-74l-168 213l-280 -213h-80l322 346h100z" />
    <glyph glyph-name="Edieresis" unicode="&#xcb;" horiz-adv-x="1251" 
d="M452 684l-87.999 -518.003c-2.66699 -16.667 -4 -37.667 -4 -63v-9c108 -9.33301 197.667 -14 269 -14c148 0 249 6.33301 303 19c24 5.33301 42.333 17.333 55 36c10 14 19.333 38 28 72l33 123h55l-10 -54c-18 -95.333 -29 -162.666 -33 -201.999l-8 -74l-68 -2
c-76 -3.33301 -132 -4.66602 -168 -3.99902l-440 6c-61.333 0.666992 -138.333 -0.666016 -231 -3.99902l-84 -2l10 53c46 8 76.667 16 92 24c17.333 10 27.666 24 30.999 42l178 1032c12.667 72 19 124.333 19 157c0 34 -24 52 -72 54l-111 4l7 57l91 -3
c88 -2 167 -3 237 -3c60 0 113.333 0.333008 160 1l244 4c46.667 0.666992 73 1 79 1c47.333 0 94.333 -2 141 -6c-22 -77.333 -36.333 -181 -43 -311h-49l-17 182c-2.66699 32.667 -76 49 -220 49c-43.333 0 -99.333 -1.33301 -168 -4l-97 -4
c-7.33301 -14.667 -13.333 -36.667 -18 -66l-86 -487h75c153.333 0 303 4 449 12l8 -14l-39 -92l-54 2c-84 4 -156 6 -216 6h-240zM554.001 1735c26 0 49.334 -10.333 70.001 -31c20.667 -20 31 -43.333 31 -70s-10.667 -51 -32 -73
c-20.667 -20.667 -44.334 -31 -71.001 -31c-26 0 -49.333 10.333 -70 31c-21.333 22 -32 46.667 -32 74c0 36 16.667 64 50 84c16.667 10.667 34.667 16 54 16zM963.002 1735c26 0 49.668 -10.333 71.001 -31c20 -20 30 -43.333 30 -70s-10.667 -51 -32 -73
c-20.667 -20.667 -44.334 -31 -71.001 -31c-26 0 -49.333 10.333 -70 31c-21.333 22 -32 46.667 -32 74c0 36 16.667 64 50 84c16.667 10.667 34.667 16 54 16z" />
    <glyph glyph-name="Igrave" unicode="&#xcc;" horiz-adv-x="682" 
d="M211 1360l5.99902 56.9971l131 -3c73.333 -2 121.333 -3 144 -3l214 6h19l-6 -57l-72 -7c-45.333 -4.66699 -73.333 -15 -84 -31c-7.33301 -10 -14.333 -32.333 -21 -67l-183 -1095c-2 -12.667 -3 -27 -3 -43c0 -18 4 -31.333 12 -40
c10.667 -11.333 31.334 -18 62.001 -20l106 -6l-6 -56h-65l-193 5l-193 -5h-65l6 56l74 6c42 4.66699 66.667 13.334 74 26.001c14 20.667 29 78.334 45 173.001l147 889c12.667 75.333 19 128 19 158c0 32.667 -24 50.334 -72 53.001zM571.999 1491l-331.999 207
c-38 24 -57 49.333 -57 76c0 14.667 5.33301 27 16 37c18 17.333 39 26 63 26c19.333 0 41.666 -12.333 66.999 -37l313 -309h-70z" />
    <glyph glyph-name="Iacute" unicode="&#xcd;" horiz-adv-x="682" 
d="M211 1360l5.99902 56.9971l131 -3c73.333 -2 121.333 -3 144 -3l214 6h19l-6 -57l-72 -7c-45.333 -4.66699 -73.333 -15 -84 -31c-7.33301 -10 -14.333 -32.333 -21 -67l-183 -1095c-2 -12.667 -3 -27 -3 -43c0 -18 4 -31.333 12 -40
c10.667 -11.333 31.334 -18 62.001 -20l106 -6l-6 -56h-65l-193 5l-193 -5h-65l6 56l74 6c42 4.66699 66.667 13.334 74 26.001c14 20.667 29 78.334 45 173.001l147 889c12.667 75.333 19 128 19 158c0 32.667 -24 50.334 -72 53.001zM371.999 1491l313.001 309
c25.333 24.667 47.666 37 66.999 37c24 0 45 -8.66699 63 -26c10.667 -10 16 -22.333 16 -37c0 -26.667 -19.333 -52 -58 -76l-331 -207h-70z" />
    <glyph glyph-name="Icircumflex" unicode="&#xce;" horiz-adv-x="682" 
d="M211 1360l5.99902 56.9971l131 -3c73.333 -2 121.333 -3 144 -3l214 6h19l-6 -57l-72 -7c-45.333 -4.66699 -73.333 -15 -84 -31c-7.33301 -10 -14.333 -32.333 -21 -67l-183 -1095c-2 -12.667 -3 -27 -3 -43c0 -18 4 -31.333 12 -40
c10.667 -11.333 31.334 -18 62.001 -20l106 -6l-6 -56h-65l-193 5l-193 -5h-65l6 56l74 6c42 4.66699 66.667 13.334 74 26.001c14 20.667 29 78.334 45 173.001l147 889c12.667 75.333 19 128 19 158c0 32.667 -24 50.334 -72 53.001zM617.999 1821l180 -346h-74l-168 213
l-280 -213h-80l322 346h100z" />
    <glyph glyph-name="Idieresis" unicode="&#xcf;" horiz-adv-x="682" 
d="M211 1360l5.99902 56.9971l131 -3c73.333 -2 121.333 -3 144 -3l214 6h19l-6 -57l-72 -7c-45.333 -4.66699 -73.333 -15 -84 -31c-7.33301 -10 -14.333 -32.333 -21 -67l-183 -1095c-2 -12.667 -3 -27 -3 -43c0 -18 4 -31.333 12 -40
c10.667 -11.333 31.334 -18 62.001 -20l106 -6l-6 -56h-65l-193 5l-193 -5h-65l6 56l74 6c42 4.66699 66.667 13.334 74 26.001c14 20.667 29 78.334 45 173.001l147 889c12.667 75.333 19 128 19 158c0 32.667 -24 50.334 -72 53.001zM303.999 1735
c26 0 49.668 -10.333 71.001 -31c20 -20 30 -43.333 30 -70s-10.667 -51 -32 -73c-20.667 -20.667 -44.334 -31 -71.001 -31c-26 0 -49.333 10.333 -70 31c-21.333 22 -32 46.667 -32 74c0 35.333 16.667 63.333 50 84c16.667 10.667 34.667 16 54 16zM714 1735
c26 0 49.334 -10.333 70.001 -31c20.667 -20 31 -43.333 31 -70s-10.667 -51 -32 -73c-20.667 -20.667 -44.334 -31 -71.001 -31c-26 0 -49.333 10.333 -70 31c-21.333 22 -32 46.667 -32 74c0 36 16.667 64 50 84c16.667 10.667 34.667 16 54 16z" />
    <glyph glyph-name="Eth" unicode="&#xd0;" horiz-adv-x="1593" 
d="M291 774l63 371.001c12.667 72 19 124.333 19 157c0 34 -24 52 -72 54l-108 4l6 57c145.333 -4 229.333 -6 252 -6l417 6c96 1.33301 185.667 -7.16699 269 -25.5s148 -43.833 194 -76.5c124.667 -89.333 187 -233.333 187 -432c0 -259.333 -98 -479 -294 -659
c-107.333 -98.667 -218 -165.334 -332 -200.001c-67.333 -20 -149 -30 -245 -30l-287 6h-65l-35 1h-12l-191 -7l11 54c4.66699 0.666992 9.66699 1.66699 15 3c34 7.33301 57 15.333 69 24c13.333 9.33301 21.333 22 24 38l103 595h-240l12 66h240zM549 1331l-94 -557h383
l-13 -66h-383l-90 -517c-5.33301 -31.333 -8 -56.666 -8 -75.999c132.667 -20.667 242.667 -31 330 -31c180.667 0 327 56.667 439 170c62.667 63.333 111 137 145 221c48 118.667 72 243.667 72 375c0 161.333 -39.333 281.333 -118 360
c-88.667 87.333 -230.334 131 -425.001 131c-36 0 -83 -1.66699 -141 -5c-41.333 -2.66699 -73.666 -4.33398 -96.999 -5.00098z" />
    <glyph glyph-name="Ntilde" unicode="&#xd1;" horiz-adv-x="1593" 
d="M485 1417l706 -1205l165 1001c6.66699 42 10 73.333 10 94c0 30.667 -24.667 47 -74 49l-96 4l10 57h40l176 -6l181 6h43l-10 -57l-76 -4c-36 -2.66699 -57.667 -10 -65 -22c-15.333 -17.333 -34.333 -92 -57 -224l-193 -1133h-102l-692 1184l-164 -952
c-4 -21.333 -6 -41.666 -6 -60.999c0 -32.667 5.33301 -54.667 16 -66c11.333 -13.333 39.333 -21.666 84 -24.999l86 -6l-10 -57c-132.667 4.66699 -208 6.66699 -226 6l-227 -6l10 57l64 6c36 4 59.667 13.667 71 29c14 19.333 27 60.333 39 123l181 971
c4 22.667 6 35.334 6 38.001l2 10c1.33301 6.66699 2 11.334 2 14.001c0 12 -12.333 30.667 -37 56c-34.667 36 -77 55.333 -127 58l-72 4l11 57c52.667 -2 91.667 -3.66699 117 -5h28l14 -1h6zM710 1563h-59.002c18 66 40 115 66 147c34 42.667 79.333 64 136 64
c37.333 0 80 -9.66699 128 -29l123 -49c16.667 -6.66699 34.667 -10 54 -10c22.667 0 41.667 6.66699 57 20c12 11.333 28 34 48 68h58c-10.667 -56 -28.667 -101 -54 -135c-37.333 -50.667 -85.333 -76 -144 -76c-32.667 0 -76.667 11 -132 33l-78 31l-5 1l-14 6
c-31.333 12.667 -57 19 -77 19c-23.333 0 -42.666 -5.33301 -57.999 -16c-15.333 -11.333 -31.666 -36 -48.999 -74z" />
    <glyph glyph-name="Ograve" unicode="&#xd2;" horiz-adv-x="1593" 
d="M959 1446c178.667 0 320.333 -52.002 425 -156.002c98.667 -97.333 148 -236.666 148 -417.999c0 -208 -58.333 -394.333 -175 -559c-107.333 -150.667 -246.333 -253.667 -417 -309c-84 -27.333 -173.667 -41 -269 -41c-183.333 0 -320.666 46.667 -411.999 140
c-100 102.667 -150 253.334 -150 452.001c0 270.667 84 488 252 652c163.333 159.333 362.666 239 597.999 239zM877.999 1360c-148 0 -270 -48.333 -366 -145c-61.333 -61.333 -108.666 -134 -141.999 -218c-54 -135.333 -81 -278.333 -81 -429
c0 -346 149.667 -519 449 -519c160.667 0 291.667 52 393 156c63.333 64 111.666 139 144.999 225c50.667 129.333 76 265.333 76 408c0 348 -158 522 -474 522zM1086 1491l-331.999 207c-38 24 -57 49.333 -57 76c0 14.667 5.33301 27 16 37c18 17.333 39 26 63 26
c19.333 0 41.666 -12.333 66.999 -37l313 -309h-70z" />
    <glyph glyph-name="Oacute" unicode="&#xd3;" horiz-adv-x="1593" 
d="M959 1446c178.667 0 320.333 -52.002 425 -156.002c98.667 -97.333 148 -236.666 148 -417.999c0 -208 -58.333 -394.333 -175 -559c-107.333 -150.667 -246.333 -253.667 -417 -309c-84 -27.333 -173.667 -41 -269 -41c-183.333 0 -320.666 46.667 -411.999 140
c-100 102.667 -150 253.334 -150 452.001c0 270.667 84 488 252 652c163.333 159.333 362.666 239 597.999 239zM877.999 1360c-148 0 -270 -48.333 -366 -145c-61.333 -61.333 -108.666 -134 -141.999 -218c-54 -135.333 -81 -278.333 -81 -429
c0 -346 149.667 -519 449 -519c160.667 0 291.667 52 393 156c63.333 64 111.666 139 144.999 225c50.667 129.333 76 265.333 76 408c0 348 -158 522 -474 522zM822.999 1491l313.001 309c25.333 24.667 47.666 37 66.999 37c24 0 45 -8.66699 63 -26
c10.667 -10 16 -22.333 16 -37c0 -26.667 -19.333 -52 -58 -76l-331 -207h-70z" />
    <glyph glyph-name="Ocircumflex" unicode="&#xd4;" horiz-adv-x="1593" 
d="M959 1446c178.667 0 320.333 -52.002 425 -156.002c98.667 -97.333 148 -236.666 148 -417.999c0 -208 -58.333 -394.333 -175 -559c-107.333 -150.667 -246.333 -253.667 -417 -309c-84 -27.333 -173.667 -41 -269 -41c-183.333 0 -320.666 46.667 -411.999 140
c-100 102.667 -150 253.334 -150 452.001c0 270.667 84 488 252 652c163.333 159.333 362.666 239 597.999 239zM877.999 1360c-148 0 -270 -48.333 -366 -145c-61.333 -61.333 -108.666 -134 -141.999 -218c-54 -135.333 -81 -278.333 -81 -429
c0 -346 149.667 -519 449 -519c160.667 0 291.667 52 393 156c63.333 64 111.666 139 144.999 225c50.667 129.333 76 265.333 76 408c0 348 -158 522 -474 522zM1072 1821l180 -346h-74l-168 213l-280 -213h-80l322 346h100z" />
    <glyph glyph-name="Otilde" unicode="&#xd5;" horiz-adv-x="1593" 
d="M959 1446c178.667 0 320.333 -52.002 425 -156.002c98.667 -97.333 148 -236.666 148 -417.999c0 -208 -58.333 -394.333 -175 -559c-107.333 -150.667 -246.333 -253.667 -417 -309c-84 -27.333 -173.667 -41 -269 -41c-183.333 0 -320.666 46.667 -411.999 140
c-100 102.667 -150 253.334 -150 452.001c0 270.667 84 488 252 652c163.333 159.333 362.666 239 597.999 239zM877.999 1360c-148 0 -270 -48.333 -366 -145c-61.333 -61.333 -108.666 -134 -141.999 -218c-54 -135.333 -81 -278.333 -81 -429
c0 -346 149.667 -519 449 -519c160.667 0 291.667 52 393 156c63.333 64 111.666 139 144.999 225c50.667 129.333 76 265.333 76 408c0 348 -158 522 -474 522zM731.999 1563h-59.002c18 66 40 115 66 147c34 42.667 79.333 64 136 64c37.333 0 80 -9.66699 128 -29
l123 -49c16.667 -6.66699 34.667 -10 54 -10c22.667 0 41.667 6.66699 57 20c12 11.333 28 34 48 68h58c-10.667 -56 -28.667 -101 -54 -135c-37.333 -50.667 -85.333 -76 -144 -76c-32.667 0 -76.667 11 -132 33l-78 31l-5 1l-14 6c-31.333 12.667 -57 19 -77 19
c-23.333 0 -42.666 -5.33301 -57.999 -16c-15.333 -11.333 -31.666 -36 -48.999 -74z" />
    <glyph glyph-name="Odieresis" unicode="&#xd6;" horiz-adv-x="1593" 
d="M959 1446c178.667 0 320.333 -52.002 425 -156.002c98.667 -97.333 148 -236.666 148 -417.999c0 -208 -58.333 -394.333 -175 -559c-107.333 -150.667 -246.333 -253.667 -417 -309c-84 -27.333 -173.667 -41 -269 -41c-183.333 0 -320.666 46.667 -411.999 140
c-100 102.667 -150 253.334 -150 452.001c0 270.667 84 488 252 652c163.333 159.333 362.666 239 597.999 239zM877.999 1360c-148 0 -270 -48.333 -366 -145c-61.333 -61.333 -108.666 -134 -141.999 -218c-54 -135.333 -81 -278.333 -81 -429
c0 -346 149.667 -519 449 -519c160.667 0 291.667 52 393 156c63.333 64 111.666 139 144.999 225c50.667 129.333 76 265.333 76 408c0 348 -158 522 -474 522zM789.999 1735c26 0 49.334 -10.333 70.001 -31c20.667 -20 31 -43.333 31 -70s-10.667 -51 -32 -73
c-20.667 -20.667 -44.334 -31 -71.001 -31c-26 0 -49.333 10.333 -70 31c-21.333 22 -32 46.667 -32 74c0 36 16.667 64 50 84c16.667 10.667 34.667 16 54 16zM1200 1735c26 0 49.334 -10.333 70.001 -31c20.667 -20 31 -43.333 31 -70s-10.667 -51 -32 -73
c-20.667 -20.667 -44.334 -31 -71.001 -31c-26 0 -49.333 10.333 -70 31c-21.333 22 -32 46.667 -32 74c0 36 16.667 64 50 84c16.667 10.667 34.667 16 54 16z" />
    <glyph glyph-name="multiply" unicode="&#xd7;" horiz-adv-x="1241" 
d="M539 523l-369 368l84 80l367 -366l366 366l84 -80l-371 -368l371 -369l-84 -80l-366 367l-367 -367l-84 80z" />
    <glyph glyph-name="Oslash" unicode="&#xd8;" horiz-adv-x="1593" 
d="M1409 1261c41.333 -50.667 70.001 -97.666 86.001 -140.999c24.667 -66 37 -144.333 37 -235c0 -216.667 -58.333 -407.334 -175 -572.001c-107.333 -150.667 -246.666 -253.667 -417.999 -309c-83.333 -27.333 -171.333 -41 -264 -41c-94.667 0 -180 14 -256 42
c-44.667 16 -92.667 43.667 -144 83l-152 -168l-57 49l160 170c-36.667 53.333 -62.334 101.666 -77.001 144.999c-26.667 78.667 -40 170.334 -40 275.001c0 264 84 480 252 648c159.333 159.333 355 239 587 239c88.667 0 170.667 -13.333 246 -40
c49.333 -17.333 102.666 -47 159.999 -89l148 159l59 -53zM1278 1161l-889.998 -962.002c41.333 -48 83.333 -82.333 126 -103c64.667 -31.333 140 -47 226 -47c159.333 0 289.666 52 390.999 156c63.333 64.667 111.666 139.667 144.999 225c50.667 130.667 76 269 76 415
c0 76.667 -7.66699 142.334 -23 197.001c-9.33301 34.667 -26.333 74.334 -51 119.001zM345.003 267.999l888 961c-49.333 44.667 -95.333 76 -138 94c-61.333 24.667 -131 37 -209 37c-154 0 -278.667 -48.333 -374 -145c-62 -62.667 -109.333 -135.334 -142 -218.001
c-54 -136 -81 -280.667 -81 -434c0 -111.333 18.667 -209.666 56 -294.999z" />
    <glyph glyph-name="Ugrave" unicode="&#xd9;" horiz-adv-x="1593" 
d="M1628 1360l-74 -7.00293c-45.333 -4 -73.333 -14.333 -84 -31c-8 -11.333 -14.667 -33.666 -20 -66.999l-173 -1039c-9.33301 -54 -14 -92 -14 -114c0 -25.333 22 -39.666 66 -42.999l123 -8l-10 -57l-66 3c-53.333 2 -89 3 -107 3l-140 -5h-44l-10 9
c22.667 94 41 180.667 55 260c-62.667 -70.667 -117.667 -123 -165 -157c-134.667 -96 -268.334 -144 -401.001 -144c-120 0 -213.667 33 -281 99c-56.667 55.333 -85 133.333 -85 234c0 34.667 4.33301 76.667 13 126l131 768c9.33301 55.333 14 95 14 119
c0 17.333 -5.33301 29.333 -16 36c-9.33301 6 -27.333 9.66699 -54 11l-106 4l6 57l65 -3c56.667 -2 96.667 -3 120 -3c24.667 0 64.334 1 119.001 3l63 3l-180 -977c-10 -52 -15 -93.333 -15 -124c0 -65.333 20 -118 60 -158c53.333 -52 128.333 -78 225 -78
c76.667 0 154 19.667 232 59c71.333 35.333 134.333 81 189 137c17.333 18.667 42 47.334 74 86.001l146 912c1.33301 8 2 16 2 24c0 36.667 -24 56 -72 58l-98 4l6 57l129 -3c78 -2 128 -3 150 -3l201 6h32zM1103 1491l-331.999 207c-38 24 -57 49.333 -57 76
c0 14.667 5.33301 27 16 37c18 17.333 39 26 63 26c19.333 0 41.666 -12.333 66.999 -37l313 -309h-70z" />
    <glyph glyph-name="Uacute" unicode="&#xda;" horiz-adv-x="1593" 
d="M1628 1360l-74 -7.00293c-45.333 -4 -73.333 -14.333 -84 -31c-8 -11.333 -14.667 -33.666 -20 -66.999l-173 -1039c-9.33301 -54 -14 -92 -14 -114c0 -25.333 22 -39.666 66 -42.999l123 -8l-10 -57l-66 3c-53.333 2 -89 3 -107 3l-140 -5h-44l-10 9
c22.667 94 41 180.667 55 260c-62.667 -70.667 -117.667 -123 -165 -157c-134.667 -96 -268.334 -144 -401.001 -144c-120 0 -213.667 33 -281 99c-56.667 55.333 -85 133.333 -85 234c0 34.667 4.33301 76.667 13 126l131 768c9.33301 55.333 14 95 14 119
c0 17.333 -5.33301 29.333 -16 36c-9.33301 6 -27.333 9.66699 -54 11l-106 4l6 57l65 -3c56.667 -2 96.667 -3 120 -3c24.667 0 64.334 1 119.001 3l63 3l-180 -977c-10 -52 -15 -93.333 -15 -124c0 -65.333 20 -118 60 -158c53.333 -52 128.333 -78 225 -78
c76.667 0 154 19.667 232 59c71.333 35.333 134.333 81 189 137c17.333 18.667 42 47.334 74 86.001l146 912c1.33301 8 2 16 2 24c0 36.667 -24 56 -72 58l-98 4l6 57l129 -3c78 -2 128 -3 150 -3l201 6h32zM826 1491l313.001 309c25.333 24.667 47.666 37 66.999 37
c24 0 45 -8.66699 63 -26c10.667 -10 16 -22.333 16 -37c0 -26.667 -19.333 -52 -58 -76l-331 -207h-70z" />
    <glyph glyph-name="Ucircumflex" unicode="&#xdb;" horiz-adv-x="1593" 
d="M1628 1360l-74 -7.00293c-45.333 -4 -73.333 -14.333 -84 -31c-8 -11.333 -14.667 -33.666 -20 -66.999l-173 -1039c-9.33301 -54 -14 -92 -14 -114c0 -25.333 22 -39.666 66 -42.999l123 -8l-10 -57l-66 3c-53.333 2 -89 3 -107 3l-140 -5h-44l-10 9
c22.667 94 41 180.667 55 260c-62.667 -70.667 -117.667 -123 -165 -157c-134.667 -96 -268.334 -144 -401.001 -144c-120 0 -213.667 33 -281 99c-56.667 55.333 -85 133.333 -85 234c0 34.667 4.33301 76.667 13 126l131 768c9.33301 55.333 14 95 14 119
c0 17.333 -5.33301 29.333 -16 36c-9.33301 6 -27.333 9.66699 -54 11l-106 4l6 57l65 -3c56.667 -2 96.667 -3 120 -3c24.667 0 64.334 1 119.001 3l63 3l-180 -977c-10 -52 -15 -93.333 -15 -124c0 -65.333 20 -118 60 -158c53.333 -52 128.333 -78 225 -78
c76.667 0 154 19.667 232 59c71.333 35.333 134.333 81 189 137c17.333 18.667 42 47.334 74 86.001l146 912c1.33301 8 2 16 2 24c0 36.667 -24 56 -72 58l-98 4l6 57l129 -3c78 -2 128 -3 150 -3l201 6h32zM1096 1821l180 -346h-74l-168 213l-280 -213h-80l322 346h100z
" />
    <glyph glyph-name="Udieresis" unicode="&#xdc;" horiz-adv-x="1593" 
d="M1628 1360l-74 -7.00293c-45.333 -4 -73.333 -14.333 -84 -31c-8 -11.333 -14.667 -33.666 -20 -66.999l-173 -1039c-9.33301 -54 -14 -92 -14 -114c0 -25.333 22 -39.666 66 -42.999l123 -8l-10 -57l-66 3c-53.333 2 -89 3 -107 3l-140 -5h-44l-10 9
c22.667 94 41 180.667 55 260c-62.667 -70.667 -117.667 -123 -165 -157c-134.667 -96 -268.334 -144 -401.001 -144c-120 0 -213.667 33 -281 99c-56.667 55.333 -85 133.333 -85 234c0 34.667 4.33301 76.667 13 126l131 768c9.33301 55.333 14 95 14 119
c0 17.333 -5.33301 29.333 -16 36c-9.33301 6 -27.333 9.66699 -54 11l-106 4l6 57l65 -3c56.667 -2 96.667 -3 120 -3c24.667 0 64.334 1 119.001 3l63 3l-180 -977c-10 -52 -15 -93.333 -15 -124c0 -65.333 20 -118 60 -158c53.333 -52 128.333 -78 225 -78
c76.667 0 154 19.667 232 59c71.333 35.333 134.333 81 189 137c17.333 18.667 42 47.334 74 86.001l146 912c1.33301 8 2 16 2 24c0 36.667 -24 56 -72 58l-98 4l6 57l129 -3c78 -2 128 -3 150 -3l201 6h32zM757 1735c26 0 49.668 -10.333 71.001 -31
c20 -20 30 -43.333 30 -70s-10.667 -51 -32 -73c-20.667 -20.667 -44.334 -31 -71.001 -31c-26 0 -49.333 10.333 -70 31c-21.333 22 -32 46.667 -32 74c0 35.333 16.667 63.333 50 84c16.667 10.667 34.667 16 54 16zM1167 1735c26 0 49.668 -10.333 71.001 -31
c20 -20 30 -43.333 30 -70s-10.667 -51 -32 -73c-20.667 -20.667 -44.334 -31 -71.001 -31c-26 0 -49.333 10.333 -70 31c-21.333 22 -32 46.667 -32 74c0 35.333 16.667 63.333 50 84c16.667 10.667 34.667 16 54 16z" />
    <glyph glyph-name="Yacute" unicode="&#xdd;" horiz-adv-x="1366" 
d="M106 1325l31.9971 22.002c50.667 34.667 91.334 64.667 122.001 90l8 7c56.667 -5.33301 99.334 -19 128.001 -41c74.667 -57.333 142.334 -182 203.001 -374c44 -140 80.333 -271.333 109 -394c54.667 145.333 142 299.666 262 462.999
c94.667 125.333 179.667 212.333 255 261c42.667 27.333 95 50 157 68l-12 -145c-50.667 -10.667 -91.667 -24.667 -123 -42c-90 -48.667 -197.667 -167.667 -323 -357c-49.333 -75.333 -90.666 -147.333 -123.999 -216s-53 -123 -59 -163l-54 -344
c-2 -11.333 -3 -25.666 -3 -42.999c0 -18 4 -31.333 12 -40c10.667 -11.333 31 -18 61 -20l101 -6l-7 -56h-54l-214 5c-24 0 -77.333 -1 -160 -3l-108 -3l8 57l98 6c43.333 4 69 14.333 77 31c12 18 26 74 42 168l43 258c0.666992 3.33301 1 6.66602 1 9.99902
c0 26.667 -13.167 86.667 -39.5 180s-55.833 183.666 -88.5 270.999c-44 120 -84.333 203.333 -121 250c-39.333 50 -83 75 -131 75c-20.667 0 -51.334 -8 -92.001 -24zM697.997 1491l313.001 309c25.333 24.667 47.666 37 66.999 37c24 0 45 -8.66699 63 -26
c10.667 -10 16 -22.333 16 -37c0 -26.667 -19.333 -52 -58 -76l-331 -207h-70z" />
    <glyph glyph-name="Thorn" unicode="&#xde;" horiz-adv-x="1251" 
d="M530 1024c-16 -70 -26.335 -116.331 -31.002 -138.998l-119 -695c-5.33301 -32.667 -8 -56.667 -8 -72c0 -18.667 4 -32.334 12 -41.001c11.333 -12 32 -18.667 62 -20l133 -6l-6 -57l-109 3c-82.667 2 -141 3 -175 3c-37.333 0 -99 -1.33301 -185 -4l-86 -2l8 57l84 6
c43.333 4.66699 69 15 77 31c11.333 17.333 25.333 73.333 42 168l151 889c12.667 72.667 19 125 19 157c0 33.333 -24 51.333 -72 54l-96 4l6 57l132 -3c72.667 -2 120.334 -3 143.001 -3l199 6h48l-6 -57l-86 -7c-44 -3.33301 -71.333 -13.333 -82 -30
c-8 -10 -15.333 -32.667 -22 -68l-27 -145c86.667 0 143.667 0.666992 171 2c48.667 1.33301 82.667 2 102 2c98 0 177.667 -21 239 -63c79.333 -55.333 119 -142.333 119 -261c0 -131.333 -46.333 -243.333 -139 -336c-92.667 -94 -205.667 -141 -339 -141
c-63.333 0 -124.666 14.333 -183.999 43l-8 66c53.333 -24.667 107 -37 161 -37c101.333 0 179.333 27.667 234 83c63.333 63.333 95 153.666 95 270.999c0 101.333 -24.333 176.333 -73 225c-52 50.667 -131 76 -237 76c-31.333 0 -80.333 -5.33301 -147 -16z" />
    <glyph glyph-name="germandbls" unicode="&#xdf;" 
d="M227 784l-166.001 -0.000976562l8 45l115 47c42.667 18 65.334 32.333 68.001 43l30 166c12.667 68 31.334 118.667 56.001 152c26 36 75 79.333 147 130c63.333 44.667 127.666 79.334 192.999 104.001c53.333 20 96 30 128 30c50 0 95 -20 135 -60
c38.667 -39.333 58 -88.333 58 -147c0 -64 -17.667 -127.667 -53 -191c-24.667 -44 -65.667 -100.333 -123 -169c-32.667 -39.333 -55.667 -70.666 -69 -93.999c-15.333 -25.333 -23 -51.333 -23 -78c0 -39.333 26.667 -105.666 80 -198.999l36 -64
c42.667 -75.333 64 -129.333 64 -162c0 -72 -32.667 -145 -98 -219c-90 -100.667 -177.667 -151 -263 -151c-49.333 0 -102.333 14.333 -159 43c9.33301 31.333 18.166 67.833 26.499 109.5s13.833 78.167 16.5 109.5h41v-114c36.667 -38.667 81.334 -58 134.001 -58
c46 0 85.333 16.333 118 49c34 34 51 79.667 51 137c0 38 -9.66699 75.667 -29 113l-110 215c-23.333 45.333 -35 81.666 -35 108.999c0 31.333 21.667 77.333 65 138l17 23l18 27l18 26c66.667 93.333 108.334 162 125.001 206s25 85 25 123c0 40 -12 77.333 -36 112
c-32 45.333 -78.333 68 -139 68c-84.667 0 -150.667 -38.333 -198 -115c-19.333 -31.333 -37 -80.333 -53 -147c-13.333 -56 -36.333 -167 -69 -333c-0.666992 -2.66699 -2 -9.66699 -4 -21c-1.33301 -6.66699 -2 -11 -2 -13l-148 -694c-33.333 -156 -73 -277.333 -119 -364
c-68 -126.667 -153.333 -213.334 -256 -260.001c-32 -14 -66.333 -21 -103 -21c-26.667 0 -51 2.66699 -73 8c17.333 47.333 32.333 104 45 170l23 4c34.667 -40.667 71 -61 109 -61c46.667 0 89 25.667 127 77c18.667 26 38.167 72.333 58.5 139s38.166 142.667 53.499 228
z" />
    <glyph glyph-name="agrave" unicode="&#xe0;" horiz-adv-x="909" 
d="M823 967l-188 -775.998c-2 -8 -3 -15.667 -3 -23c0 -31.333 10.333 -47 31 -47c27.333 0 69.666 24.667 126.999 74l27 22l14 -43c-154.667 -128.667 -254 -193 -298 -193c-33.333 0 -50 23.667 -50 71c0 33.333 4 68.666 12 105.999l59 261
c-103.333 -146.667 -195 -255.667 -275 -327c-86 -76.667 -153 -115 -201 -115c-17.333 0 -31.666 10.333 -42.999 31c-18 31.333 -27 73.666 -27 126.999c0 82 14.5 178.167 43.5 288.5s65.833 211.166 110.5 302.499c36 72 87 129.333 153 172
c50 32.667 94.667 56.334 134 71.001c34 12.667 71.333 19 112 19c47.333 0 105.333 -13 174 -39l68 36zM653 848.002c-76 26 -134.333 38.999 -175 38.999c-63.333 0 -112 -20.667 -146 -62c-33.333 -40.667 -71.333 -132.667 -114 -276c-42 -139.333 -63 -255 -63 -347
c0 -54 12 -81 36 -81c41.333 0 99.666 41 174.999 123c86 92 149 182 189 270c26 55.333 48 118 66 188c24.667 96.667 35.334 145.334 32.001 146.001zM700 1061l-331.999 207.001c-38 23.333 -57 48.666 -57 75.999c0 14.667 5.33301 27 16 37c18 17.333 39 26 63 26
c19.333 0 41.666 -12.333 66.999 -37l313 -309h-70z" />
    <glyph glyph-name="aacute" unicode="&#xe1;" horiz-adv-x="909" 
d="M823 967l-188 -775.998c-2 -8 -3 -15.667 -3 -23c0 -31.333 10.333 -47 31 -47c27.333 0 69.666 24.667 126.999 74l27 22l14 -43c-154.667 -128.667 -254 -193 -298 -193c-33.333 0 -50 23.667 -50 71c0 33.333 4 68.666 12 105.999l59 261
c-103.333 -146.667 -195 -255.667 -275 -327c-86 -76.667 -153 -115 -201 -115c-17.333 0 -31.666 10.333 -42.999 31c-18 31.333 -27 73.666 -27 126.999c0 82 14.5 178.167 43.5 288.5s65.833 211.166 110.5 302.499c36 72 87 129.333 153 172
c50 32.667 94.667 56.334 134 71.001c34 12.667 71.333 19 112 19c47.333 0 105.333 -13 174 -39l68 36zM653 848.002c-76 26 -134.333 38.999 -175 38.999c-63.333 0 -112 -20.667 -146 -62c-33.333 -40.667 -71.333 -132.667 -114 -276c-42 -139.333 -63 -255 -63 -347
c0 -54 12 -81 36 -81c41.333 0 99.666 41 174.999 123c86 92 149 182 189 270c26 55.333 48 118 66 188c24.667 96.667 35.334 145.334 32.001 146.001zM458 1061l313.001 309c25.333 24.667 47.666 37 66.999 37c24 0 45 -8.66699 63 -26c10.667 -10 16 -22.333 16 -37
c0 -26.667 -19.333 -52 -58 -76l-331 -207h-70z" />
    <glyph glyph-name="acircumflex" unicode="&#xe2;" horiz-adv-x="909" 
d="M823 967l-188 -775.998c-2 -8 -3 -15.667 -3 -23c0 -31.333 10.333 -47 31 -47c27.333 0 69.666 24.667 126.999 74l27 22l14 -43c-154.667 -128.667 -254 -193 -298 -193c-33.333 0 -50 23.667 -50 71c0 33.333 4 68.666 12 105.999l59 261
c-103.333 -146.667 -195 -255.667 -275 -327c-86 -76.667 -153 -115 -201 -115c-17.333 0 -31.666 10.333 -42.999 31c-18 31.333 -27 73.666 -27 126.999c0 82 14.5 178.167 43.5 288.5s65.833 211.166 110.5 302.499c36 72 87 129.333 153 172
c50 32.667 94.667 56.334 134 71.001c34 12.667 71.333 19 112 19c47.333 0 105.333 -13 174 -39l68 36zM653 848.002c-76 26 -134.333 38.999 -175 38.999c-63.333 0 -112 -20.667 -146 -62c-33.333 -40.667 -71.333 -132.667 -114 -276c-42 -139.333 -63 -255 -63 -347
c0 -54 12 -81 36 -81c41.333 0 99.666 41 174.999 123c86 92 149 182 189 270c26 55.333 48 118 66 188c24.667 96.667 35.334 145.334 32.001 146.001zM650 1391l180 -347h-74l-168 213l-280 -213h-80l322 347h100z" />
    <glyph glyph-name="atilde" unicode="&#xe3;" horiz-adv-x="909" 
d="M823 967l-188 -775.998c-2 -8 -3 -15.667 -3 -23c0 -31.333 10.333 -47 31 -47c27.333 0 69.666 24.667 126.999 74l27 22l14 -43c-154.667 -128.667 -254 -193 -298 -193c-33.333 0 -50 23.667 -50 71c0 33.333 4 68.666 12 105.999l59 261
c-103.333 -146.667 -195 -255.667 -275 -327c-86 -76.667 -153 -115 -201 -115c-17.333 0 -31.666 10.333 -42.999 31c-18 31.333 -27 73.666 -27 126.999c0 82 14.5 178.167 43.5 288.5s65.833 211.166 110.5 302.499c36 72 87 129.333 153 172
c50 32.667 94.667 56.334 134 71.001c34 12.667 71.333 19 112 19c47.333 0 105.333 -13 174 -39l68 36zM653 848.002c-76 26 -134.333 38.999 -175 38.999c-63.333 0 -112 -20.667 -146 -62c-33.333 -40.667 -71.333 -132.667 -114 -276c-42 -139.333 -63 -255 -63 -347
c0 -54 12 -81 36 -81c41.333 0 99.666 41 174.999 123c86 92 149 182 189 270c26 55.333 48 118 66 188c24.667 96.667 35.334 145.334 32.001 146.001zM303 1096h-59.002c18 66 40 115 66 147c34 42.667 79.333 64 136 64c37.333 0 80 -9.66699 128 -29l123 -49
c16.667 -6.66699 34.667 -10 54 -10c22.667 0 41.667 6.66699 57 20c12.667 11.333 28.667 34 48 68h58c-10.667 -56 -28.667 -101 -54 -135c-37.333 -50.667 -85.333 -76 -144 -76c-32.667 0 -76.667 11 -132 33l-78 30l-5 2c-1.33301 0.666992 -6 2.66699 -14 6
c-31.333 12.667 -57 19 -77 19c-23.333 0 -42.666 -5.33301 -57.999 -16c-15.333 -11.333 -31.666 -36 -48.999 -74z" />
    <glyph glyph-name="adieresis" unicode="&#xe4;" horiz-adv-x="909" 
d="M823 967l-188 -775.998c-2 -8 -3 -15.667 -3 -23c0 -31.333 10.333 -47 31 -47c27.333 0 69.666 24.667 126.999 74l27 22l14 -43c-154.667 -128.667 -254 -193 -298 -193c-33.333 0 -50 23.667 -50 71c0 33.333 4 68.666 12 105.999l59 261
c-103.333 -146.667 -195 -255.667 -275 -327c-86 -76.667 -153 -115 -201 -115c-17.333 0 -31.666 10.333 -42.999 31c-18 31.333 -27 73.666 -27 126.999c0 82 14.5 178.167 43.5 288.5s65.833 211.166 110.5 302.499c36 72 87 129.333 153 172
c50 32.667 94.667 56.334 134 71.001c34 12.667 71.333 19 112 19c47.333 0 105.333 -13 174 -39l68 36zM653 848.002c-76 26 -134.333 38.999 -175 38.999c-63.333 0 -112 -20.667 -146 -62c-33.333 -40.667 -71.333 -132.667 -114 -276c-42 -139.333 -63 -255 -63 -347
c0 -54 12 -81 36 -81c41.333 0 99.666 41 174.999 123c86 92 149 182 189 270c26 55.333 48 118 66 188c24.667 96.667 35.334 145.334 32.001 146.001zM378 1305c26 0 49.334 -10.333 70.001 -31c20.667 -20 31 -43.333 31 -70s-10.667 -51 -32 -73
c-20.667 -20.667 -44.334 -31 -71.001 -31c-26 0 -49.333 10.333 -70 31c-21.333 22 -32 46.667 -32 74c0 36 16.667 64.333 50 85c16.667 10 34.667 15 54 15zM788.001 1305c26 0 49.334 -10.333 70.001 -31c20.667 -20 31 -43.333 31 -70s-10.667 -51 -32 -73
c-20.667 -20.667 -44.334 -31 -71.001 -31c-26 0 -49.333 10.333 -70 31c-21.333 22 -32 46.667 -32 74c0 36 16.667 64.333 50 85c16.667 10 34.667 15 54 15z" />
    <glyph glyph-name="aring" unicode="&#xe5;" horiz-adv-x="909" 
d="M823 967l-188 -775.998c-2 -8 -3 -15.667 -3 -23c0 -31.333 10.333 -47 31 -47c27.333 0 69.666 24.667 126.999 74l27 22l14 -43c-154.667 -128.667 -254 -193 -298 -193c-33.333 0 -50 23.667 -50 71c0 33.333 4 68.666 12 105.999l59 261
c-103.333 -146.667 -195 -255.667 -275 -327c-86 -76.667 -153 -115 -201 -115c-17.333 0 -31.666 10.333 -42.999 31c-18 31.333 -27 73.666 -27 126.999c0 82 14.5 178.167 43.5 288.5s65.833 211.166 110.5 302.499c36 72 87 129.333 153 172
c50 32.667 94.667 56.334 134 71.001c34 12.667 71.333 19 112 19c47.333 0 105.333 -13 174 -39l68 36zM653 848.002c-76 26 -134.333 38.999 -175 38.999c-63.333 0 -112 -20.667 -146 -62c-33.333 -40.667 -71.333 -132.667 -114 -276c-42 -139.333 -63 -255 -63 -347
c0 -54 12 -81 36 -81c41.333 0 99.666 41 174.999 123c86 92 149 182 189 270c26 55.333 48 118 66 188c24.667 96.667 35.334 145.334 32.001 146.001zM629 1470c56 0 104.333 -20.667 145 -62c38.667 -38.667 58 -86.334 58 -143.001c0 -56 -19.333 -103.333 -58 -142
c-40.667 -41.333 -89.667 -62 -147 -62s-106.333 20.667 -147 62c-38.667 38.667 -58 86.334 -58 143.001c0 75.333 32 133 96 173c33.333 20.667 70.333 31 111 31zM626 1396c-36.667 0 -66.6641 -11.333 -89.9971 -34c-24 -24 -36 -56.333 -36 -97c0 -40 12 -72 36 -96
c23.333 -22.667 53.666 -34 90.999 -34s67.666 11.333 90.999 34c24 24 36 56.333 36 97c0 52 -19 89.333 -57 112c-20.667 12 -44.334 18 -71.001 18z" />
    <glyph glyph-name="ae" unicode="&#xe6;" horiz-adv-x="1307" 
d="M549 166c-60.667 -59.333 -111.999 -102.333 -153.999 -129c-64.667 -40 -130.334 -60 -197.001 -60c-130.667 0 -196 70.333 -196 211c0 218.667 146.667 328 440 328h140c8 24.667 12 62 12 112c0 54.667 -7.33301 100 -22 136c-34.667 84 -102.334 126 -203.001 126
c-36 0 -72.333 -6.33301 -109 -19c-11.333 -9.33301 -18.666 -19 -21.999 -29l-41 -119l-37 10l-13 140l52 33c48.667 32.667 85.667 53.667 111 63c35.333 12.667 76.333 19 123 19c76 0 137.667 -17.333 185 -52c37.333 -28 71 -75 101 -141
c156 128.667 284.333 193 385 193c52.667 0 95.667 -16.333 129 -49c28.667 -28 43 -65.667 43 -113c0 -73.333 -36.333 -141.666 -109 -204.999c-100 -87.333 -250.667 -137.333 -452 -150c-18 -94 -27 -160.667 -27 -200c0 -66.667 17.667 -117.334 53 -152.001
c30.667 -30.667 70 -46 118 -46c34 0 68.667 7.33301 104 22c34.667 14 83 42.333 145 85l37 25l41 26l14 -45c-86.667 -70 -156.667 -120.333 -210 -151c-67.333 -38.667 -136 -58 -206 -58c-66.667 0 -119.667 17 -159 51c-32 27.333 -57.333 73.333 -76 138zM577.001 467
h-76.999c-116.667 0 -202.667 -19.333 -258 -58c-60.667 -42.667 -91 -108 -91 -196c0 -46 11.333 -80.333 34 -103c25.333 -24.667 59.666 -37 102.999 -37c82.667 0 153 46.333 211 139c41.333 65.333 67.333 150.333 78 255zM723.002 522c80 8 141.001 19.333 183.001 34
c145.333 50 218 130 218 240c0 70.667 -38 106 -114 106c-80.667 0 -150.334 -46.333 -209.001 -139c-26 -40.667 -45.333 -84 -58 -130c-3.33301 -10.667 -10 -47.667 -20 -111z" />
    <glyph glyph-name="ccedilla" unicode="&#xe7;" horiz-adv-x="834" 
d="M348 -20l-76 -110.999c16 2.66699 31.333 4 46 4c48.667 0 88 -10.667 118 -32c35.333 -25.333 53 -62.333 53 -111c0 -57.333 -25.667 -101.333 -77 -132c-46.667 -26.667 -105.334 -40 -176.001 -40c-46.667 0 -106.334 13.667 -179.001 41l35 59
c60 -18.667 107 -28 141 -28c36 0 64 10 84 30c16.667 16.667 25 37.334 25 62.001c0 19.333 -6.66699 35.666 -20 48.999c-18.667 18.667 -44 28 -76 28c-14 0 -36.667 -4 -68 -12l-19 17l112 175c-146.667 14 -220 114.333 -220 301c0 134 27 259.667 81 377
c27.333 60 64.833 112.167 112.5 156.5s110.834 86.166 189.501 125.499c65.333 32.667 120.333 49 165 49c80 0 145.667 -16.667 197 -50c-18 -49.333 -34.333 -136.666 -49 -261.999h-47v123c0 20.667 -13.333 39.667 -40 57c-32 21.333 -74 32 -126 32
c-61.333 0 -113.333 -16.333 -156 -49c-53.333 -42 -96 -115 -128 -219c-28.667 -94.667 -43 -192.667 -43 -294c0 -162.667 58 -244 174 -244c33.333 0 69 7.66699 107 23c42.667 18 105.667 54.667 189 110l31 21l17 -41l-103 -84
c-93.333 -76.667 -184.666 -120.334 -273.999 -131.001z" />
    <glyph glyph-name="egrave" unicode="&#xe8;" horiz-adv-x="797" 
d="M688 189c-83.333 -68.667 -155.001 -119.336 -215.001 -152.003c-73.333 -40 -141.333 -60 -204 -60c-72.667 0 -130 21 -172 63c-44 44 -66 107.333 -66 190c0 95.333 21 210 63 344c22.667 71.333 48.334 126.333 77.001 165c52.667 74 136 140.333 250 199
c64.667 33.333 122 50 172 50c54 0 97.667 -16.333 131 -49c28 -27.333 42 -64.333 42 -111c0 -123.333 -84.667 -222.333 -254 -297c-56 -25.333 -103 -42.666 -141 -51.999l-168 -41c-10.667 -57.333 -16 -111.666 -16 -162.999c0 -73.333 17 -126.666 51 -159.999
c28 -28 63 -42 105 -42c74 0 167.333 40 280 120l49 34zM212.999 485.998c92.667 20 167 43.667 223 71c40.667 20 75.667 45.667 105 77c48.667 52 73 106 73 162c0 34 -9.33301 60.333 -28 79c-18 18 -41.333 27 -70 27c-24.667 0 -51.167 -5.5 -79.5 -16.5
s-51.833 -24.833 -70.5 -41.5c-56 -50.667 -100.667 -145 -134 -283zM643.999 1061l-331.999 207.001c-38 23.333 -57 48.666 -57 75.999c0 14.667 5.33301 27 16 37c18 17.333 39 26 63 26c19.333 0 41.666 -12.333 66.999 -37l313 -309h-70z" />
    <glyph glyph-name="eacute" unicode="&#xe9;" horiz-adv-x="797" 
d="M688 189c-83.333 -68.667 -155.001 -119.336 -215.001 -152.003c-73.333 -40 -141.333 -60 -204 -60c-72.667 0 -130 21 -172 63c-44 44 -66 107.333 -66 190c0 95.333 21 210 63 344c22.667 71.333 48.334 126.333 77.001 165c52.667 74 136 140.333 250 199
c64.667 33.333 122 50 172 50c54 0 97.667 -16.333 131 -49c28 -27.333 42 -64.333 42 -111c0 -123.333 -84.667 -222.333 -254 -297c-56 -25.333 -103 -42.666 -141 -51.999l-168 -41c-10.667 -57.333 -16 -111.666 -16 -162.999c0 -73.333 17 -126.666 51 -159.999
c28 -28 63 -42 105 -42c74 0 167.333 40 280 120l49 34zM212.999 485.998c92.667 20 167 43.667 223 71c40.667 20 75.667 45.667 105 77c48.667 52 73 106 73 162c0 34 -9.33301 60.333 -28 79c-18 18 -41.333 27 -70 27c-24.667 0 -51.167 -5.5 -79.5 -16.5
s-51.833 -24.833 -70.5 -41.5c-56 -50.667 -100.667 -145 -134 -283zM347.999 1061l313.001 309c25.333 24.667 47.666 37 66.999 37c24 0 45 -8.66699 63 -26c10.667 -10 16 -22.333 16 -37c0 -26.667 -19.333 -52 -58 -76l-331 -207h-70z" />
    <glyph glyph-name="ecircumflex" unicode="&#xea;" horiz-adv-x="797" 
d="M688 189c-83.333 -68.667 -155.001 -119.336 -215.001 -152.003c-73.333 -40 -141.333 -60 -204 -60c-72.667 0 -130 21 -172 63c-44 44 -66 107.333 -66 190c0 95.333 21 210 63 344c22.667 71.333 48.334 126.333 77.001 165c52.667 74 136 140.333 250 199
c64.667 33.333 122 50 172 50c54 0 97.667 -16.333 131 -49c28 -27.333 42 -64.333 42 -111c0 -123.333 -84.667 -222.333 -254 -297c-56 -25.333 -103 -42.666 -141 -51.999l-168 -41c-10.667 -57.333 -16 -111.666 -16 -162.999c0 -73.333 17 -126.666 51 -159.999
c28 -28 63 -42 105 -42c74 0 167.333 40 280 120l49 34zM212.999 485.998c92.667 20 167 43.667 223 71c40.667 20 75.667 45.667 105 77c48.667 52 73 106 73 162c0 34 -9.33301 60.333 -28 79c-18 18 -41.333 27 -70 27c-24.667 0 -51.167 -5.5 -79.5 -16.5
s-51.833 -24.833 -70.5 -41.5c-56 -50.667 -100.667 -145 -134 -283zM634.999 1391l180 -347h-74l-168 213l-280 -213h-80l322 347h100z" />
    <glyph glyph-name="edieresis" unicode="&#xeb;" horiz-adv-x="797" 
d="M688 189c-83.333 -68.667 -155.001 -119.336 -215.001 -152.003c-73.333 -40 -141.333 -60 -204 -60c-72.667 0 -130 21 -172 63c-44 44 -66 107.333 -66 190c0 95.333 21 210 63 344c22.667 71.333 48.334 126.333 77.001 165c52.667 74 136 140.333 250 199
c64.667 33.333 122 50 172 50c54 0 97.667 -16.333 131 -49c28 -27.333 42 -64.333 42 -111c0 -123.333 -84.667 -222.333 -254 -297c-56 -25.333 -103 -42.666 -141 -51.999l-168 -41c-10.667 -57.333 -16 -111.666 -16 -162.999c0 -73.333 17 -126.666 51 -159.999
c28 -28 63 -42 105 -42c74 0 167.333 40 280 120l49 34zM212.999 485.998c92.667 20 167 43.667 223 71c40.667 20 75.667 45.667 105 77c48.667 52 73 106 73 162c0 34 -9.33301 60.333 -28 79c-18 18 -41.333 27 -70 27c-24.667 0 -51.167 -5.5 -79.5 -16.5
s-51.833 -24.833 -70.5 -41.5c-56 -50.667 -100.667 -145 -134 -283zM320.999 1305c26 0 49.334 -10.333 70.001 -31c20.667 -20 31 -43.333 31 -70s-10.667 -51 -32 -73c-20.667 -20.667 -44.334 -31 -71.001 -31c-26 0 -49.333 10.333 -70 31
c-21.333 22 -32 46.667 -32 74c0 36 16.667 64.333 50 85c16.667 10 34.667 15 54 15zM731 1305c26 0 49.334 -10.333 70.001 -31c20.667 -20 31 -43.333 31 -70s-10.667 -51 -32 -73c-20.667 -20.667 -44.334 -31 -71.001 -31c-26 0 -49.333 10.333 -70 31
c-21.333 22 -32 46.667 -32 74c0 36 16.667 64.333 50 85c16.667 10 34.667 15 54 15z" />
    <glyph glyph-name="igrave" unicode="&#xec;" horiz-adv-x="569" 
d="M70 795l56.999 41c109.333 78 184.333 125 225 141c18 7.33301 34.667 11 50 11c33.333 0 50 -17.333 50 -52c0 -20.667 -3.66699 -45.667 -11 -75l-158 -623c-9.33301 -36.667 -14 -63.667 -14 -81c0 -28 8.66699 -42 26 -42c20.667 0 62.334 20.333 125.001 61l53 35
l21 -37c-86.667 -64 -152 -109.667 -196 -137c-60 -36.667 -104 -55 -132 -55c-40.667 0 -61 26.667 -61 80c0 40.667 8.66699 93 26 157l136 492c10.667 40 16 70 16 90c0 28.667 -12 43 -36 43c-14.667 0 -47 -16 -97 -48l-66 -42zM485.999 1061l-331.999 207.001
c-38 23.333 -57 48.666 -57 75.999c0 14.667 5.33301 27 16 37c18 17.333 39 26 63 26c19.333 0 41.666 -12.333 66.999 -37l313 -309h-70z" />
    <glyph glyph-name="iacute" unicode="&#xed;" horiz-adv-x="569" 
d="M70 795l56.999 41c109.333 78 184.333 125 225 141c18 7.33301 34.667 11 50 11c33.333 0 50 -17.333 50 -52c0 -20.667 -3.66699 -45.667 -11 -75l-158 -623c-9.33301 -36.667 -14 -63.667 -14 -81c0 -28 8.66699 -42 26 -42c20.667 0 62.334 20.333 125.001 61l53 35
l21 -37c-86.667 -64 -152 -109.667 -196 -137c-60 -36.667 -104 -55 -132 -55c-40.667 0 -61 26.667 -61 80c0 40.667 8.66699 93 26 157l136 492c10.667 40 16 70 16 90c0 28.667 -12 43 -36 43c-14.667 0 -47 -16 -97 -48l-66 -42zM219.999 1061l313.001 309
c25.333 24.667 47.666 37 66.999 37c24 0 45 -8.66699 63 -26c10.667 -10 16 -22.333 16 -37c0 -26.667 -19.333 -52 -58 -76l-331 -207h-70z" />
    <glyph glyph-name="icircumflex" unicode="&#xee;" horiz-adv-x="569" 
d="M69 795l56.999 41c109.333 78 184.333 125 225 141c18 7.33301 34.667 11 50 11c33.333 0 50 -17.333 50 -52c0 -20.667 -3.66699 -45.667 -11 -75l-158 -623c-9.33301 -36.667 -14 -63.667 -14 -81c0 -28 8.66699 -42 26 -42c20.667 0 62.334 20.333 125.001 61l53 35
l21 -37c-86.667 -64 -152 -109.667 -196 -137c-60 -36.667 -104 -55 -132 -55c-40.667 0 -61 26.667 -61 80c0 40.667 8.66699 93 26 157l136 492c10.667 40 16 70 16 90c0 28.667 -12 43 -36 43c-14.667 0 -47 -16 -97 -48l-66 -42zM480.999 1391l180 -347h-74l-168 213
l-280 -213h-80l322 347h100z" />
    <glyph glyph-name="idieresis" unicode="&#xef;" horiz-adv-x="569" 
d="M70 795l56.999 41c109.333 78 184.333 125 225 141c18 7.33301 34.667 11 50 11c33.333 0 50 -17.333 50 -52c0 -20.667 -3.66699 -45.667 -11 -75l-158 -623c-9.33301 -36.667 -14 -63.667 -14 -81c0 -28 8.66699 -42 26 -42c20.667 0 62.334 20.333 125.001 61l53 35
l21 -37c-86.667 -64 -152 -109.667 -196 -137c-60 -36.667 -104 -55 -132 -55c-40.667 0 -61 26.667 -61 80c0 40.667 8.66699 93 26 157l136 492c10.667 40 16 70 16 90c0 28.667 -12 43 -36 43c-14.667 0 -47 -16 -97 -48l-66 -42zM208.999 1346
c26 0 49.668 -10.332 71.001 -30.999c20 -20 30 -43.333 30 -70s-10.667 -51 -32 -73c-20.667 -20.667 -44.334 -31 -71.001 -31c-26 0 -49.333 10.333 -70 31c-21.333 22 -32 46.667 -32 74c0 35.333 16.667 63.666 50 84.999c16.667 10 34.667 15 54 15zM618 1346
c26 0 49.334 -10.333 70.001 -31c20.667 -20 31 -43.333 31 -70s-10.667 -51 -32 -73c-20.667 -20.667 -44.334 -31 -71.001 -31c-26 0 -49.333 10.333 -70 31c-21.333 22 -32 46.667 -32 74c0 36 16.667 64.333 50 85c16.667 10 34.667 15 54 15z" />
    <glyph glyph-name="eth" unicode="&#xf0;" horiz-adv-x="909" 
d="M320 1117l263.998 132.999c-62 83.333 -133.667 136.333 -215 159l41 93c116 -62 205.333 -132.333 268 -211l277 135l24 -60l-266 -129c80.667 -175.333 121 -347.333 121 -516c0 -175.333 -43 -335.666 -129 -480.999c-103.333 -175.333 -236.666 -263 -399.999 -263
c-180 0 -270 109 -270 327c0 156.667 38 299 114 427c101.333 171.333 234.333 257 399 257c43.333 0 90 -13.667 140 -41c-1.33301 81.333 -23.666 163 -66.999 245l-277 -135zM497.998 909.999c-86.667 0 -156.999 -46.667 -210.999 -140
c-28.667 -50 -51.834 -116 -69.501 -198s-26.5 -164.333 -26.5 -247c0 -180 63 -270 189 -270c82.667 0 151 47.667 205 143c28.667 50.667 52.667 116.667 72 198c20.667 89.333 31 180.333 31 273c0 110.667 -27.333 182.667 -82 216c-28 16.667 -64 25 -108 25z" />
    <glyph glyph-name="ntilde" unicode="&#xf1;" horiz-adv-x="1139" 
d="M49 795l57 41.001c142 101.333 232.667 152 272 152c31.333 0 47 -22.333 47 -67c0 -24 -3.66699 -52.333 -11 -85l-78 -330c93.333 132 173.666 229.333 240.999 292c70 65.333 141.667 115.666 215 150.999c53.333 26 98.333 39 135 39c41.333 0 62 -24.333 62 -73
c0 -38.667 -7.33301 -89.667 -22 -153l-135 -565c-3.33301 -13.333 -5 -27 -5 -41c0 -14.667 4 -26 12 -34c4.66699 -4.66699 9.33398 -7 14.001 -7c21.333 0 63.333 20.333 126 61l53 35l21 -37c-85.333 -63.333 -150.666 -109 -195.999 -137
c-60.667 -36.667 -105 -55 -133 -55c-40.667 0 -61 27 -61 81c0 30 8.33301 78.667 25 146l2 10l107 435c14.667 60.667 22 109.334 22 146.001c0 32 -11.333 48 -34 48c-52 0 -117.333 -35 -196 -105c-75.333 -68 -142 -153 -200 -255
c-60.667 -108 -106.334 -265.333 -137.001 -472c-46 -8 -94 -19.333 -144 -34l-14 22c38.667 135.333 75.667 285.333 111 450c38 177.333 57 291.666 57 342.999c0 34 -12.333 51 -37 51c-10 0 -41.667 -17 -95 -51l-67 -43zM416 1096h-59.002c18 66 40 115 66 147
c34 42.667 79.333 64 136 64c37.333 0 80 -9.66699 128 -29l123 -49c16.667 -6.66699 34.667 -10 54 -10c22.667 0 41.667 6.66699 57 20c12.667 11.333 28.667 34 48 68h58c-10.667 -56 -28.667 -101 -54 -135c-37.333 -50.667 -85.333 -76 -144 -76
c-32.667 0 -76.667 11 -132 33l-78 30l-5 2c-1.33301 0.666992 -6 2.66699 -14 6c-31.333 12.667 -57 19 -77 19c-23.333 0 -42.666 -5.33301 -57.999 -16c-15.333 -11.333 -31.666 -36 -48.999 -74z" />
    <glyph glyph-name="ograve" unicode="&#xf2;" horiz-adv-x="909" 
d="M572 988c78 0 140 -22.999 186 -68.999c56 -56 84 -136 84 -240c0 -165.333 -45 -319 -135 -461c-50 -78.667 -116 -140 -198 -184c-70.667 -38 -140.667 -57 -210 -57c-176 0 -264 111.667 -264 335c0 145.333 30.333 273.666 91 384.999c66 122 164.333 209 295 261
c50 20 100.333 30 151 30zM492 910.001c-52.667 0 -92.999 -11.668 -120.999 -35.001c-50.667 -41.333 -93.334 -118.333 -128.001 -231s-52 -224 -52 -334c0 -79.333 15.333 -141 46 -185c32.667 -46.667 80.667 -70 144 -70c64 0 114.667 22.667 152 68
c51.333 62 91 150 119 264c22.667 90.667 34 177.334 34 260.001c0 175.333 -64.667 263 -194 263zM679.001 1061l-331.999 207.001c-38 23.333 -57 48.666 -57 75.999c0 14.667 5.33301 27 16 37c18 17.333 39 26 63 26c19.333 0 41.666 -12.333 66.999 -37l313 -309h-70z
" />
    <glyph glyph-name="oacute" unicode="&#xf3;" horiz-adv-x="909" 
d="M572 988c78 0 140 -22.999 186 -68.999c56 -56 84 -136 84 -240c0 -165.333 -45 -319 -135 -461c-50 -78.667 -116 -140 -198 -184c-70.667 -38 -140.667 -57 -210 -57c-176 0 -264 111.667 -264 335c0 145.333 30.333 273.666 91 384.999c66 122 164.333 209 295 261
c50 20 100.333 30 151 30zM492 910.001c-52.667 0 -92.999 -11.668 -120.999 -35.001c-50.667 -41.333 -93.334 -118.333 -128.001 -231s-52 -224 -52 -334c0 -79.333 15.333 -141 46 -185c32.667 -46.667 80.667 -70 144 -70c64 0 114.667 22.667 152 68
c51.333 62 91 150 119 264c22.667 90.667 34 177.334 34 260.001c0 175.333 -64.667 263 -194 263zM389.001 1061l313.001 309c25.333 24.667 47.666 37 66.999 37c24 0 45 -8.66699 63 -26c10.667 -10 16 -22.333 16 -37c0 -26.667 -19.333 -52 -58 -76l-331 -207h-70z" />
    <glyph glyph-name="ocircumflex" unicode="&#xf4;" horiz-adv-x="909" 
d="M572 988c78 0 140 -22.999 186 -68.999c56 -56 84 -136 84 -240c0 -165.333 -45 -319 -135 -461c-50 -78.667 -116 -140 -198 -184c-70.667 -38 -140.667 -57 -210 -57c-176 0 -264 111.667 -264 335c0 145.333 30.333 273.666 91 384.999c66 122 164.333 209 295 261
c50 20 100.333 30 151 30zM492 910.001c-52.667 0 -92.999 -11.668 -120.999 -35.001c-50.667 -41.333 -93.334 -118.333 -128.001 -231s-52 -224 -52 -334c0 -79.333 15.333 -141 46 -185c32.667 -46.667 80.667 -70 144 -70c64 0 114.667 22.667 152 68
c51.333 62 91 150 119 264c22.667 90.667 34 177.334 34 260.001c0 175.333 -64.667 263 -194 263zM651.001 1391l180 -347h-74l-168 213l-280 -213h-80l322 347h100z" />
    <glyph glyph-name="otilde" unicode="&#xf5;" horiz-adv-x="909" 
d="M572 988c78 0 140 -22.999 186 -68.999c56 -56 84 -136 84 -240c0 -165.333 -45 -319 -135 -461c-50 -78.667 -116 -140 -198 -184c-70.667 -38 -140.667 -57 -210 -57c-176 0 -264 111.667 -264 335c0 145.333 30.333 273.666 91 384.999c66 122 164.333 209 295 261
c50 20 100.333 30 151 30zM492 910.001c-52.667 0 -92.999 -11.668 -120.999 -35.001c-50.667 -41.333 -93.334 -118.333 -128.001 -231s-52 -224 -52 -334c0 -79.333 15.333 -141 46 -185c32.667 -46.667 80.667 -70 144 -70c64 0 114.667 22.667 152 68
c51.333 62 91 150 119 264c22.667 90.667 34 177.334 34 260.001c0 175.333 -64.667 263 -194 263zM303.001 1096h-59.002c18 66 40 115 66 147c34 42.667 79.333 64 136 64c37.333 0 80 -9.66699 128 -29l123 -49c16.667 -6.66699 34.667 -10 54 -10
c22.667 0 41.667 6.66699 57 20c12.667 11.333 28.667 34 48 68h58c-10.667 -56 -28.667 -101 -54 -135c-37.333 -50.667 -85.333 -76 -144 -76c-32.667 0 -76.667 11 -132 33l-78 30l-5 2c-1.33301 0.666992 -6 2.66699 -14 6c-31.333 12.667 -57 19 -77 19
c-23.333 0 -42.666 -5.33301 -57.999 -16c-15.333 -11.333 -31.666 -36 -48.999 -74z" />
    <glyph glyph-name="odieresis" unicode="&#xf6;" horiz-adv-x="909" 
d="M572 988c78 0 140 -22.999 186 -68.999c56 -56 84 -136 84 -240c0 -165.333 -45 -319 -135 -461c-50 -78.667 -116 -140 -198 -184c-70.667 -38 -140.667 -57 -210 -57c-176 0 -264 111.667 -264 335c0 145.333 30.333 273.666 91 384.999c66 122 164.333 209 295 261
c50 20 100.333 30 151 30zM492 910.001c-52.667 0 -92.999 -11.668 -120.999 -35.001c-50.667 -41.333 -93.334 -118.333 -128.001 -231s-52 -224 -52 -334c0 -79.333 15.333 -141 46 -185c32.667 -46.667 80.667 -70 144 -70c64 0 114.667 22.667 152 68
c51.333 62 91 150 119 264c22.667 90.667 34 177.334 34 260.001c0 175.333 -64.667 263 -194 263zM379.001 1305c26 0 49.334 -10.333 70.001 -31c20.667 -20 31 -43.333 31 -70s-10.667 -51 -32 -73c-20.667 -20.667 -44.334 -31 -71.001 -31c-26 0 -49.333 10.333 -70 31
c-21.333 22 -32 46.667 -32 74c0 36 16.667 64.333 50 85c16.667 10 34.667 15 54 15zM789.002 1305c26 0 49.334 -10.333 70.001 -31c20.667 -20 31 -43.333 31 -70s-10.667 -51 -32 -73c-20.667 -20.667 -44.334 -31 -71.001 -31c-26 0 -49.333 10.333 -70 31
c-21.333 22 -32 46.667 -32 74c0 36 16.667 64.333 50 85c16.667 10 34.667 15 54 15z" />
    <glyph glyph-name="divide" unicode="&#xf7;" horiz-adv-x="1241" 
d="M104 458v115h1032v-115h-1032zM622 1032c29.333 0 53.668 -9.33203 73.001 -27.999c18.667 -19.333 28 -44.333 28 -75s-9.33301 -55.334 -28 -74.001c-19.333 -18.667 -44.333 -28 -75 -28s-55.334 9.33301 -74.001 28s-28 43.667 -28 75c0 40 15 69 45 87
c16 10 35.667 15 59 15zM622.002 205.001c29.333 0 53.667 -9.33203 73 -27.999c18.667 -18.667 28 -43.667 28 -75c0 -30.667 -9.33301 -55.334 -28 -74.001c-19.333 -18.667 -44.333 -28 -75 -28s-55.334 9.33301 -74.001 28s-28 43.667 -28 75c0 40 15 69 45 87
c16.667 10 36.334 15 59.001 15z" />
    <glyph glyph-name="oslash" unicode="&#xf8;" horiz-adv-x="909" 
d="M770 906l123.001 139l49 -41l-135 -154c23.333 -54 35 -111.667 35 -173c0 -145.333 -37.333 -285.333 -112 -420c-58.667 -106.667 -140 -184.667 -244 -234c-62.667 -30.667 -124.667 -46 -186 -46c-80 0 -144.667 27.333 -194 82l-94 -108l-49 41l109 123
c-24.667 52.667 -37 116 -37 190c0 152.667 37 291.667 111 417c104 177.333 244.667 266 422 266c83.333 0 150.666 -27.333 201.999 -82zM683.001 709l-472.001 -533c34 -80.667 90.333 -121 169 -121c82 0 150 47.667 204 143c28.667 50 52.334 115 71.001 195
c20.667 87.333 31 172.333 31 255c0 8 -1 20.667 -3 38v23zM195 254l471 533.001c-33.333 82 -89.666 123 -168.999 123c-86 0 -156 -46.667 -210 -140c-28.667 -50.667 -51.834 -117.334 -69.501 -200.001s-26.5 -167 -26.5 -253c0 -16 1.33301 -37 4 -63z" />
    <glyph glyph-name="ugrave" unicode="&#xf9;" horiz-adv-x="1139" 
d="M759 489c-53.333 -86.667 -114.668 -169.333 -184.001 -248c-155.333 -176 -277.333 -264 -366 -264c-17.333 0 -33.666 7.66699 -48.999 23c-14.667 14.667 -22 34.667 -22 60c0 40 2.66699 72.667 8 98l128 607c3.33301 14.667 5 27 5 37c0 28 -12 42 -36 42
c-14.667 0 -47 -16 -97 -48l-66 -42l-14 41l57 41c142 101.333 232.667 152 272 152c30.667 0 46 -21.333 46 -64c0 -25.333 -3.33301 -54.666 -10 -87.999l-117 -555c-10 -46.667 -15 -82.667 -15 -108c0 -34.667 9 -52 27 -52c29.333 0 58.666 11 87.999 33
c102.667 76 194 175.333 274 298c65.333 100 114 232 146 396l20 105l140 35l14 -19c-65.333 -250.667 -122.666 -494.334 -171.999 -731.001l-2 -12c-6.66699 -30 -10 -53 -10 -69c0 -24 8.66699 -36 26 -36c27.333 0 69 18.333 125 55l54 35l20 -37
c-86 -63.333 -151.333 -109 -196 -137c-60 -36.667 -104 -55 -132 -55c-40.667 0 -61 27 -61 81c0 36.667 7.33301 82 22 136zM732.998 1061l-331.999 207.001c-38 23.333 -57 48.666 -57 75.999c0 14.667 5.33301 27 16 37c18 17.333 39 26 63 26
c19.333 0 41.666 -12.333 66.999 -37l313 -309h-70z" />
    <glyph glyph-name="uacute" unicode="&#xfa;" horiz-adv-x="1139" 
d="M759 489c-53.333 -86.667 -114.668 -169.333 -184.001 -248c-155.333 -176 -277.333 -264 -366 -264c-17.333 0 -33.666 7.66699 -48.999 23c-14.667 14.667 -22 34.667 -22 60c0 40 2.66699 72.667 8 98l128 607c3.33301 14.667 5 27 5 37c0 28 -12 42 -36 42
c-14.667 0 -47 -16 -97 -48l-66 -42l-14 41l57 41c142 101.333 232.667 152 272 152c30.667 0 46 -21.333 46 -64c0 -25.333 -3.33301 -54.666 -10 -87.999l-117 -555c-10 -46.667 -15 -82.667 -15 -108c0 -34.667 9 -52 27 -52c29.333 0 58.666 11 87.999 33
c102.667 76 194 175.333 274 298c65.333 100 114 232 146 396l20 105l140 35l14 -19c-65.333 -250.667 -122.666 -494.334 -171.999 -731.001l-2 -12c-6.66699 -30 -10 -53 -10 -69c0 -24 8.66699 -36 26 -36c27.333 0 69 18.333 125 55l54 35l20 -37
c-86 -63.333 -151.333 -109 -196 -137c-60 -36.667 -104 -55 -132 -55c-40.667 0 -61 27 -61 81c0 36.667 7.33301 82 22 136zM618.998 1061l313.001 309c25.333 24.667 47.666 37 66.999 37c24 0 45 -8.66699 63 -26c10.667 -10 16 -22.333 16 -37
c0 -26.667 -19.333 -52 -58 -76l-331 -207h-70z" />
    <glyph glyph-name="ucircumflex" unicode="&#xfb;" horiz-adv-x="1139" 
d="M759 489c-53.333 -86.667 -114.668 -169.333 -184.001 -248c-155.333 -176 -277.333 -264 -366 -264c-17.333 0 -33.666 7.66699 -48.999 23c-14.667 14.667 -22 34.667 -22 60c0 40 2.66699 72.667 8 98l128 607c3.33301 14.667 5 27 5 37c0 28 -12 42 -36 42
c-14.667 0 -47 -16 -97 -48l-66 -42l-14 41l57 41c142 101.333 232.667 152 272 152c30.667 0 46 -21.333 46 -64c0 -25.333 -3.33301 -54.666 -10 -87.999l-117 -555c-10 -46.667 -15 -82.667 -15 -108c0 -34.667 9 -52 27 -52c29.333 0 58.666 11 87.999 33
c102.667 76 194 175.333 274 298c65.333 100 114 232 146 396l20 105l140 35l14 -19c-65.333 -250.667 -122.666 -494.334 -171.999 -731.001l-2 -12c-6.66699 -30 -10 -53 -10 -69c0 -24 8.66699 -36 26 -36c27.333 0 69 18.333 125 55l54 35l20 -37
c-86 -63.333 -151.333 -109 -196 -137c-60 -36.667 -104 -55 -132 -55c-40.667 0 -61 27 -61 81c0 36.667 7.33301 82 22 136zM765.998 1391l180 -347h-74l-168 213l-280 -213h-80l322 347h100z" />
    <glyph glyph-name="udieresis" unicode="&#xfc;" horiz-adv-x="1139" 
d="M759 489c-53.333 -86.667 -114.668 -169.333 -184.001 -248c-155.333 -176 -277.333 -264 -366 -264c-17.333 0 -33.666 7.66699 -48.999 23c-14.667 14.667 -22 34.667 -22 60c0 40 2.66699 72.667 8 98l128 607c3.33301 14.667 5 27 5 37c0 28 -12 42 -36 42
c-14.667 0 -47 -16 -97 -48l-66 -42l-14 41l57 41c142 101.333 232.667 152 272 152c30.667 0 46 -21.333 46 -64c0 -25.333 -3.33301 -54.666 -10 -87.999l-117 -555c-10 -46.667 -15 -82.667 -15 -108c0 -34.667 9 -52 27 -52c29.333 0 58.666 11 87.999 33
c102.667 76 194 175.333 274 298c65.333 100 114 232 146 396l20 105l140 35l14 -19c-65.333 -250.667 -122.666 -494.334 -171.999 -731.001l-2 -12c-6.66699 -30 -10 -53 -10 -69c0 -24 8.66699 -36 26 -36c27.333 0 69 18.333 125 55l54 35l20 -37
c-86 -63.333 -151.333 -109 -196 -137c-60 -36.667 -104 -55 -132 -55c-40.667 0 -61 27 -61 81c0 36.667 7.33301 82 22 136zM492.998 1305c26 0 49.334 -10.333 70.001 -31c20.667 -20 31 -43.333 31 -70s-10.667 -51 -32 -73c-20.667 -20.667 -44.334 -31 -71.001 -31
c-26 0 -49.333 10.333 -70 31c-21.333 22 -32 46.667 -32 74c0 36 16.667 64.333 50 85c16.667 10 34.667 15 54 15zM902.999 1305c26 0 49.334 -10.333 70.001 -31c20.667 -20 31 -43.333 31 -70s-10.667 -51 -32 -73c-20.667 -20.667 -44.334 -31 -71.001 -31
c-26 0 -49.333 10.333 -70 31c-21.333 22 -32 46.667 -32 74c0 36 16.667 64.333 50 85c16.667 10 34.667 15 54 15z" />
    <glyph glyph-name="yacute" unicode="&#xfd;" 
d="M-14 -369l97.999 70.001l21 -8c-2.66699 -18.667 -4 -34 -4 -46c0 -30.667 9.66699 -58 29 -82c24 -29.333 57 -44 99 -44c80.667 0 152.334 54 215.001 162c43.333 76 88 192.667 134 350l101 349c-55.333 -82.667 -110 -154.667 -164 -216
c-111.333 -126 -190.333 -189 -237 -189c-18.667 0 -36 7.66699 -52 23c-24.667 24.667 -37 66 -37 124c0 34.667 0.666992 61.667 2 81l35 498c0.666992 11.333 1 22 1 32c0 70 -14.667 105 -44 105c-7.33301 0 -24.666 -8.33301 -51.999 -25l-102 -61l-22 37l168 115
c64.667 44 105.334 69.333 122.001 76c11.333 4 21.666 6 30.999 6c32.667 0 49 -42.333 49 -127c0 -67.333 -2.66699 -134.333 -8 -201l-31 -398c-0.666992 -12.667 -1 -22.334 -1 -29.001c0 -35.333 5.33301 -61.666 16 -78.999c6.66699 -11.333 14.667 -17 24 -17
c22.667 0 55 18.667 97 56c81.333 72.667 152.666 174.667 213.999 306c34 72 57.333 131.667 70 179l72 271c43.333 3.33301 93.666 16.333 150.999 39l23 -19l-289 -901c-52 -163.333 -121 -300 -207 -410c-116 -148.667 -234.667 -223 -356 -223
c-53.333 0 -96.666 19.667 -129.999 59c-25.333 29.333 -38 62.666 -38 99.999c0 10 0.666992 22.333 2 37zM420.999 1061l313.001 309c25.333 24.667 47.666 37 66.999 37c24 0 45 -8.66699 63 -26c10.667 -10 16 -22.333 16 -37c0 -26.667 -19.333 -52 -58 -76l-331 -207
h-70z" />
    <glyph glyph-name="thorn" unicode="&#xfe;" 
d="M84 -530l-150 -35.001l-14 12l17 76c34.667 154 68 318.333 100 493l229 1258c2.66699 14.667 4 31 4 49c0 32.667 -23.333 49 -70 49h-98l8 43c54 4 109.333 12.333 166 25c52 12.667 106 33 162 61l24 -22l-191 -889c42 74 79.333 129.333 112 166
c70.667 80.667 148.334 143.334 233.001 188.001c55.333 28.667 105.333 43 150 43c35.333 0 63.333 -17.667 84 -53c24.667 -42.667 37 -100.334 37 -173.001c0 -137.333 -37.667 -281.666 -113 -432.999c-39.333 -80 -96 -148.333 -170 -205
c-69.333 -53.333 -141.333 -95 -216 -125c-34.667 -14 -65.334 -21 -92.001 -21c-21.333 0 -57.333 7.66699 -108 23l-18 6zM190 120.999c51.333 -32 107.667 -48 169 -48c84.667 0 148 30 190 90c80 116 137 253 171 411c12.667 57.333 19 109 19 155
c0 92.667 -25.667 139 -77 139c-50.667 0 -105.334 -22.667 -164.001 -68c-72.667 -56.667 -134.667 -131.667 -186 -225c-43.333 -78.667 -71.666 -157.667 -84.999 -237z" />
    <glyph glyph-name="ydieresis" unicode="&#xff;" 
d="M-14 -369l97.999 70.001l21 -8c-2.66699 -18.667 -4 -34 -4 -46c0 -30.667 9.66699 -58 29 -82c24 -29.333 57 -44 99 -44c80.667 0 152.334 54 215.001 162c43.333 76 88 192.667 134 350l101 349c-55.333 -82.667 -110 -154.667 -164 -216
c-111.333 -126 -190.333 -189 -237 -189c-18.667 0 -36 7.66699 -52 23c-24.667 24.667 -37 66 -37 124c0 34.667 0.666992 61.667 2 81l35 498c0.666992 11.333 1 22 1 32c0 70 -14.667 105 -44 105c-7.33301 0 -24.666 -8.33301 -51.999 -25l-102 -61l-22 37l168 115
c64.667 44 105.334 69.333 122.001 76c11.333 4 21.666 6 30.999 6c32.667 0 49 -42.333 49 -127c0 -67.333 -2.66699 -134.333 -8 -201l-31 -398c-0.666992 -12.667 -1 -22.334 -1 -29.001c0 -35.333 5.33301 -61.666 16 -78.999c6.66699 -11.333 14.667 -17 24 -17
c22.667 0 55 18.667 97 56c81.333 72.667 152.666 174.667 213.999 306c34 72 57.333 131.667 70 179l72 271c43.333 3.33301 93.666 16.333 150.999 39l23 -19l-289 -901c-52 -163.333 -121 -300 -207 -410c-116 -148.667 -234.667 -223 -356 -223
c-53.333 0 -96.666 19.667 -129.999 59c-25.333 29.333 -38 62.666 -38 99.999c0 10 0.666992 22.333 2 37zM434.999 1305c26 0 49.334 -10.333 70.001 -31c20.667 -20 31 -43.333 31 -70s-10.667 -51 -32 -73c-20.667 -20.667 -44.334 -31 -71.001 -31
c-26 0 -49.333 10.333 -70 31c-21.333 22 -32 46.667 -32 74c0 36 16.667 64.333 50 85c16.667 10 34.667 15 54 15zM845 1305c26 0 49.334 -10.333 70.001 -31c20.667 -20 31 -43.333 31 -70s-10.667 -51 -32 -73c-20.667 -20.667 -44.334 -31 -71.001 -31
c-26 0 -49.333 10.333 -70 31c-21.333 22 -32 46.667 -32 74c0 36 16.667 64.333 50 85c16.667 10 34.667 15 54 15z" />
    <glyph glyph-name="Cacute" unicode="&#x106;" horiz-adv-x="1366" 
d="M797 1491l313.001 309c25.333 24.667 47.666 37 66.999 37c24 0 45 -8.66699 63 -26c10.667 -10 16 -22.333 16 -37c0 -26.667 -19.333 -52 -58 -76l-331 -207h-70zM1222 1063l0.00195312 172.002c-50 32.667 -96 55.667 -138 69c-71.333 22.667 -147.333 34 -228 34
c-163.333 0 -293 -49 -389 -147c-62.667 -64 -110.834 -144.333 -144.501 -241s-50.5 -202.334 -50.5 -317.001c0 -191.333 48 -336 144 -434c83.333 -84.667 201.333 -127 354 -127c68.667 0 134 8.66699 196 26c68.667 20 156 62.333 262 127l21 -14l-21 -74
c-92 -62.667 -175.333 -106.334 -250 -131.001c-87.333 -28.667 -179.333 -43 -276 -43c-194 0 -344.667 53 -452 159c-105.333 105.333 -158 258.333 -158 459c0 316.667 120.667 556 362 718c147.333 98 307 147 479 147c119.333 0 252.666 -28 399.999 -84
c-28 -89.333 -46.667 -189 -56 -299h-55z" />
    <glyph glyph-name="cacute" unicode="&#x107;" horiz-adv-x="834" 
d="M407 1061l313.001 309c25.333 24.667 47.666 37 66.999 37c24 0 45 -8.66699 63 -26c10.667 -10 16 -22.333 16 -37c0 -26.667 -19.333 -52 -58 -76l-331 -207h-70zM700.001 676v123c0 20.667 -13.333 39.667 -40 57c-32 21.333 -74 32 -126 32
c-61.333 0 -113.333 -16.333 -156 -49c-53.333 -42 -96 -115.333 -128 -220c-28.667 -94 -43 -191.667 -43 -293c0 -163.333 58 -245 174 -245c33.333 0 69 8 107 24c42 17.333 105 54 189 110l31 21l17 -41l-103 -84c-108.667 -89.333 -215.334 -134 -320.001 -134
c-167.333 0 -251 100.667 -251 302c0 134.667 27 260.667 81 378c27.333 60 64.833 112.167 112.5 156.5s110.834 86.166 189.501 125.499c65.333 32.667 120.333 49 165 49c80 0 145.667 -16.667 197 -50c-18 -49.333 -34.333 -136.666 -49 -261.999h-47z" />
    <glyph glyph-name="Ccaron" unicode="&#x10c;" horiz-adv-x="1366" 
d="M969 1475h-94l-197 346h76l184 -215l291 215h74zM1222 1063l0.00195312 172.002c-50 32.667 -96 55.667 -138 69c-71.333 22.667 -147.333 34 -228 34c-163.333 0 -293 -49 -389 -147c-62.667 -64 -110.834 -144.333 -144.501 -241s-50.5 -202.334 -50.5 -317.001
c0 -191.333 48 -336 144 -434c83.333 -84.667 201.333 -127 354 -127c68.667 0 134 8.66699 196 26c68.667 20 156 62.333 262 127l21 -14l-21 -74c-92 -62.667 -175.333 -106.334 -250 -131.001c-87.333 -28.667 -179.333 -43 -276 -43c-194 0 -344.667 53 -452 159
c-105.333 105.333 -158 258.333 -158 459c0 316.667 120.667 556 362 718c147.333 98 307 147 479 147c119.333 0 252.666 -28 399.999 -84c-28 -89.333 -46.667 -189 -56 -299h-55z" />
    <glyph glyph-name="ccaron" unicode="&#x10d;" horiz-adv-x="834" 
d="M621 1044h-94l-197 347h76l184 -216l291 216h74zM700 676v123c0 20.667 -13.333 39.667 -40 57c-32 21.333 -74 32 -126 32c-61.333 0 -113.333 -16.333 -156 -49c-53.333 -42 -96 -115.333 -128 -220c-28.667 -94 -43 -191.667 -43 -293c0 -163.333 58 -245 174 -245
c33.333 0 69 8 107 24c42 17.333 105 54 189 110l31 21l17 -41l-103 -84c-108.667 -89.333 -215.334 -134 -320.001 -134c-167.333 0 -251 100.667 -251 302c0 134.667 27 260.667 81 378c27.333 60 64.833 112.167 112.5 156.5s110.834 86.166 189.501 125.499
c65.333 32.667 120.333 49 165 49c80 0 145.667 -16.667 197 -50c-18 -49.333 -34.333 -136.666 -49 -261.999h-47z" />
    <glyph glyph-name="dmacron" unicode="&#x111;" 
d="M931 1206l175.001 0.000976562l-20 -82h-172l-183 -861c-10.667 -48.667 -16 -80.667 -16 -96c0 -30.667 9.66699 -46 29 -46c20 0 46.333 11.667 79 35l91 63l20 -39l-166 -123c-68.667 -50.667 -119.667 -76 -153 -76c-36 0 -54 22.667 -54 68c0 51.333 11 121 33 209
l46 186c-78 -118 -140.667 -203.333 -188 -256c-126.667 -140.667 -235.334 -211 -326.001 -211c-60.667 0 -91 66 -91 198c0 87.333 9.5 175.333 28.5 264s44.167 162.667 75.5 222c32 60 74.833 116.333 128.5 169s111.834 95 174.501 127c39.333 20 81 30 125 30
c53.333 0 109.333 -9.33301 168 -28l31 165h-296l20 82h290l13 68c2.66699 15.333 4 31.666 4 48.999c0 32.667 -23.333 49 -70 49h-98l8 43c53.333 4 108.666 12.333 165.999 25c52 12.667 106 33 162 61l24 -22zM715.001 840.001c-62.667 31.333 -135 47.001 -217 47.001
c-54 0 -94.333 -10.333 -121 -31c-45.333 -34.667 -87 -111.334 -125 -230.001c-46.667 -144 -70 -286 -70 -426c0 -52.667 17 -79 51 -79c19.333 0 47.333 11 84 33s73 50 109 84c85.333 80 154.333 180.333 207 301c26 58.667 45 118.667 57 180z" />
    <glyph glyph-name="Gbreve" unicode="&#x11e;" horiz-adv-x="1479" 
d="M709 1817l58.9961 0.000976562c12.667 -136.667 87.334 -205 224.001 -205c70.667 0 130.334 22.667 179.001 68c30.667 28 62.334 73.667 95.001 137h59c-18 -66.667 -35.333 -115.334 -52 -146.001c-65.333 -120 -163.666 -180 -294.999 -180
c-108.667 0 -185 39.667 -229 119c-26.667 47.333 -40 116.333 -40 207zM1081 123.001l36.002 190.001c10 50.667 15 91.334 15 122.001c0 24 -7.66699 39.333 -23 46c-17.333 7.33301 -67 13.666 -149 18.999l-70 4l10 57c78.667 -6.66699 167 -10 265 -10
c96.667 0 182 3.33301 256 10l-5 -57l-65 -12c-11.333 -2.66699 -22 -7.33398 -32 -14.001c-14 -9.33301 -21.667 -19 -23 -29l-48 -277c-0.666992 -6 -1 -13.333 -1 -22c0 -14.667 2 -34.667 6 -60l-9 -14c-25.333 -3.33301 -63.333 -13.666 -114 -30.999l-61 -20
c-122 -41.333 -236 -62 -342 -62c-204.667 0 -362.334 54.667 -473.001 164c-101.333 100 -152 244.667 -152 434c0 314 122 558.333 366 733c141.333 101.333 303.666 152 486.999 152c128 0 270.333 -28 427 -84c-28 -89.333 -46.667 -189 -56 -299h-55v172
c-49.333 31.333 -94 53.666 -134 66.999c-75.333 24 -158.666 36 -249.999 36c-168.667 0 -302.667 -50.333 -402 -151c-65.333 -66 -115.5 -148.833 -150.5 -248.5s-52.5 -209.5 -52.5 -329.5c0 -187.333 45.667 -327.333 137 -420c88 -89.333 214.333 -134 379 -134
c103.333 0 197.666 22.667 282.999 68z" />
    <glyph glyph-name="gbreve" unicode="&#x11f;" 
d="M359 1386l58.9961 0.000976562c12.667 -136.667 87.334 -205 224.001 -205c70.667 0 130.334 22.667 179.001 68c30.667 28 62.334 73.667 95.001 137h59c-18 -66.667 -35.333 -115.334 -52 -146.001c-65.333 -120 -163.666 -180 -294.999 -180
c-108.667 0 -185 39.667 -229 119c-26 47.333 -39.333 116.333 -40 207zM490.996 299.001c-2.66699 -4 -7 -9.66699 -13 -17c-28 -34.667 -42 -60.334 -42 -77.001c0 -36 32 -80.333 96 -133l123 -100c87.333 -71.333 131 -144.666 131 -219.999
c0 -70.667 -35 -135 -105 -193c-47.333 -39.333 -114 -71.333 -200 -96c-65.333 -18.667 -128.666 -28 -189.999 -28c-116.667 0 -209 23.333 -277 70c-60 42 -90 98.667 -90 170c0 85.333 36 158.333 108 219c54.667 46 117 82 187 108
c31.333 11.333 67.333 23.666 108 36.999c-28.667 24 -43 46.667 -43 68c0 30 18.667 62 56 96l84 78c-24 -1.33301 -45 -2 -63 -2c-72.667 0 -132 20.667 -178 62c-47.333 42 -71 105.333 -71 190c0 146.667 58 263.334 174 350.001c95.333 71.333 187.333 107 276 107
c46.667 0 93 -9 139 -27c30 -12 53.333 -27 70 -45c9.33301 -9.33301 20.666 -25 33.999 -47c92.667 0 162.334 6 209.001 18l6 -12l-19 -92c-38 -5.33301 -71.667 -8 -101 -8c-19.333 0 -43 1.33301 -71 4l2 -11c4 -26.667 6 -48 6 -64c0 -128 -57.667 -235.333 -173 -322
c-52.667 -40 -110.334 -67.667 -173.001 -83zM359.996 2.00098c-89.333 -26 -156.667 -57.667 -202 -95c-68.667 -56 -103 -123.667 -103 -203c0 -54 17.333 -97.333 52 -130c57.333 -54.667 135 -82 233 -82c91.333 0 169.333 21.667 234 65
c51.333 35.333 77 78.333 77 129c0 39.333 -13.667 76 -41 110c-22 26.667 -52.667 55 -92 85zM508.995 918.001c-61.333 0 -114.333 -22.333 -159 -67c-62 -62 -93 -149 -93 -261c0 -164 63.333 -246 190 -246c79.333 0 141 38 185 114c38.667 66 58 146.333 58 241
c0 146 -60.333 219 -181 219z" />
    <glyph glyph-name="Idot" unicode="&#x130;" horiz-adv-x="682" 
d="M511 1751c28.667 0 54.333 -11.333 77 -34c21.333 -21.333 32 -46.333 32 -75c0 -30 -11.333 -56.333 -34 -79c-22 -22 -47.667 -33 -77 -33c-28.667 0 -54 11 -76 33c-22.667 22.667 -34 49 -34 79c0 40 18 70.667 54 92c18 11.333 37.333 17 58 17zM210.999 1360
l5.99902 56.9971l131 -3c73.333 -2 121.333 -3 144 -3l214 6h19l-6 -57l-72 -7c-45.333 -4.66699 -73.333 -15 -84 -31c-7.33301 -10 -14.333 -32.333 -21 -67l-183 -1095c-2 -12.667 -3 -27 -3 -43c0 -18 4 -31.333 12 -40c10.667 -11.333 31.334 -18 62.001 -20l106 -6
l-6 -56h-65l-193 5l-193 -5h-65l6 56l74 6c42 4.66699 66.667 13.334 74 26.001c14 20.667 29 78.334 45 173.001l147 889c12.667 75.333 19 128 19 158c0 32.667 -24 50.334 -72 53.001z" />
    <glyph glyph-name="dotlessi" unicode="&#x131;" horiz-adv-x="569" 
d="M70 795l56.999 41c109.333 78 184.333 125 225 141c18 7.33301 34.667 11 50 11c33.333 0 50 -17.333 50 -52c0 -20.667 -3.66699 -45.667 -11 -75l-158 -623c-9.33301 -36.667 -14 -63.667 -14 -81c0 -28 8.66699 -42 26 -42c20.667 0 62.334 20.333 125.001 61l53 35
l21 -37c-86.667 -64 -152 -109.667 -196 -137c-60 -36.667 -104 -55 -132 -55c-40.667 0 -61 26.667 -61 80c0 40.667 8.66699 93 26 157l136 492c10.667 40 16 70 16 90c0 28.667 -12 43 -36 43c-14.667 0 -47 -16 -97 -48l-66 -42z" />
    <glyph glyph-name="Lslash" unicode="&#x141;" horiz-adv-x="1139" 
d="M266 696l75.9971 449c12 71.333 18 123.666 18 156.999c0 34 -23.667 52 -71 54l-97 4l6 57l132 -3c72.667 -2 120.334 -3 143.001 -3l199 6h49l-6 -57l-86 -6c-44 -4 -71.667 -14.333 -83 -31c-8.66699 -10.667 -16 -33.334 -22 -68.001l-80 -464l293 157l25 -59
l-332 -176l-94 -547c-3.33301 -16.667 -4.66602 -37.667 -3.99902 -63v-9c112 -9.33301 208.667 -14 290 -14c166 0 264.333 7 295 21c19.333 9.33301 38 46 56 110l34 127h64c-34 -161.333 -49.667 -274 -47 -338l-69 -2c-76 -3.33301 -131.667 -4.66602 -167 -3.99902
l-440 6c-61.333 0.666992 -138.666 -0.666016 -231.999 -3.99902l-83 -2l10 53c46 8 76.333 16 91 24c18 10 28.667 24 32 42l86 503l-260 -139l-25 60z" />
    <glyph glyph-name="lslash" unicode="&#x142;" horiz-adv-x="569" 
d="M218 780l100 494.002c2.66699 13.333 4 29.333 4 48c0 33.333 -23.333 50 -70 50h-98l8 43c54 4 109.333 12.333 166 25c52 12.667 106 33 162 61l25 -22l-125 -590l204 127l25 -60l-248 -153l-119 -565c-0.666992 -6 -2.33398 -14.333 -5.00098 -25
c-6 -26.667 -9 -45.334 -9 -56.001c0 -12 3 -22.333 9 -31c4.66699 -7.33301 10.334 -11 17.001 -11c21.333 0 63.333 20.333 126 61l53 35l20 -37c-84 -62.667 -149 -108.334 -195 -137.001c-60 -36.667 -104.333 -55 -133 -55c-40.667 0 -61 27 -61 81
c0 24 5 59.333 15 106c4.66699 20 7.66699 32.667 9 38l1 6c1.33301 3.33301 2 5.33301 2 6l98 475l-194 -121l-25 60z" />
    <glyph glyph-name="OE" unicode="&#x152;" horiz-adv-x="2105" 
d="M1352 684l-88 -517.999c-2.66699 -16.667 -4 -37.667 -4 -63v-9c64 -9.33301 138.333 -14 223 -14c52.667 0 112.667 2 180 6s110 8 128 12c24 6 42.333 18.333 55 37c10 14 19.333 38 28 72l33 123h55l-10 -54c-18 -95.333 -29 -162.666 -33 -201.999l-8 -74l-68 -2
c-66 -2.66699 -114 -4 -144 -4c-27.333 0 -90 1 -188 3c-108 2 -194.667 3 -260 3c-10.667 0 -20.667 -0.333008 -30 -1l-49 -2c-43.333 -2 -66.333 -3 -69 -3c-16.667 0 -25 5.33301 -25 16c0 6.66699 1.66699 17 5 31l32 144c-52 -56 -95 -95.667 -129 -119
c-100.667 -68.667 -217.667 -103 -351 -103c-157.333 0 -280 44.667 -368 134c-101.333 102.667 -152 250.667 -152 444c0 192 47.333 367 142 525c80 134.667 184.333 234.667 313 300c104 53.333 219.333 80 346 80c92.667 0 171.334 -15.333 236.001 -46
c47.333 -22 97 -63.333 149 -124l14 101c2.66699 17.333 5.66699 28.333 9 33c4 4.66699 10.333 7 19 7l24 -1h18c38 -3.33301 74.667 -5 110 -5c7.33301 0 41 0.666992 101 2l182 3c35.333 0.666992 67 1 95 1c60.667 0 111.667 -2 153 -6
c-22 -76.667 -36.333 -180.334 -43 -311.001h-49l-17 182c-2.66699 32.667 -79.334 49 -230.001 49c-56 0 -114.667 -1.66699 -176 -5l-44 -3c-8 -14.667 -14.333 -36.334 -19 -65.001l-80 -488h35c153.333 0 303 4 449 12l8 -14l-39 -92l-54 2c-84 4 -156 6 -216 6h-199z
M1170 553.001l59.001 345.999c6.66699 38 10 77.333 10 118c0 98 -24 175.333 -72 232c-62 74.667 -159.667 112 -293 112c-144.667 0 -262 -47 -352 -141c-60.667 -63.333 -109 -138 -145 -224c-54.667 -130 -82 -267.333 -82 -412c0 -198 47.333 -345.667 142 -443
c59.333 -61.333 135.666 -92 228.999 -92c145.333 0 269.333 67.333 372 202c68.667 90.667 112.667 191.334 132 302.001z" />
    <glyph glyph-name="oe" unicode="&#x153;" horiz-adv-x="1370" 
d="M787 430c-12.667 -71.333 -19.002 -127.666 -19.002 -168.999c0 -64 16.333 -112 49 -144c28.667 -29.333 66.334 -44 113.001 -44c75.333 0 169 40.667 281 122l45 32l12 -47c-79.333 -64.667 -147.333 -112.667 -204 -144c-69.333 -39.333 -138 -59 -206 -59
c-80 0 -141 26.667 -183 80c-18 22 -31.333 51.333 -40 88c-48 -49.333 -89.333 -85.333 -124 -108c-62.667 -40 -132 -60 -208 -60c-178.667 0 -268 111 -268 333c0 203.333 58.667 370.666 176 501.999c68.667 76.667 148.334 129.334 239.001 158.001
c38 12 74.667 18 110 18c76.667 0 141 -25.667 193 -77c22.667 -22.667 44.667 -56 66 -100c82.667 61.333 150 106 202 134c54 28.667 105.667 43 155 43c48 0 87.667 -15.667 119 -47c30 -30 45 -70 45 -120c0 -92.667 -52 -172.334 -156 -239.001
c-74.667 -48 -207 -98.667 -397 -152zM484.998 910c-64.667 0 -118.669 -28.665 -162.002 -85.998c-21.333 -28.667 -42.666 -71.334 -63.999 -128.001s-37.666 -114.334 -48.999 -173.001c-12.667 -64 -19 -133.667 -19 -209c0 -120 29.333 -197.667 88 -233
c28 -17.333 63 -26 105 -26c77.333 0 135.666 33.667 174.999 101c40.667 68 72.334 159.667 95.001 275c17.333 85.333 26 164.333 26 237c0 161.333 -65 242 -195 242zM794.996 479.002c262 60.667 393 165.332 393 313.999c0 72.667 -31 109 -93 109
c-60.667 0 -116.667 -25.333 -168 -76c-38 -38.667 -67.667 -90 -89 -154c-12.667 -37.333 -27 -101.666 -43 -192.999z" />
    <glyph glyph-name="Scedilla" unicode="&#x15e;" horiz-adv-x="1139" 
d="M451 -35l-66.9961 -96.001c17.333 2.66699 33 4 47 4c48.667 0 88 -10.667 118 -32c35.333 -25.333 53 -62.333 53 -111c0 -58 -26 -102 -78 -132c-46.667 -27.333 -105 -41 -175 -41c-46.667 0 -106.667 13.667 -180 41l35 60c60.667 -19.333 108 -29 142 -29
c36 0 64 10 84 30c16.667 17.333 25 38 25 62c0 20 -6.66699 36.667 -20 50c-18.667 18.667 -44 28 -76 28c-14.667 0 -33 -3 -55 -9l-14 -3l-18 16l102 161c-110 6 -206 31.667 -288 77c22 100.667 38.667 204.334 50 311.001h61v-203c43.333 -30 82.666 -51 117.999 -63
c50 -16.667 103.667 -25 161 -25c110.667 0 198.667 32.667 264 98c61.333 61.333 92 138.666 92 231.999c0 116.667 -55.333 188.334 -166 215.001l-195 47c-94 23.333 -160 61.666 -198 114.999c-34.667 50 -52 115.667 -52 197c0 120 43.333 222.667 130 308
c54.667 54 118.667 96.333 192 127s147.666 46 222.999 46c91.333 0 181.666 -23.333 270.999 -70c-26 -82 -43.333 -174 -52 -276h-61v155c-27.333 29.333 -54 50 -80 62c-44.667 20.667 -94.334 31 -149.001 31c-98 0 -178.333 -31.333 -241 -94
c-56.667 -56 -85 -127 -85 -213c0 -72.667 17.667 -128.667 53 -168c30.667 -34 78.667 -58 144 -72l133 -29c90 -19.333 157.667 -47 203 -83c61.333 -48 92 -118 92 -210c0 -99.333 -31 -190.666 -93 -273.999c-75.333 -102 -182 -174 -320 -216
c-40.667 -12 -84 -20 -130 -24z" />
    <glyph glyph-name="scedilla" unicode="&#x15f;" horiz-adv-x="797" 
d="M337 -9l-83.999 -122.002c18.667 2.66699 34.334 4 47.001 4c48 0 87 -10.667 117 -32c35.333 -25.333 53 -62.333 53 -111c0 -58 -25.667 -102 -77 -132c-46.667 -27.333 -105.334 -41 -176.001 -41c-46.667 0 -106.334 14 -179.001 42l35 59
c59.333 -19.333 106.333 -29 141 -29c36 0 64 10 84 30c16.667 16.667 25 37.334 25 62.001c0 20 -6.66699 36.667 -20 50c-18.667 18.667 -44 28 -76 28c-14.667 0 -32.667 -2.66699 -54 -8l-14 -4l-18 16l110 175c-9.33301 -0.666992 -16.333 -1 -21 -1
c-66 0 -136.667 18.667 -212 56c21.333 88.667 36.333 178.667 45 270h51v-172c56.667 -48 121 -72 193 -72c74.667 0 134.334 22 179.001 66c40 39.333 60 92 60 158c0 47.333 -13 81 -39 101c-18.667 14 -46.667 24.667 -84 32l-129 24c-132 25.333 -198 94.333 -198 207
c0 68.667 25.333 129 76 181c48.667 50 102.167 89.167 160.5 117.5s114.5 42.5 168.5 42.5c62.667 0 131 -18.667 205 -56c-19.333 -92 -32.333 -169.333 -39 -232h-47v113c-14 24 -35.333 44 -64 60c-40 22 -83.333 33 -130 33c-62.667 0 -115 -21 -157 -63
c-34.667 -35.333 -52 -78.666 -52 -129.999c0 -45.333 14.333 -79 43 -101c21.333 -16.667 60.666 -30.334 117.999 -41.001l88 -16c74 -14 128 -36 162 -66c36.667 -32 55 -76.333 55 -133c0 -71.333 -21.667 -132.333 -65 -183
c-48 -55.333 -108.333 -102.666 -181 -141.999c-30 -16.667 -63.333 -30 -100 -40z" />
    <glyph glyph-name="Scaron" unicode="&#x160;" horiz-adv-x="1139" 
d="M924 1100l0.00390625 155c-27.333 29.333 -54 50 -80 62c-44.667 20.667 -94.334 31 -149.001 31c-98 0 -178.333 -31.333 -241 -94c-56.667 -56 -85 -127 -85 -213c0 -72.667 17.667 -128.667 53 -168c30.667 -34 78.667 -58 144 -72l133 -29
c90 -19.333 157.667 -47 203 -83c61.333 -48 92 -118 92 -210c0 -128 -48.333 -239 -145 -333c-58 -57.333 -126.5 -102.166 -205.5 -134.499s-158.833 -48.5 -239.5 -48.5c-109.333 0 -215.333 26 -318 78c22 100 38.667 203.667 50 311h61v-203
c43.333 -30 82.666 -51 117.999 -63c50 -16.667 103.667 -25 161 -25c110.667 0 198.667 32.667 264 98c61.333 61.333 92 138.666 92 231.999c0 116.667 -55.333 188.334 -166 215.001l-195 47c-94 23.333 -160 61.666 -198 114.999c-34.667 50 -52 115.667 -52 197
c0 120 43.333 222.667 130 308c54.667 54 118.667 96.333 192 127s147.666 46 222.999 46c91.333 0 181.666 -23.333 270.999 -70c-26 -82 -43.333 -174 -52 -276h-61zM811.004 1511h-94l-197 346h76l184 -215l291 215h74z" />
    <glyph glyph-name="scaron" unicode="&#x161;" horiz-adv-x="797" 
d="M63 303h50.999v-172c56.667 -48 121 -72 193 -72c74.667 0 134.334 22 179.001 66c40 39.333 60 92 60 158c0 47.333 -13 81 -39 101c-18.667 14 -46.667 24.667 -84 32l-129 24c-132 25.333 -198 94.333 -198 207c0 68.667 25.333 129 76 181
c48.667 50 102.167 89.167 160.5 117.5s114.5 42.5 168.5 42.5c62.667 0 131 -18.667 205 -56c-19.333 -92 -32.333 -169.333 -39 -232h-47v113c-14 24 -35.333 44 -64 60c-40 22 -83.333 33 -130 33c-62.667 0 -115 -21 -157 -63c-34.667 -35.333 -52 -78.666 -52 -129.999
c0 -45.333 14.333 -79 43 -101c21.333 -16.667 60.666 -30.334 117.999 -41.001l88 -16c74 -14 128 -36 162 -66c36.667 -32 55 -76.333 55 -133c0 -71.333 -21.667 -132.333 -65 -183c-48.667 -56 -109 -103.667 -181 -143c-66 -35.333 -132.333 -53 -199 -53
c-71.333 0 -144.666 18.667 -219.999 56c21.333 88.667 36.333 178.667 45 270zM523.999 1044h-94l-197 347h76l184 -216l291 216h74z" />
    <glyph glyph-name="Ydieresis" unicode="&#x178;" horiz-adv-x="1366" 
d="M106 1325l31.9971 22.002c50.667 34.667 91.334 64.667 122.001 90l8 7c56.667 -5.33301 99.334 -19 128.001 -41c74.667 -57.333 142.334 -182 203.001 -374c44 -140 80.333 -271.333 109 -394c54.667 145.333 142 299.666 262 462.999
c94.667 125.333 179.667 212.333 255 261c42.667 27.333 95 50 157 68l-12 -145c-50.667 -10.667 -91.667 -24.667 -123 -42c-90 -48.667 -197.667 -167.667 -323 -357c-49.333 -75.333 -90.666 -147.333 -123.999 -216s-53 -123 -59 -163l-54 -344
c-2 -11.333 -3 -25.666 -3 -42.999c0 -18 4 -31.333 12 -40c10.667 -11.333 31 -18 61 -20l101 -6l-7 -56h-54l-214 5c-24 0 -77.333 -1 -160 -3l-108 -3l8 57l98 6c43.333 4 69 14.333 77 31c12 18 26 74 42 168l43 258c0.666992 3.33301 1 6.66602 1 9.99902
c0 26.667 -13.167 86.667 -39.5 180s-55.833 183.666 -88.5 270.999c-44 120 -84.333 203.333 -121 250c-39.333 50 -83 75 -131 75c-20.667 0 -51.334 -8 -92.001 -24zM667.997 1735c26 0 49.668 -10.333 71.001 -31c20 -20 30 -43.333 30 -70s-10.667 -51 -32 -73
c-20.667 -20.667 -44.334 -31 -71.001 -31c-26 0 -49.333 10.333 -70 31c-21.333 22 -32 46.667 -32 74c0 35.333 16.667 63.333 50 84c16.667 10.667 34.667 16 54 16zM1078 1735c26 0 49.668 -10.333 71.001 -31c20 -20 30 -43.333 30 -70s-10.667 -51 -32 -73
c-20.667 -20.667 -44.334 -31 -71.001 -31c-26 0 -49.333 10.333 -70 31c-21.333 22 -32 46.667 -32 74c0 35.333 16.667 63.333 50 84c16.667 10.667 34.667 16 54 16z" />
    <glyph glyph-name="Zcaron" unicode="&#x17d;" horiz-adv-x="1366" 
d="M41 -6v44.999l1028 1296h-368c-153.333 0 -276.333 -9 -369 -27l-13 -41c-22 -73.333 -36 -131.666 -42 -174.999h-54c14.667 132 22.334 240.333 23.001 325l241 -3l216 -2l217 -2c11.333 0 29 0.333008 53 1l332 6v-41l-1032 -1296h575c91.333 0 178 9 260 27l16 45
c21.333 58 37.666 104.333 48.999 139l15 45h54c-28 -143.333 -44 -257.333 -48 -342l-135 2c-148 2.66699 -325.667 4 -533 4c-164 0 -325.667 -2 -485 -6zM816 1511h-94l-197 346h76l184 -215l291 215h74z" />
    <glyph glyph-name="zcaron" unicode="&#x17e;" horiz-adv-x="909" 
d="M-2 43l721.999 820.001c-60 -32 -123.333 -48 -190 -48c-41.333 0 -96.333 7 -165 21c-36.667 7.33301 -67.667 11 -93 11c-23.333 0 -49.666 -3.66699 -78.999 -11l-62 -119h-43l66 250c47.333 14 89 21 125 21c26 0 68.333 -8 127 -24l36 -9
c107.333 -28.667 199 -43 275 -43c27.333 0 50.333 9.33301 69 28l48 48l18 -19l-12 -65l-694 -784c68 29.333 132.333 44 193 44c44 0 103.333 -8.33301 178 -25l36 -8c45.333 -10 78.666 -15 99.999 -15c40.667 0 67.334 17.333 80.001 52l45 123h45
c-20 -84.667 -40.333 -182.334 -61 -293.001c-48 -14 -81.667 -21 -101 -21c-52 0 -133 13.333 -243 40c-97.333 24 -168.666 36 -213.999 36c-68.667 0 -131.334 -21.667 -188.001 -65zM581.999 1044h-94l-197 347h76l184 -216l291 216h74z" />
    <glyph glyph-name="florin" unicode="&#x192;" 
d="M10 -565l24.998 163.998l22 8c25.333 -28 56.666 -42 93.999 -42c32.667 0 62.334 20.667 89.001 62c12.667 19.333 23.334 44 32.001 74l3 12c13.333 46 22.666 82.333 27.999 109l172 935h-232l19 70h223c25.333 114 56.333 208.667 93 284
c50.667 103.333 109.334 189 176.001 257c54.667 55.333 103.667 83 147 83c2.66699 0 6 -0.333008 10 -1l51 -11l-24 -161c-36.667 31.333 -73.667 47 -111 47c-30 0 -55.667 -11.333 -77 -34c-17.333 -18 -32.666 -52.333 -45.999 -103
c-13.333 -53.333 -29 -130.666 -47 -231.999l-22 -129h229l-16 -70h-224l-104 -506c-38.667 -192 -97 -375.667 -175 -551c-41.333 -90.667 -80.333 -150.667 -117 -180c-74 -55.333 -146.667 -83.666 -218 -84.999z" />
    <glyph glyph-name="circumflex" unicode="&#x2c6;" horiz-adv-x="682" 
d="M537 1391l180 -347h-74l-168 213l-280 -213h-80l322 347h100z" />
    <glyph glyph-name="caron" unicode="&#x2c7;" horiz-adv-x="682" 
d="M504 1044h-94l-197 347h76l184 -216l291 216h74z" />
    <glyph glyph-name="macron" unicode="&#x2c9;" horiz-adv-x="682" 
d="M791 1206l-23 -104h-616l23 104h616z" />
    <glyph glyph-name="breve" unicode="&#x2d8;" horiz-adv-x="682" 
d="M188 1386l58.9961 0.000976562c12.667 -136.667 87.334 -205 224.001 -205c70.667 0 130.334 22.667 179.001 68c30.667 28 62.334 73.667 95.001 137h59c-18 -66.667 -35.333 -115.334 -52 -146.001c-65.333 -120 -163.666 -180 -294.999 -180
c-108.667 0 -185 39.667 -229 119c-26 47.333 -39.333 116.333 -40 207z" />
    <glyph glyph-name="dotaccent" unicode="&#x2d9;" horiz-adv-x="682" 
d="M470 1321c28.667 0 54.333 -11.333 77 -34c21.333 -21.333 32 -46.333 32 -75c0 -30 -11.333 -56.333 -34 -79c-22 -22 -47.667 -33 -77 -33c-28.667 0 -54 11 -76 33c-22.667 22.667 -34 49 -34 79c0 40 18 70.667 54 92c18 11.333 37.333 17 58 17z" />
    <glyph glyph-name="ring" unicode="&#x2da;" horiz-adv-x="682" 
d="M533 1470c56 0 104.333 -20.667 145 -62c38.667 -38.667 58 -86.334 58 -143.001c0 -56 -19.333 -103.333 -58 -142c-40.667 -41.333 -89.667 -62 -147 -62s-106.333 20.667 -147 62c-38.667 38.667 -58 86.334 -58 143.001c0 75.333 32 133 96 173
c33.333 20.667 70.333 31 111 31zM530 1396c-36.667 0 -66.6641 -11.333 -89.9971 -34c-24 -24 -36 -56.333 -36 -97c0 -40 12 -72 36 -96c23.333 -22.667 53.666 -34 90.999 -34s67.666 11.333 90.999 34c24 24 36 56.333 36 97c0 52 -19 89.333 -57 112
c-20.667 12 -44.334 18 -71.001 18z" />
    <glyph glyph-name="ogonek" unicode="&#x2db;" horiz-adv-x="682" 
d="M373 -240l28.999 -8c-64 -117.333 -135.667 -176 -215 -176c-30 0 -54 9.33301 -72 28c-24.667 24.667 -37 59.667 -37 105c0 37.333 9.33301 74 28 110c15.333 28 47.333 68 96 120l21 24h70l-4 -5c-5.33301 -6 -10.333 -12 -15 -18
c-34.667 -40 -56.667 -70.667 -66 -92c-10 -21.333 -15 -42.333 -15 -63c0 -24.667 6.33301 -45.667 19 -63c14.667 -20.667 34.334 -31 59.001 -31c30.667 0 64.667 23 102 69z" />
    <glyph glyph-name="tilde" unicode="&#x2dc;" horiz-adv-x="682" 
d="M188 1096h-59.002c18 66 40 115 66 147c34 42.667 79.333 64 136 64c37.333 0 80 -9.66699 128 -29l123 -49c16.667 -6.66699 34.667 -10 54 -10c22.667 0 41.667 6.66699 57 20c12.667 11.333 28.667 34 48 68h58c-10.667 -56 -28.667 -101 -54 -135
c-37.333 -50.667 -85.333 -76 -144 -76c-32.667 0 -76.667 11 -132 33l-78 30l-5 2c-1.33301 0.666992 -6 2.66699 -14 6c-31.333 12.667 -57 19 -77 19c-23.333 0 -42.666 -5.33301 -57.999 -16c-15.333 -11.333 -31.666 -36 -48.999 -74z" />
    <glyph glyph-name="hungarumlaut" unicode="&#x2dd;" horiz-adv-x="682" 
d="M94 1061l223.001 381c21.333 36 46.666 54 75.999 54c49.333 0 74 -20.667 74 -62c0 -11.333 -3 -22.333 -9 -33c-2.66699 -4.66699 -12.667 -17 -30 -37l-266 -303h-68zM416.001 1061l223.001 380.999c21.333 36 46.666 54 75.999 54c48.667 0 73 -20.667 73 -62
c0 -17.333 -12.667 -40.666 -38 -69.999l-267 -303h-67z" />
    <glyph glyph-name="pi" unicode="&#x3c0;" horiz-adv-x="1124" 
d="M61 713h-40.998c30 106 71.667 185.667 125 239c42.667 41.333 89 64.333 139 69c15.333 2 39 3 71 3h716v-182h-257c-16.667 -130 -25 -284 -25 -462c0 -57.333 8.33301 -102.333 25 -135c24.667 -47.333 60 -71 106 -71c67.333 0 106 50 116 150h49
c-4 -85.333 -18 -151.333 -42 -198c-51.333 -102 -118 -153 -200 -153c-66.667 0 -117.667 35.333 -153 106c-33.333 68 -50 152.667 -50 254c0 146 14 315.667 42 509h-223l-25 -264c-22.667 -248.667 -44.334 -405 -65.001 -469c-28 -90.667 -74.667 -136 -140 -136
c-34 0 -62 12.667 -84 38c-18.667 20.667 -28 45.667 -28 75c0 32.667 15.333 66 46 100c7.33301 8.66699 19.666 20.667 36.999 36c62 58 96.333 113.333 103 166l54 454h-95c-56.667 0 -101.667 -14 -135 -42c-14.667 -12.667 -36.667 -41.667 -66 -87z" />
    <glyph glyph-name="endash" unicode="&#x2013;" 
d="M1024 467h-1044l20 102h1045z" />
    <glyph glyph-name="emdash" unicode="&#x2014;" horiz-adv-x="2048" 
d="M2048 467h-2068l20 102h2069z" />
    <glyph glyph-name="quoteleft" unicode="&#x2018;" horiz-adv-x="569" 
d="M178 1000l-18 37c94 180 190.333 326 289 438l65 27l15 -19c-92.667 -142 -148.667 -286 -168 -432c-54 -9.33301 -115 -26.333 -183 -51z" />
    <glyph glyph-name="quoteright" unicode="&#x2019;" horiz-adv-x="569" 
d="M510 1502l19 -36.999c-94.667 -180.667 -191 -327 -289 -439l-66 -26l-14 18c92 142 148 286 168 432c54 9.33301 114.667 26.666 182 51.999z" />
    <glyph glyph-name="quotesinglbase" unicode="&#x201a;" horiz-adv-x="569" 
d="M229 195l180.001 50.999l23 -25c-86.667 -174 -184.334 -322.667 -293.001 -446l-66 -25l-18 14c80 112.667 138 256.334 174 431.001z" />
    <glyph glyph-name="quotedblleft" unicode="&#x201c;" 
d="M219 1000l-18 37c94 180 190.333 326 289 438l65 27l15 -19c-92.667 -142 -148.667 -286 -168 -432c-54 -9.33301 -115 -26.333 -183 -51zM623 1000l-19 37c94.667 180 191 326 289 438l66 27l14 -19c-92 -142 -148 -286 -168 -432
c-54 -9.33301 -114.667 -26.333 -182 -51z" />
    <glyph glyph-name="quotedblright" unicode="&#x201d;" 
d="M551 1502l19 -36.999c-94.667 -180.667 -191 -327 -289 -439l-66 -26l-14 18c92 142 148 286 168 432c54 9.33301 114.667 26.666 182 51.999zM955 1502l18 -36.999c-94.667 -180.667 -191 -327 -289 -439l-65 -26l-15 18c92 142 148 286 168 432
c54 9.33301 115 26.666 183 51.999z" />
    <glyph glyph-name="quotedblbase" unicode="&#x201e;" 
d="M262 195l180.001 50.999l23 -25c-86.667 -174 -184.334 -322.667 -293.001 -446l-66 -25l-18 14c80 112.667 138 256.334 174 431.001zM666.001 194.999l180 50.999l22 -25c-86 -174 -183.667 -322.667 -293 -446l-65 -25l-19 14c80 112.667 138.333 256.334 175 431.001
z" />
    <glyph glyph-name="dagger" unicode="&#x2020;" 
d="M125 967l348 -12.999c20.667 125.333 38.334 277.666 53.001 456.999l4 6c31.333 -3.33301 59.333 -5 84 -5s52.667 1.66699 84 5l6 -6c-16.667 -60.667 -39.667 -165 -69 -313l-29 -144l346 10l8 -8l-16 -116l-10 -9l-349 13l-20 -140
c-22.667 -152.667 -54 -384 -94 -694l-11 -10c-32.667 2 -61.334 3 -86.001 3c-24 0 -52.667 -1 -86 -3l-6 6c30.667 122.667 59.667 247.5 87 374.5s46.333 224.833 57 293.5l26 170l-346 -11l-8 9l16 116z" />
    <glyph glyph-name="daggerdbl" unicode="&#x2021;" 
d="M215 1003l324.999 -12l12 82c15.333 100.667 27.666 212 36.999 334l11 10c28.667 -3.33301 54.334 -5 77.001 -5s48.667 1.66699 78 5l2 -10c-32 -139.333 -56.333 -250.666 -73 -333.999l-17 -78l328 12l16 -16l-12 -102l-18 -11l-332 15l-25 -154
c-12.667 -77.333 -19 -133.333 -19 -168c0 -6.66699 0.333008 -16.334 1 -29.001c-21.333 -45.333 -41.333 -114 -60 -206l-28 -144l327 13l17 -17l-13 -102l-18 -10l-332 14l-24 -139c-6.66699 -42.667 -15 -130.334 -25 -263.001l-16 -20c-27.333 2 -53.333 3 -78 3
c-25.333 0 -51.333 -1 -78 -3l-4 20l96 402l-332 -14l-18 10l20 102l23 12l326 -12l26 154c14.667 80.667 22.334 150.334 23.001 209.001c13.333 27.333 23.333 52.333 30 75c9.33301 37.333 20 88 32 152l22 115l-332 -15l-18 11l20 102z" />
    <glyph glyph-name="bullet" unicode="&#x2022;" 
d="M533 1078c92.667 0 173.999 -34.666 243.999 -103.999c69.333 -69.333 104 -152.333 104 -249c0 -96 -34.667 -178.667 -104 -248s-152.333 -104 -249 -104c-75.333 0 -143.666 22.333 -204.999 67c-63.333 46 -106.666 105.333 -129.999 178
c-11.333 34.667 -17 70 -17 106c0 99.333 34.667 182.666 104 249.999c71.333 69.333 155.666 104 252.999 104z" />
    <glyph glyph-name="ellipsis" unicode="&#x2026;" horiz-adv-x="2048" 
d="M333 229c24.667 0 45.666 -8.66699 62.999 -26c18.667 -18.667 28 -42.667 28 -72c0 -42 -14.667 -78 -44 -108c-21.333 -22 -48 -33 -80 -33c-27.333 0 -49.333 8 -66 24c-16.667 16.667 -25 40.667 -25 72c0 44 14.667 80.333 44 109
c22.667 22.667 49.334 34 80.001 34zM1015 229c24.667 0 45.332 -8.66699 61.999 -26c19.333 -18.667 29 -42.667 29 -72c0 -42 -14.667 -78 -44 -108c-21.333 -22 -48 -33 -80 -33c-27.333 0 -49.333 8 -66 24c-16.667 16.667 -25 40.667 -25 72c0 44 14.667 80.333 44 109
c22.667 22.667 49.334 34 80.001 34zM1697 229c24.667 0 45.332 -8.66699 61.999 -26c19.333 -18.667 29 -42.667 29 -72c0 -42 -14.667 -78 -44 -108c-22 -22 -48.667 -33 -80 -33c-27.333 0 -49.333 8 -66 24c-16.667 16.667 -25 40.667 -25 72c0 44 14.667 80.333 44 109
c22.667 22.667 49.334 34 80.001 34z" />
    <glyph glyph-name="perthousand" unicode="&#x2030;" horiz-adv-x="2048" 
d="M473 1431c67.333 0 122.668 -21.998 166.001 -65.998c47.333 -46.667 71 -110.334 71 -191.001c0 -104.667 -36.333 -193.334 -109 -266.001c-62 -62 -135.333 -93 -220 -93c-66.667 0 -119.334 19.667 -158.001 59c-50.667 51.333 -76 121.333 -76 210
c0 77.333 22.333 146.333 67 207c68.667 93.333 155 140 259 140zM469.002 1384c-49.333 0 -90.666 -29.3311 -123.999 -87.998c-20 -34.667 -36.167 -80.334 -48.5 -137.001s-18.5 -112.334 -18.5 -167.001c0 -86.667 35.667 -130 107 -130
c51.333 0 93.666 29.333 126.999 88c19.333 34.667 35.333 80.5 48 137.5s19 112.833 19 167.5c0 86 -36.667 129 -110 129zM1003 616.004c67.333 0 123.002 -21.999 167.002 -65.999c47.333 -46.667 71 -110.334 71 -191.001c0 -104.667 -36.667 -193.334 -110 -266.001
c-62 -62 -135.333 -93 -220 -93c-66.667 0 -119.334 20 -158.001 60c-50.667 50.667 -76 120.334 -76 209.001c0 77.333 22.333 146.333 67 207c69.333 93.333 155.666 140 258.999 140zM1000 569.005c-49.333 0 -91 -29.333 -125 -88c-19.333 -34 -35.333 -79.667 -48 -137
s-19 -113 -19 -167c0 -86.667 35.667 -130 107 -130c51.333 0 94 29.333 128 88c19.333 34.667 35.333 80.5 48 137.5s19 112.833 19 167.5c0 86 -36.667 129 -110 129zM1664 616.005c68 0 123.667 -21.999 167 -65.999c47.333 -46.667 71 -110.334 71 -191.001
c0 -104.667 -36.667 -193.334 -110 -266.001c-61.333 -62 -134.333 -93 -219 -93c-66.667 0 -119.667 20 -159 60c-50 50.667 -75 120.334 -75 209.001c0 77.333 22.333 146.333 67 207c68.667 93.333 154.667 140 258 140zM1661 569.006
c-49.333 0 -90.666 -29.3311 -123.999 -87.998c-19.333 -34.667 -35.333 -80.334 -48 -137.001s-19 -112.334 -19 -167.001c0 -86.667 35.667 -130 107 -130c51.333 0 93.666 29.333 126.999 88c19.333 34.667 35.333 80.5 48 137.5s19 112.833 19 167.5
c0 86 -36.667 129 -110 129zM192.004 -11.9922l934 1480h84l-926 -1480h-92z" />
    <glyph glyph-name="guilsinglleft" unicode="&#x2039;" horiz-adv-x="682" 
d="M426 143l-309 371v33l397 354l39 -33l-280 -344l194 -350z" />
    <glyph glyph-name="guilsinglright" unicode="&#x203a;" horiz-adv-x="682" 
d="M256 901l309 -371v-32l-397 -355l-39 33l280 344l-194 350z" />
    <glyph glyph-name="franc" unicode="&#x20a3;" horiz-adv-x="1366" 
d="M655 722l-50.001 -114.001c-63.333 3.33301 -112 5 -146 5c-32 0 -82.333 -1.66699 -151 -5l-66 -372c-6.66699 -38.667 -10 -73 -10 -103c0 -37.333 15.333 -61 46 -71c14.667 -4.66699 58 -8.33398 130 -11.001l-11 -61c-122 8 -212.333 12 -271 12
s-148.334 -4 -269.001 -12l11 61c38 2.66699 65 4.33398 81 5.00098c48.667 2.66699 79.334 16.334 92.001 41.001c6 14.667 13 44.667 21 90l8 49l166 938c2.66699 14.667 5.33398 31 8.00098 49l6 45c2.66699 14 4 26.333 4 37c0 24.667 -17.333 39.667 -52 45
c0 0.666992 -44 3.33398 -132 8.00098l11 61c128 -8 222.333 -12 283 -12c31.333 0 99 1.66699 203 5c146.667 5.33301 284.667 7.66602 414 6.99902c-12 -69.333 -24.333 -173.666 -37 -312.999h-56c-14.667 124.667 -25 190.667 -31 198
c-6.66699 7.33301 -35.5 13.666 -86.5 18.999s-110.5 8 -178.5 8c-52.667 0 -105 -1.66699 -157 -5l-109 -618h43c96 0 191.333 4.66699 286 14zM878.999 9.99902l-136 -33l-17 15l9 35c40.667 157.333 66.667 261 78 311c15.333 68 33.333 168.333 54 301
c4.66699 33.333 8 55.666 10 66.999c4 22 6 40 6 54c0 24.667 -12 37 -36 37c-14 0 -46 -16.667 -96 -50l-14 -9l-23 42l9 6l114 75c79.333 52.667 132.666 79 159.999 79c19.333 0 34 -8.66699 44 -26c6.66699 -10.667 10 -22.667 10 -36s-3.66699 -38.666 -11 -75.999
l-54 -281c9.33301 20.667 32 63.167 68 127.5l88 153.5c36 59.333 70.333 98.333 103 117c24.667 14 49 21 73 21c12.667 0 25.334 -3.33301 38.001 -10c-20 -100.667 -32.667 -177.667 -38 -231h-32c-16 25.333 -36.667 38 -62 38c-35.333 0 -69.333 -26.333 -102 -79
c-126 -204 -207 -420 -243 -648z" />
    <glyph glyph-name="trademark" unicode="&#x2122;" horiz-adv-x="2048" 
d="M1624 625h22c38 0.666992 62 9 72 25c6.66699 12 10 35 10 69v620l-311 -755h-17l-313 750v-642c0.666992 -24 7.33398 -40.667 20.001 -50c12.667 -7.33301 38.667 -13 78 -17v-41h-248v41c42 4 69 10.333 81 19c11.333 8.66699 17.333 24.667 18 48v606
c0 35.333 -5.33301 57 -16 65c-6 7.33301 -18.333 11 -37 11h-29v37h223l264 -630l271 630h229v-37h-43c-36 0 -54.333 -13.667 -55 -41v-614c0.666992 -36.667 4.66699 -60.667 12 -72c9.33301 -14 32.666 -21.333 69.999 -22h22v-41h-323v41zM266 625l12.998 -0.00195312
c52.667 0 86 5.66699 100 17c10.667 10.667 16 31.667 16 63v657h-84c-40 0 -70.667 -3.66699 -92 -11s-37 -19.666 -47 -36.999c-11.333 -20 -17.666 -53.333 -18.999 -100h-47v197h692v-197h-47c-1.33301 50 -9 85.333 -23 106c-18 26.667 -63 40.667 -135 42h-83v-661
c0 -33.333 7.33301 -54.666 22 -63.999c16.667 -8 47.334 -12 92.001 -12h14v-41h-372v41z" />
    <glyph glyph-name="Omega" unicode="&#x2126;" horiz-adv-x="1573" 
d="M668 0l-598 0.00195312v313h49c8 -44.667 23.167 -77.334 45.5 -98.001s54.5 -31 96.5 -31h299l-7 78c-66 23.333 -120.667 49 -164 77c-78 50.667 -139 114.667 -183 192c-44.667 78.667 -67 162.334 -67 251.001c0 68 14 137.667 42 209s66.667 135.333 116 192
c128 148 292 222 492 222s364 -74 492 -222c49.333 -56.667 88 -120.667 116 -192s42 -141 42 -209c0 -127.333 -43 -240 -129 -338c-68.667 -78 -163.667 -138.667 -285 -182l-7 -78h299c58.667 0.666992 98 20.667 118 60c12 22 20 45 24 69h49v-313h-598l36 316
c87.333 50 155.333 123.333 204 220c39.333 78.667 59 160.667 59 246c0 114 -28.333 222 -85 324c-36.667 66.667 -84.167 118.167 -142.5 154.5s-122.5 54.5 -192.5 54.5c-101.333 0 -188.333 -36.333 -261 -109c-58 -58.667 -101.667 -137.334 -131 -236.001
c-18.667 -64.667 -28 -127.334 -28 -188.001c0 -98.667 26 -192 78 -280c47.333 -80 109 -142 185 -186z" />
    <glyph glyph-name="partialdiff" unicode="&#x2202;" horiz-adv-x="1012" 
d="M134 1484c103.333 38.667 191.662 58.002 264.995 58.002c128.667 0 241.334 -49.333 338.001 -148c139.333 -142.667 209 -332.334 209 -569.001c0 -128.667 -18.333 -262 -55 -400c-51.333 -192 -132.666 -321 -243.999 -387c-64.667 -38.667 -134.667 -58 -210 -58
c-101.333 0 -189 36 -263 108c-80.667 77.333 -121 173.666 -121 288.999c0 134 47.333 251 142 351c72.667 77.333 158.334 116 257.001 116c56.667 0 111.334 -12.333 164.001 -37c34.667 -16.667 83.334 -49.667 146.001 -99c9.33301 86 14 155.333 14 208
c0 118 -16 221 -48 309c-54 146.667 -147 220 -279 220c-67.333 0 -144 -22 -230 -66zM748.996 639.002c-36.667 36.667 -66.333 61.999 -89 75.999c-40.667 24.667 -82.667 37 -126 37c-92 0 -167.667 -49 -227 -147c-50.667 -84 -76 -177 -76 -279
c0 -74.667 12.333 -137.667 37 -189c30.667 -62.667 78.334 -94 143.001 -94c60 0 116 27.667 168 83c55.333 58.667 97.666 146.334 126.999 263.001c7.33301 31.333 16.833 80.333 28.5 147s16.5 101 14.5 103z" />
    <glyph glyph-name="Delta" unicode="&#x2206;" horiz-adv-x="1253" 
d="M12 0l657 1408l576 -1408h-1233zM157 104h824l-388 939z" />
    <glyph glyph-name="product" unicode="&#x220f;" horiz-adv-x="1686" 
d="M51 -254v54h6c72.667 0.666992 123 21.667 151 63c14.667 22 23.334 48.333 26.001 79c2 22 3 53.333 3 94v1212c0 66.667 -3 109 -9 127c-18 70.667 -75 107 -171 109h-6v54h1593v-54h-6c-72.667 -0.666992 -123 -22 -151 -64
c-14.667 -21.333 -23.334 -47.333 -26.001 -78c-2 -22 -3 -53.333 -3 -94v-1212c0 -66.667 3 -109 9 -127c18 -70.667 75 -107 171 -109h6v-54h-594v54h6c73.333 0.666992 123.666 21.667 150.999 63c15.333 22 24.333 48.333 27 79c2 22.667 3 54 3 94v1179
c0 64 -3 111.333 -9 142c-8.66699 47.333 -39 75.333 -91 84c-34 6 -130.667 9 -290 9c-158.667 0 -255 -3 -289 -9c-51.333 -8.66699 -81.666 -36.667 -90.999 -84c-6 -28.667 -9 -76 -9 -142v-1179c0 -66.667 3 -109 9 -127c18.667 -70.667 76 -107 172 -109h6v-54h-594z
" />
    <glyph glyph-name="summation" unicode="&#x2211;" horiz-adv-x="1460" 
d="M361 1456l385.001 -758.002l-412 -721h673c107.333 0.666992 184.666 11.334 231.999 32.001c40 18 71.667 47.333 95 88c12 21.333 24.333 48.333 37 81h53l-111 -430h-1284l495 835l-477 957h1227l21 -338h-54c-10 58.667 -21.833 103.334 -35.5 134.001
s-32.5 54.667 -56.5 72c-43.333 31.333 -123.333 47.333 -240 48h-548z" />
    <glyph glyph-name="minus" unicode="&#x2212;" horiz-adv-x="1241" 
d="M1136 458h-1032v115h1032v-115z" />
    <glyph glyph-name="fraction" unicode="&#x2215;" horiz-adv-x="342" 
d="M-233 0h-115l924 1432h114z" />
    <glyph glyph-name="periodcentered" unicode="&#x2219;" horiz-adv-x="512" 
d="M233 639c24.667 0 45.666 -8.66895 62.999 -26.002c18.667 -19.333 28 -43.333 28 -72c0 -42 -14.667 -78 -44 -108c-21.333 -22.667 -48 -34 -80 -34c-27.333 0 -49.333 8.33301 -66 25s-25 40.334 -25 71.001c0 44.667 14.667 81.334 44 110.001
c22.667 22.667 49.334 34 80.001 34z" />
    <glyph glyph-name="radical" unicode="&#x221a;" horiz-adv-x="1124" 
d="M747 -98l-504 1030l-194 -94l-39 84l313 153l392 -790l258 1595l92 -14z" />
    <glyph glyph-name="infinity" unicode="&#x221e;" horiz-adv-x="1460" 
d="M731 593c114 152 241.332 228 381.999 228c96 0 172 -32.333 228 -97c46.667 -53.333 70 -122.333 70 -207c0 -86.667 -24.667 -159 -74 -217c-52 -61.333 -123 -92 -213 -92c-94 0 -191 42.333 -291 127c-37.333 31.333 -71.333 66 -102 104l-62 -73
c-95.333 -104.667 -204.666 -157 -327.999 -157c-86.667 0 -157.667 29.667 -213 89c-51.333 54 -77 125.333 -77 214c0 98 31.667 175.333 95 232c57.333 51.333 125.333 77 204 77c133.333 0 260.333 -76 381 -228zM650.999 517c-32 34 -59.667 61.332 -83 81.999
c-77.333 70 -153 105 -227 105c-57.333 0 -103 -20.333 -137 -61c-26.667 -31.333 -40 -72.666 -40 -123.999c0 -72 21.667 -124.333 65 -157c31.333 -24 66.333 -36 105 -36c84.667 0 173.667 45.333 267 136c35.333 34.667 52 53 50 55zM813.999 514.999
c41.333 -44 72.999 -75.998 94.999 -95.998c68 -62.667 139.333 -94 214 -94c64.667 0 111.667 22.667 141 68c22.667 35.333 34 75.666 34 120.999c0 62 -20 110.667 -60 146c-32.667 29.333 -72 44 -118 44c-69.333 0 -139.666 -29 -210.999 -87
c-17.333 -14 -38 -33.833 -62 -59.5s-35 -39.834 -33 -42.501z" />
    <glyph glyph-name="integral" unicode="&#x222b;" horiz-adv-x="561" 
d="M357 1180v-703.999c0 -237.333 -17 -414.666 -51 -531.999c-29.333 -101.333 -89.333 -152 -180 -152c-32.667 0 -59 6.66699 -79 20c-21.333 14.667 -32 34 -32 58c0 19.333 7.33301 34.333 22 45c10.667 8 24 12 40 12c20.667 0 38 -13 52 -39
c14.667 -28 32.334 -42 53.001 -42c22 0 39.667 11 53 33c14.667 23.333 22 55 22 95c0 38 -2 90 -6 156c-6 104 -9 219.333 -9 346v705c0 236 17 413.333 51 532c17.333 59.333 46.333 101.333 87 126c28.667 17.333 59.667 26 93 26c32.667 0 59 -6.66699 79 -20
c21.333 -14 32 -34 32 -60c0 -19.333 -7.33301 -34 -22 -44c-11.333 -8 -24.333 -12 -39 -12c-15.333 0 -29.333 5.66699 -42 17c-6.66699 6 -17.334 21 -32.001 45c-8 12.667 -20 19 -36 19c-47.333 0 -71 -45.667 -71 -137c0 -34.667 2 -83.334 6 -146.001
c6 -98.667 9 -214.334 9 -347.001z" />
    <glyph glyph-name="approxequal" unicode="&#x2248;" horiz-adv-x="1241" 
d="M1136 452c-41.333 -73.333 -80.334 -126 -117.001 -158c-56 -48 -111.333 -72 -166 -72c-44.667 0 -133.334 28 -266.001 84c-54 22.667 -89 37 -105 43c-32.667 11.333 -62.667 17 -90 17c-54 0 -101.333 -24.333 -142 -73c-21.333 -24.667 -46.333 -61.667 -75 -111
l-71 56c59.333 104.667 113.333 173 162 205c40 26.667 80.667 40 122 40c42.667 0 98.334 -13 167.001 -39c13.333 -5.33301 45.333 -19 96 -41c102 -44 168.667 -66 200 -66c78.667 0 150.334 57 215.001 171zM1136 780c-41.333 -74 -80.333 -126.668 -117 -158.001
c-56 -48 -111.333 -72 -166 -72c-44.667 0 -133.334 28 -266.001 84c-53.333 22 -88.333 36 -105 42c-32.667 11.333 -62.667 17 -90 17c-54 0 -101.333 -24 -142 -72c-22 -25.333 -47 -62.666 -75 -111.999l-71 57c59.333 104 113.333 172 162 204
c40 26.667 80.667 40 122 40c43.333 0 99 -13 167 -39l96 -40c101.333 -44 168 -66 200 -66c78.667 0 150.334 57 215.001 171z" />
    <glyph glyph-name="notequal" unicode="&#x2260;" horiz-adv-x="1241" 
d="M750 659l-145 -286h531v-115h-589l-164 -326l-94 49l139 277h-324v115h381l144 286h-525v115h583l168 334l96 -50l-143 -284h328v-115h-386z" />
    <glyph glyph-name="lessequal" unicode="&#x2264;" horiz-adv-x="1241" 
d="M1135 180l-1026 479v117l1026 479v-129l-878 -413l878 -404v-129zM1135 0h-1026v115h1026v-115z" />
    <glyph glyph-name="greaterequal" unicode="&#x2265;" horiz-adv-x="1241" 
d="M109 180v129l878 404l-878 413v129l1026 -479v-117zM109 0v115h1026v-115h-1026z" />
    <glyph glyph-name="lozenge" unicode="&#x25ca;" horiz-adv-x="1012" 
d="M427 -1l-390 772l401 744h129l388 -750l-404 -766h-124zM491 106l339 659l-327 644l-344 -638z" />
    <glyph glyph-name="apple" unicode="&#xf000;" horiz-adv-x="1618" 
d="M1167 1429l0.000976562 -15c0 -130 -66.667 -230.333 -200 -301c-50.667 -26.667 -98 -40.667 -142 -42h-28c-0.666992 94.667 32.666 175 99.999 241c74 70 164 109 270 117zM1462 944c-43.333 -33.333 -76.3311 -64.333 -98.998 -93c-44.667 -56 -67 -120.333 -67 -193
c0 -102 37.333 -186.667 112 -254c23.333 -20.667 54.333 -39.334 93 -56.001c-52.667 -109.333 -108 -195.666 -166 -258.999c-87.333 -96 -167.333 -144 -240 -144c-36 0 -80 11.667 -132 35c-27.333 12 -48 19 -62 21c-16 2 -38.333 3 -67 3
c-45.333 0 -86 -7.66699 -122 -23c-54.667 -24 -100 -36 -136 -36c-87.333 0 -174.333 55.333 -261 166c-133.333 170 -200 348.667 -200 536c0 142.667 52.667 257 158 343c82.667 68 172 102 268 102c48 0 109 -13.333 183 -40c46.667 -17.333 81.667 -26 105 -26
c18.667 0 46 7 82 21c48 18 82 29.667 102 35c25.333 6.66699 56.666 10 93.999 10c149.333 0 267.666 -49.333 354.999 -148z" />
    <glyph glyph-name="fi" unicode="&#xf001;" horiz-adv-x="1081" 
d="M952 1458c18.667 0 36.001 -7.99902 52.001 -23.999s24 -36.333 24 -61c0 -42.667 -13.667 -78.334 -41 -107.001c-18.667 -19.333 -42.334 -29 -71.001 -29c-24.667 0 -44 7 -58 21c-15.333 16 -23 37 -23 63c0 40 14.667 74 44 102c24.667 23.333 49 35 73 35z
M393.001 895.001l182.002 -10.0029c35.333 0.666992 63.666 5 84.999 13c69.333 24.667 117.666 44.334 144.999 59.001c41.333 20 70 30 86 30c20.667 0 31 -23.333 31 -70c0 -21.333 -3.66699 -50 -11 -86l-125 -609c-6.66699 -31.333 -10 -54.666 -10 -69.999
c0 -27.333 8.66699 -41 26 -41c27.333 0 59.666 14 96.999 42l69 54l19 -41c-152.667 -122.667 -255.667 -184 -309 -184c-46.667 0 -70 28.667 -70 86c0 27.333 4 60 12 98l121 561c0.666992 2 2.66699 9.33301 6 22c6.66699 22.667 10 41.334 10 56.001
c0 30 -13 45 -39 45c-8.66699 0 -27 -6.33301 -55 -19l-106 -47h-185l-38 -180c-88.667 -426 -153.667 -691.333 -195 -796c-44.667 -111.333 -102.667 -199.666 -174 -264.999c-79.333 -72 -154 -108 -224 -108c-27.333 0 -51.666 5.33301 -72.999 16
c7.33301 16.667 15.666 41.334 24.999 74.001s16.666 62.667 21.999 90l29 8c13.333 -16.667 25 -29 35 -37c18.667 -14.667 42 -22 70 -22c38 0 71.667 15.667 101 47s53.333 77 72 137c50.667 160 111.667 467 183 921l18 115h-166l10 45
c44.667 15.333 103.334 40.666 176.001 75.999l31 162c20.667 106.667 51.334 181 92.001 223c54.667 56 124.667 115.667 210 179c28.667 21.333 62.667 32 102 32c22.667 0 52.667 -6.33301 90 -19c-14 -40.667 -28.333 -101.334 -43 -182.001l-25 -6
c-21.333 56 -55.333 84 -102 84c-38.667 0 -73.667 -26.333 -105 -79c-23.333 -38 -42.333 -96.333 -57 -175z" />
    <glyph glyph-name="fl" unicode="&#xf002;" horiz-adv-x="1116" 
d="M727 1294c-18.667 50.667 -55.999 75.9971 -111.999 75.9971c-67.333 0 -114 -34.667 -140 -104c-16 -42 -29 -89.333 -39 -142l-43 -229h32c81.333 0.666992 138.666 5.66699 171.999 15l15 3l8 -14c-12.667 -32 -24 -70.333 -34 -115h-213l-39 -180
c-88.667 -427.333 -153.667 -692.666 -195 -795.999c-44.667 -111.333 -102.667 -199.666 -174 -264.999c-79.333 -72 -154 -108 -224 -108c-27.333 0 -51.666 5.33301 -72.999 16c7.33301 16.667 15.666 41.334 24.999 74.001s16.666 62.667 21.999 90l29 8
c13.333 -16.667 25 -29 35 -37c18.667 -14.667 42 -22 70 -22c38 0 71.667 15.667 101 47s53.333 77 72 137c50.667 160 111.667 467 183 921l18 115h-166l10 45c46 16.667 104.667 42 176 76l31 162c20.667 106.667 51.334 181 92.001 223c24 24 68.167 60 132.5 108
s108.5 77.667 132.5 89c20 9.33301 45.333 14 76 14c21.333 0 47 -5.66699 77 -17l-14 -57c92.667 0.666992 180 25.334 262 74.001l33 -17l-252 -1177c-14 -65.333 -21 -114 -21 -146c0 -30.667 11 -46 33 -46c20.667 0 48 12 82 36l98 70l19 -43l-72 -53
c-82 -62 -136.333 -100 -163 -114c-36.667 -19.333 -70.667 -29 -102 -29c-38.667 0 -58 26.667 -58 80c0 33.333 8.66699 85.666 26 156.999l172 817c22.667 108.667 35.334 173.667 38.001 195c3.33301 22 5.66602 50 6.99902 84l-12 44
c-25.333 9.33301 -48 15.333 -68 18h-32l-13 -83h-20z" />
    <glyph glyph-name="glyph1" horiz-adv-x="0" 
 />
    <glyph glyph-name="glyph2" horiz-adv-x="512" 
 />
    <glyph glyph-name="glyph172" 
 />
    </font>
</defs>
</svg>
