<svg width="168" height="48" viewBox="0 0 168 48" fill="none" xmlns="http://www.w3.org/2000/svg">
<g filter="url(#filter0_d_140_311)">
<g clip-path="url(#clip0_140_311)">
<path opacity="0.72" d="M43.9359 18.3521C43.9163 18.1526 43.8239 17.9672 43.6764 17.8315C43.5288 17.6957 43.3364 17.6191 43.1359 17.6161H23.2C22.6586 17.6293 22.1301 17.7839 21.667 18.0646C21.2039 18.3453 20.8222 18.7423 20.56 19.2161C20.3172 19.6398 20.1895 20.1197 20.1895 20.6081C20.1895 21.0965 20.3172 21.5763 20.56 22.0001C20.6293 22.1333 20.7321 22.2462 20.8584 22.3276C20.9847 22.409 21.1299 22.456 21.2799 22.4641H43.184C43.3845 22.4611 43.5769 22.3844 43.7244 22.2487C43.872 22.1129 43.9643 21.9276 43.984 21.7281C43.984 21.1041 43.984 20.5761 43.984 20.1281C43.984 19.6801 43.9839 18.9601 43.9359 18.3521Z" fill="#3056D3"/>
<path d="M43.9203 18.3521C43.9044 18.1539 43.8154 17.9688 43.6705 17.8327C43.5256 17.6967 43.3351 17.6194 43.1363 17.6161H39.9363C39.8241 17.6174 39.7133 17.6422 39.6113 17.6891C39.5093 17.736 39.4184 17.8038 39.3443 17.8881C39.2697 17.9692 39.2138 18.0657 39.1807 18.1707C39.1475 18.2758 39.1379 18.3869 39.1523 18.4961C39.1523 19.0081 39.1523 19.5201 39.1523 20.0961C39.1483 22.6492 38.5013 25.1602 37.2709 27.3973C36.0405 29.6343 34.2663 31.5255 32.1123 32.8961C31.8883 33.0401 31.6804 33.2161 31.4404 33.3441C30.2663 34.0127 29.0067 34.5187 27.6963 34.8481L29.7924 38.5761C29.8635 38.6994 29.9663 38.8014 30.09 38.8717C30.2138 38.942 30.354 38.9781 30.4963 38.9761C30.5809 38.9914 30.6677 38.9914 30.7523 38.9761L31.2643 38.7681L31.7283 38.5761C32.4361 38.2821 33.1254 37.9455 33.7924 37.5681V37.5681C36.9119 35.8108 39.5039 33.2502 41.299 30.1524C43.0942 27.0545 44.0269 23.5324 44.0004 19.9521C44.0004 19.3601 43.9683 18.8961 43.9203 18.3521Z" fill="#3056D3"/>
<path d="M32.5951 33.5387C32.4876 33.3562 32.3167 33.2196 32.115 33.1547H31.891C31.7521 33.1558 31.6153 33.1887 31.491 33.2507C29.2095 34.5489 26.6281 35.2274 24.0031 35.2187C19.9744 35.2103 16.1132 33.6061 13.2645 30.7574C10.4157 27.9087 8.81158 24.0474 8.80313 20.0187C8.81158 15.99 10.4157 12.1288 13.2645 9.28005C16.1132 6.43133 19.9744 4.82719 24.0031 4.81873C26.6269 4.81957 29.2059 5.49741 31.491 6.78673C31.6105 6.86254 31.7496 6.9015 31.891 6.89872H32.067C32.1767 6.87451 32.2802 6.82791 32.3711 6.76184C32.4619 6.69576 32.5383 6.61163 32.5951 6.51473L34.1951 3.73073C34.3009 3.54557 34.33 3.32636 34.2762 3.12003C34.2223 2.91369 34.0898 2.73663 33.907 2.62673C30.8954 0.924836 27.4944 0.0318584 24.0352 0.0347359C18.7334 0.0431984 13.6512 2.15305 9.90234 5.90195C6.15345 9.65084 4.04362 14.733 4.03516 20.0347C4.04362 25.3365 6.15345 30.4186 9.90234 34.1675C13.6512 37.9164 18.7334 40.0263 24.0352 40.0347C27.4944 40.0376 30.8954 39.1446 33.907 37.4427C33.9986 37.3914 34.0789 37.3221 34.1432 37.2392C34.2074 37.1562 34.2544 37.0611 34.2813 36.9597C34.3081 36.8582 34.3144 36.7524 34.2996 36.6485C34.2848 36.5445 34.2492 36.4447 34.1951 36.3547L32.5951 33.5387Z" fill="#3056D3"/>
<path opacity="0.56" d="M26.2883 22.4H21.2324C21.089 22.3897 20.9501 22.3451 20.8275 22.2699C20.705 22.1947 20.6024 22.0912 20.5283 21.968V21.968L29.8244 38.432C29.8956 38.5552 29.9983 38.6573 30.1221 38.7276C30.2458 38.7979 30.386 38.8339 30.5283 38.832C30.6183 38.8472 30.7104 38.8472 30.8004 38.832C31.8576 38.4513 32.8801 37.9802 33.8564 37.4239C33.948 37.3726 34.0281 37.3033 34.0924 37.2204C34.1567 37.1374 34.2036 37.0423 34.2305 36.9409C34.2573 36.8394 34.2636 36.7336 34.2488 36.6297C34.234 36.5258 34.1985 36.4259 34.1443 36.3359L26.2883 22.4Z" fill="#3056D3"/>
</g>
<path d="M66.5224 13.6567V30.6077H63.5416V13.6567H59V10.855H71.0512V13.6567H66.5224Z" fill="#362122"/>
<path d="M81.2473 18.1471H84.1386V30.6077H81.2473V29.3028C80.0618 30.4115 78.7868 30.9659 77.4222 30.9659C75.6994 30.9659 74.2751 30.3433 73.1493 29.0981C72.032 27.8273 71.4733 26.2409 71.4733 24.339C71.4733 22.4712 72.032 20.9147 73.1493 19.6695C74.2665 18.4243 75.6652 17.8017 77.3454 17.8017C78.7953 17.8017 80.0959 18.3987 81.2473 19.5928V18.1471ZM74.4158 24.339C74.4158 25.533 74.7356 26.5053 75.3753 27.2559C76.032 28.0149 76.8593 28.3945 77.8571 28.3945C78.9232 28.3945 79.7846 28.0277 80.4414 27.2942C81.0981 26.5352 81.4264 25.5714 81.4264 24.403C81.4264 23.2345 81.0981 22.2708 80.4414 21.5117C79.7846 20.7697 78.9318 20.3987 77.8827 20.3987C76.8934 20.3987 76.0661 20.774 75.4009 21.5245C74.7441 22.2836 74.4158 23.2217 74.4158 24.339Z" fill="#362122"/>
<path d="M90.6503 18.1471V30.6077H87.7719V18.1471H90.6503ZM87.3369 12.9659C87.3369 12.4627 87.5203 12.0277 87.887 11.661C88.2537 11.2942 88.693 11.1109 89.2047 11.1109C89.7249 11.1109 90.1684 11.2942 90.5352 11.661C90.9019 12.0192 91.0853 12.4584 91.0853 12.9787C91.0853 13.4989 90.9019 13.9424 90.5352 14.3092C90.177 14.6759 89.7377 14.8593 89.2175 14.8593C88.6972 14.8593 88.2537 14.6759 87.887 14.3092C87.5203 13.9424 87.3369 13.4947 87.3369 12.9659Z" fill="#362122"/>
<path d="M97.1748 9V30.6077H94.2964V9H97.1748Z" fill="#362122"/>
<path d="M111.529 20.322H119.691V20.9744C119.691 22.4584 119.516 23.7719 119.166 24.9147C118.825 25.9723 118.249 26.9616 117.439 27.8827C115.606 29.9467 113.273 30.9787 110.441 30.9787C107.678 30.9787 105.311 29.9808 103.341 27.9851C101.371 25.9808 100.386 23.5757 100.386 20.7697C100.386 17.9041 101.388 15.4733 103.392 13.4776C105.397 11.4733 107.836 10.4712 110.71 10.4712C112.254 10.4712 113.695 10.7868 115.034 11.4179C116.313 12.049 117.571 13.0725 118.808 14.4883L116.684 16.5224C115.064 14.3646 113.09 13.2857 110.761 13.2857C108.672 13.2857 106.919 14.0064 105.503 15.4478C104.087 16.8635 103.38 18.6375 103.38 20.7697C103.38 22.9701 104.168 24.7825 105.746 26.2068C107.222 27.5288 108.821 28.1898 110.544 28.1898C112.011 28.1898 113.328 27.6951 114.497 26.7058C115.665 25.7079 116.318 24.5139 116.454 23.1237H111.529V20.322Z" fill="#362122"/>
<path d="M122.902 18.1471H125.78V19.2601C126.309 18.7058 126.778 18.3262 127.188 18.1215C127.606 17.9083 128.1 17.8017 128.672 17.8017C129.431 17.8017 130.224 18.049 131.051 18.5437L129.733 21.1791C129.188 20.7868 128.655 20.5906 128.134 20.5906C126.565 20.5906 125.78 21.7761 125.78 24.1471V30.6077H122.902V18.1471Z" fill="#362122"/>
<path d="M135.989 18.1471V30.6077H133.111V18.1471H135.989ZM132.676 12.9659C132.676 12.4627 132.859 12.0277 133.226 11.661C133.593 11.2942 134.032 11.1109 134.544 11.1109C135.064 11.1109 135.507 11.2942 135.874 11.661C136.241 12.0192 136.424 12.4584 136.424 12.9787C136.424 13.4989 136.241 13.9424 135.874 14.3092C135.516 14.6759 135.077 14.8593 134.557 14.8593C134.036 14.8593 133.593 14.6759 133.226 14.3092C132.859 13.9424 132.676 13.4947 132.676 12.9659Z" fill="#362122"/>
<path d="M148.821 9H151.712V30.6077H148.821V29.3028C147.687 30.4115 146.403 30.9659 144.97 30.9659C143.264 30.9659 141.849 30.3433 140.723 29.0981C139.606 27.8273 139.047 26.2409 139.047 24.339C139.047 22.4797 139.606 20.9275 140.723 19.6823C141.832 18.4286 143.226 17.8017 144.906 17.8017C146.365 17.8017 147.67 18.3987 148.821 19.5928V9ZM141.989 24.339C141.989 25.533 142.309 26.5053 142.949 27.2559C143.606 28.0149 144.433 28.3945 145.431 28.3945C146.497 28.3945 147.358 28.0277 148.015 27.2942C148.672 26.5352 149 25.5714 149 24.403C149 23.2345 148.672 22.2708 148.015 21.5117C147.358 20.7697 146.505 20.3987 145.456 20.3987C144.467 20.3987 143.64 20.774 142.974 21.5245C142.318 22.2836 141.989 23.2217 141.989 24.339Z" fill="#362122"/>
<path d="M162.586 20.2708L160.207 21.5373C159.832 20.7697 159.367 20.3859 158.812 20.3859C158.548 20.3859 158.322 20.4755 158.134 20.6546C157.947 20.8252 157.853 21.0469 157.853 21.3198C157.853 21.7974 158.407 22.2708 159.516 22.7399C161.043 23.3966 162.07 24.0021 162.599 24.5565C163.128 25.1109 163.392 25.8571 163.392 26.7953C163.392 27.9979 162.949 29.0043 162.062 29.8145C161.2 30.5821 160.16 30.9659 158.94 30.9659C156.851 30.9659 155.371 29.9467 154.501 27.9083L156.957 26.7697C157.299 27.3667 157.559 27.7463 157.738 27.9083C158.087 28.2324 158.505 28.3945 158.991 28.3945C159.964 28.3945 160.45 27.951 160.45 27.064C160.45 26.5522 160.075 26.0746 159.324 25.6311C159.034 25.4861 158.744 25.3454 158.454 25.209C158.164 25.0725 157.87 24.9318 157.571 24.7868C156.736 24.3774 156.147 23.968 155.806 23.5586C155.371 23.0384 155.154 22.3689 155.154 21.5501C155.154 20.467 155.525 19.5714 156.267 18.8635C157.026 18.1557 157.947 17.8017 159.03 17.8017C160.625 17.8017 161.81 18.6247 162.586 20.2708Z" fill="#362122"/>
</g>
<defs>
<filter id="filter0_d_140_311" x="0" y="0" width="167.393" height="48" filterUnits="userSpaceOnUse" color-interpolation-filters="sRGB">
<feFlood flood-opacity="0" result="BackgroundImageFix"/>
<feColorMatrix in="SourceAlpha" type="matrix" values="0 0 0 0 0 0 0 0 0 0 0 0 0 0 0 0 0 0 127 0" result="hardAlpha"/>
<feOffset dy="4"/>
<feGaussianBlur stdDeviation="2"/>
<feComposite in2="hardAlpha" operator="out"/>
<feColorMatrix type="matrix" values="0 0 0 0 0 0 0 0 0 0 0 0 0 0 0 0 0 0 0.25 0"/>
<feBlend mode="normal" in2="BackgroundImageFix" result="effect1_dropShadow_140_311"/>
<feBlend mode="normal" in="SourceGraphic" in2="effect1_dropShadow_140_311" result="shape"/>
</filter>
<clipPath id="clip0_140_311">
<rect width="40" height="40" fill="white" transform="translate(4)"/>
</clipPath>
</defs>
</svg>
